<?xml version="1.0" encoding="utf-8"?>
      <svg version="1.1"
        xmlns="http://www.w3.org/2000/svg"
        xmlns:xlink="http://www.w3.org/1999/xlink">
          <symbol id="actions">
<path d="M14 5C14 6.10457 13.1046 7 12 7C10.8954 7 10 6.10457 10 5C10 3.89543 10.8954 3 12 3C13.1046 3 14 3.89543 14 5Z"/>
<path d="M14 12C14 13.1046 13.1046 14 12 14C10.8954 14 10 13.1046 10 12C10 10.8954 10.8954 10 12 10C13.1046 10 14 10.8954 14 12Z"/>
<path d="M12 21C13.1046 21 14 20.1046 14 19C14 17.8954 13.1046 17 12 17C10.8954 17 10 17.8954 10 19C10 20.1046 10.8954 21 12 21Z"/>
  </symbol>
<symbol id="add">
<path d="M14 4C14 2.89543 13.1046 2 12 2C10.8954 2 10 2.89543 10 4V10H4C2.89543 10 2 10.8954 2 12C2 13.1046 2.89543 14 4 14H10V20C10 21.1046 10.8954 22 12 22C13.1046 22 14 21.1046 14 20V14H20C21.1046 14 22 13.1046 22 12C22 10.8954 21.1046 10 20 10H14V4Z" />
</symbol>
<symbol id="administration">
<path d="M14.1322 10.4945C14.1322 11.6507 13.1776 12.5879 12 12.5879C10.8224 12.5879 9.8678 11.6507 9.8678 10.4945C9.8678 9.33832 10.8224 8.40106 12 8.40106C13.1776 8.40106 14.1322 9.33832 14.1322 10.4945Z"/>
<path d="M22.1322 3H1.8678C0.836244 3 0 3.82104 0 4.83385V16.1635C0 17.1763 0.836244 17.9974 1.8678 17.9974H22.1322C23.1638 17.9974 24 17.1763 24 16.1635V4.83385C24 3.82104 23.1638 3 22.1322 3ZM17.8678 12.9815L17.0576 14.2878C16.7765 14.7813 16.1554 14.9784 15.6333 14.74L14.6269 14.2878C14.4142 14.4377 14.1888 14.5694 13.9531 14.6814L13.8422 15.7951C13.7919 16.335 13.3447 16.7562 12.7932 16.7832H11.2495C10.675 16.7856 10.1938 16.3567 10.1407 15.7951L10.0299 14.6814C9.79433 14.5691 9.56893 14.4374 9.35608 14.2878L8.34968 14.7232C7.82754 14.9617 7.20645 14.7645 6.92537 14.271L6.17484 12.9731C5.89469 12.4881 6.02633 11.8742 6.48188 11.5412L7.3774 10.8964V10.4861C7.36996 10.3494 7.36996 10.2125 7.3774 10.0758L6.52452 9.43103C6.06778 9.11278 5.91876 8.51329 6.17484 8.02424L6.92537 6.71794C7.20645 6.22446 7.82754 6.02728 8.34968 6.26576L9.38166 6.70119C9.58764 6.56688 9.80442 6.44925 10.0299 6.34949L10.1407 5.23579C10.1896 4.67082 10.672 4.23728 11.2495 4.23931H12.7932C13.3677 4.2369 13.8489 4.66576 13.9019 5.22741L13.9701 6.34949C14.2057 6.46175 14.4311 6.59341 14.6439 6.74306L15.6503 6.29088C16.1574 6.05549 16.7636 6.23224 17.0576 6.70119L17.8252 8.02424C18.1053 8.50926 17.9737 9.1232 17.5181 9.45615L16.6226 10.1009V10.5112C16.63 10.6479 16.63 10.7849 16.6226 10.9216L17.4755 11.5663C17.9398 11.8829 18.0931 12.4884 17.8337 12.9815H17.8678Z"/>
<path d="M15.0704 19.3623C15.0015 19.2732 14.8943 19.2206 14.7804 19.2199H9.50107C9.38713 19.2206 9.27998 19.2732 9.21109 19.3623L7.62473 21.4222C7.54074 21.5308 7.52646 21.6767 7.58786 21.7991C7.64926 21.9214 7.7758 21.9992 7.91471 22H16.3667C16.5056 21.9992 16.6322 21.9214 16.6936 21.7991C16.755 21.6767 16.7407 21.5308 16.6567 21.4222L15.0704 19.3623Z"/>
  </symbol>
<symbol id="america">
<circle cx="12.0817" cy="12.0817" r="10.0817" fill="#F0F0F0"/>
<path d="M11.6436 12.0817H22.1636C22.1636 11.1717 22.0423 10.2902 21.8162 9.45166H11.6436V12.0817Z" fill="#D80027"/>
<path d="M11.6436 6.82167H20.6838C20.0667 5.8146 19.2776 4.92446 18.3576 4.19165H11.6436V6.82167Z" fill="#D80027"/>
<path d="M12.0823 22.1633C14.455 22.1633 16.6359 21.3433 18.358 19.9717H5.80664C7.5288 21.3433 9.70963 22.1633 12.0823 22.1633Z" fill="#D80027"/>
<path d="M3.48007 17.3417H20.684C21.1795 16.5332 21.5637 15.6495 21.8164 14.7117H2.34766C2.60037 15.6495 2.98461 16.5332 3.48007 17.3417Z" fill="#D80027"/>
<path fill-rule="evenodd" clip-rule="evenodd" d="M7.58876 3.5744H6.67003C8.23351 2.57773 10.0901 2 12.0817 2V12.0817H2C2 11.6559 2.0267 11.2364 2.07794 10.8246L2.58982 10.4527L3.44436 11.0735L3.11792 10.0689L3.97251 9.44808H2.91621L2.63003 8.56719C2.72907 8.30078 2.83926 8.0398 2.95973 7.78456L3.44436 8.13667L3.1846 7.33719C3.26249 7.19144 3.34378 7.04781 3.42853 6.90643L3.97251 6.51124H3.67813C4.22159 5.69305 4.88108 4.95874 5.6335 4.33198L5.35153 5.19983L6.20607 4.57898L7.06061 5.19983L6.73418 4.19525L7.58876 3.5744ZM6.20593 10.4528L7.06047 11.0736L6.73404 10.069L7.58862 9.44819H6.53232L6.20593 8.4436L5.87953 9.44819H4.82324L5.67782 10.069L5.35139 11.0736L6.20593 10.4528ZM6.73404 7.13203L7.06047 8.13661L6.20593 7.51576L5.35139 8.13661L5.67782 7.13203L4.82324 6.51118H5.87953L6.20593 5.50659L6.53232 6.51118H7.58862L6.73404 7.13203ZM9.82214 10.4528L10.6767 11.0736L10.3502 10.069L11.2048 9.44819H10.1485L9.82214 8.4436L9.49575 9.44819H8.43945L9.29403 10.069L8.9676 11.0736L9.82214 10.4528ZM10.3502 7.13203L10.6767 8.13661L9.82214 7.51576L8.9676 8.13661L9.29403 7.13203L8.43945 6.51118H9.49575L9.82214 5.50659L10.1485 6.51118H11.2048L10.3502 7.13203ZM10.6767 5.19984L10.3502 4.19526L11.2048 3.57441H10.1485L9.82214 2.56982L9.49575 3.57441H8.43945L9.29403 4.19526L8.9676 5.19984L9.82214 4.57899L10.6767 5.19984Z" fill="#0052B4"/>
</symbol>
<symbol id="back"><path d="M6.20864 14.2538L6.27391 14.319L13.9939 21.7563C14.9785 22.7048 16.5127 22.746 17.5451 21.88L17.7255 21.715C18.6866 20.789 18.7552 19.286 17.9115 18.2784L17.7584 18.1112L11.9349 12.5L17.7257 6.92111C18.7306 5.95304 18.7598 4.3543 17.791 3.35021L17.6829 3.24372C16.6536 2.25209 15.0235 2.25209 13.9942 3.24372L6.27417 10.681C5.91221 11.0297 5.67683 11.4602 5.5691 11.9153C5.55075 11.9935 5.53606 12.0717 5.52508 12.1504C5.50727 12.2787 5.49933 12.408 5.50126 12.5372C5.51023 13.1573 5.74529 13.7736 6.20864 14.2538Z" /></symbol>
<symbol id="calendar">
<path d="M8.7963 12.7838C8.7963 13.3105 8.36516 13.7375 7.83333 13.7375C7.3015 13.7375 6.87037 13.3105 6.87037 12.7838C6.87037 12.2571 7.3015 11.8301 7.83333 11.8301C8.36516 11.8301 8.7963 12.2571 8.7963 12.7838Z"/>
<path d="M11.9259 13.7375C12.4578 13.7375 12.8889 13.3105 12.8889 12.7838C12.8889 12.2571 12.4578 11.8301 11.9259 11.8301C11.3941 11.8301 10.963 12.2571 10.963 12.7838C10.963 13.3105 11.3941 13.7375 11.9259 13.7375Z"/>
<path d="M16.9444 12.7838C16.9444 13.3105 16.5133 13.7375 15.9815 13.7375C15.4497 13.7375 15.0185 13.3105 15.0185 12.7838C15.0185 12.2571 15.4497 11.8301 15.9815 11.8301C16.5133 11.8301 16.9444 12.2571 16.9444 12.7838Z"/>
<path d="M7.83333 16.8919C8.36516 16.8919 8.7963 16.4649 8.7963 15.9382C8.7963 15.4115 8.36516 14.9846 7.83333 14.9846C7.3015 14.9846 6.87037 15.4115 6.87037 15.9382C6.87037 16.4649 7.3015 16.8919 7.83333 16.8919Z"/>
<path d="M12.8889 15.9382C12.8889 16.4649 12.4578 16.8919 11.9259 16.8919C11.3941 16.8919 10.963 16.4649 10.963 15.9382C10.963 15.4115 11.3941 14.9846 11.9259 14.9846C12.4578 14.9846 12.8889 15.4115 12.8889 15.9382Z"/>
<path d="M15.9815 16.8919C16.5133 16.8919 16.9444 16.4649 16.9444 15.9382C16.9444 15.4115 16.5133 14.9846 15.9815 14.9846C15.4497 14.9846 15.0185 15.4115 15.0185 15.9382C15.0185 16.4649 15.4497 16.8919 15.9815 16.8919Z"/>
<path fill-rule="evenodd" clip-rule="evenodd" d="M6.90741 2.96296C6.90741 2.43113 7.33854 2 7.87037 2C8.4022 2 8.83333 2.43113 8.83333 2.96296V4.41156C8.83333 4.46467 8.82903 4.51679 8.82076 4.56757H15.0681C15.0599 4.51679 15.0556 4.46467 15.0556 4.41155V2.96296C15.0556 2.43113 15.4867 2 16.0185 2C16.5503 2 16.9815 2.43113 16.9815 2.96296V4.41156C16.9815 4.46467 16.9772 4.51679 16.9689 4.56757H18.8622C20.5931 4.5724 21.9951 5.96085 22 7.67506V17.8925C21.9951 19.6067 20.5931 20.9952 18.8622 21H5.13778C3.40686 20.9952 2.00488 19.6067 2 17.8925V7.67506C2.00488 5.96085 3.40686 4.5724 5.13778 4.56757H6.91998C6.91171 4.51679 6.90741 4.46467 6.90741 4.41155V2.96296ZM19.3333 16.7334C19.3305 17.7111 18.5309 18.503 17.5437 18.5058H6.38222C5.39502 18.503 4.59544 17.7111 4.59259 16.7334V11.9152C4.59544 10.9375 5.39502 10.1457 6.38222 10.1429H17.5437C18.5309 10.1457 19.3305 10.9375 19.3333 11.9152V16.7334Z"/>
  </symbol>
<symbol id="catalog">
<path d="M24.0002 18.67L18.5302 1.33002C18.4556 1.10714 18.2332 0.96866 18.0002 1.00002L13.3802 2.64002C13.1313 2.73373 13.0026 3.0089 13.0902 3.26002L18.5302 20.6C18.5586 20.7211 18.6445 20.8207 18.7601 20.8666C18.8758 20.9124 19.0065 20.8988 19.1102 20.83L20.6102 20.3L21.4702 22.64C21.4955 22.6821 21.5411 22.7079 21.5902 22.7079C21.6394 22.7079 21.6849 22.6821 21.7102 22.64L22.2302 21.87L23.1302 22.12C23.1689 22.1288 23.2095 22.1207 23.2419 22.0979C23.2743 22.075 23.2955 22.0394 23.3002 22L22.4502 19.68L23.6902 19.24C23.8099 19.2103 23.9117 19.1316 23.9706 19.0232C24.0296 18.9148 24.0403 18.7867 24.0002 18.67ZM18.3902 5.00002L15.3102 6.12002C15.1472 6.17612 14.9683 6.16296 14.8152 6.08359C14.6622 6.00422 14.5483 5.86559 14.5002 5.70002C14.3842 5.35262 14.5598 4.97508 14.9002 4.84002L18.0002 3.74002C18.1633 3.68391 18.3422 3.69708 18.4952 3.77645C18.6483 3.85581 18.7621 3.99444 18.8102 4.16002C18.9118 4.5068 18.7286 4.87318 18.3902 5.00002ZM7.50022 1.64002H12.2902C12.4308 1.63977 12.5653 1.6976 12.6619 1.79984C12.7584 1.90207 12.8085 2.03964 12.8002 2.18002V20.45C12.7791 20.7143 12.5553 20.9162 12.2902 20.91H7.50022C7.37906 20.9131 7.2622 20.865 7.17843 20.7774C7.09465 20.6898 7.05172 20.5709 7.06022 20.45V2.18002C7.06022 1.87002 7.21022 1.64002 7.50022 1.64002ZM8.24022 5.64002H11.4902C11.8314 5.59841 12.0879 5.30874 12.0879 4.96502C12.0879 4.6213 11.8314 4.33162 11.4902 4.29002H8.24022C7.89903 4.33162 7.64253 4.6213 7.64253 4.96502C7.64253 5.30874 7.89903 5.59841 8.24022 5.64002ZM0.44022 1.64002H5.30022C5.59022 1.64002 5.74022 1.87002 5.74022 2.18002V20.45C5.74872 20.5709 5.70579 20.6898 5.62201 20.7774C5.53824 20.865 5.42138 20.9131 5.30022 20.91H0.44022C0.198352 20.89 0.00950265 20.6925 0.000219641 20.45V2.18002C-0.0180199 1.91229 0.174328 1.67623 0.44022 1.64002ZM1.20022 5.64002H4.45022C4.79141 5.59841 5.04791 5.30874 5.04791 4.96502C5.04791 4.6213 4.79141 4.33162 4.45022 4.29002H1.20022C0.859026 4.33162 0.60253 4.6213 0.60253 4.96502C0.60253 5.30874 0.859026 5.59841 1.20022 5.64002Z"/>
  </symbol>
<symbol id="close"><path d="M20.3,3.8c-1-1-2.5-1-3.5,0L12,8.6L7.2,3.8c-1-1-2.5-1-3.5,0s-1,2.5,0,3.4L8.5,12l-4.8,4.8c-1,1-1,2.5,0,3.4
c1,1,2.5,1,3.5,0l4.8-4.8l4.8,4.8c1,1,2.5,1,3.5,0c1-1,1-2.5,0-3.4L15.5,12l4.8-4.8C21.3,6.2,21.3,4.7,20.3,3.8z"/></symbol>
<symbol id="comment">
<path fill-rule="evenodd" clip-rule="evenodd" d="M4.83636 2H19.1636C19.9159 2 20.6373 2.29883 21.1692 2.83075C21.7012 3.36267 22 4.08411 22 4.83636V15.5273C22 17.0938 20.7301 18.3636 19.1636 18.3636H5.63636L2.77273 21.2182C2.64286 21.3455 2.4496 21.3832 2.28143 21.3139C2.11326 21.2447 2.00255 21.0819 2 20.9V4.83636C2 3.26988 3.26988 2 4.83636 2ZM5.63636 9.81818C5.63636 10.5211 6.20618 11.0909 6.90909 11.0909C7.24664 11.0909 7.57036 10.9568 7.80904 10.7181C8.04773 10.4795 8.18182 10.1557 8.18182 9.81818C8.18182 9.11527 7.612 8.54545 6.90909 8.54545C6.20618 8.54545 5.63636 9.11527 5.63636 9.81818ZM12 11.0909C11.2971 11.0909 10.7273 10.5211 10.7273 9.81818C10.7273 9.11527 11.2971 8.54545 12 8.54545C12.7029 8.54545 13.2727 9.11527 13.2727 9.81818C13.2727 10.1557 13.1386 10.4795 12.9 10.7181C12.6613 10.9568 12.3375 11.0909 12 11.0909ZM15.8182 9.81818C15.8182 10.5211 16.388 11.0909 17.0909 11.0909C17.4285 11.0909 17.7522 10.9568 17.9909 10.7181C18.2295 10.4795 18.3636 10.1557 18.3636 9.81818C18.3636 9.11527 17.7938 8.54545 17.0909 8.54545C16.388 8.54545 15.8182 9.11527 15.8182 9.81818Z"/>
  </symbol>
<symbol id="content">
<path d="M20.9688 1H2.73651C1.78119 0.999986 1.00529 1.78215 1.0001 2.75043V4.82609C0.995061 5.29617 1.17578 5.74877 1.50196 6.08298C1.82815 6.41719 2.2727 6.60525 2.73651 6.60522H20.9688C21.4326 6.60525 21.8772 6.41719 22.2034 6.08298C22.5296 5.74877 22.7103 5.29617 22.7052 4.82609V2.75043C22.7 1.78215 21.9241 0.999986 20.9688 1Z"/>
<path d="M8.00237 8.42261H2.73651C1.77752 8.42261 1.0001 9.21059 1.0001 10.1826V21.2496C1.00529 22.2178 1.78119 23 2.73651 23H8.00237C8.95769 23 9.73358 22.2178 9.73878 21.2496V10.1826C9.73878 9.21059 8.96136 8.42261 8.00237 8.42261Z"/>
<path d="M12.7586 10.5652H21.7615C22.1507 10.4356 22.5779 10.5752 22.819 10.9108C23.0602 11.2464 23.0602 11.7014 22.819 12.037C22.5779 12.3726 22.1507 12.5123 21.7615 12.3826H12.7586C12.3695 12.5123 11.9423 12.3726 11.7011 12.037C11.46 11.7014 11.46 11.2464 11.7011 10.9108C11.9423 10.5752 12.3695 10.4356 12.7586 10.5652Z"/>
<path d="M21.7615 14.8026H12.7586C12.3695 14.673 11.9423 14.8126 11.7011 15.1482C11.46 15.4838 11.46 15.9388 11.7011 16.2744C11.9423 16.61 12.3695 16.7496 12.7586 16.62H21.7615C22.1507 16.7496 22.5779 16.61 22.819 16.2744C23.0602 15.9388 23.0602 15.4838 22.819 15.1482C22.5779 14.8126 22.1507 14.673 21.7615 14.8026Z"/>
<path d="M12.7586 19.0496H21.7615C22.1507 18.9199 22.5779 19.0595 22.819 19.3952C23.0602 19.7308 23.0602 20.1857 22.819 20.5214C22.5779 20.857 22.1507 20.9966 21.7615 20.867H12.7586C12.3695 20.9966 11.9423 20.857 11.7011 20.5214C11.46 20.1857 11.46 19.7308 11.7011 19.3952C11.9423 19.0595 12.3695 18.9199 12.7586 19.0496Z"/>
  </symbol>
<symbol id="copy">
<path d="M8.08696 2H20.2609C21.2214 2 22 2.77864 22 3.73913V15.913C22 16.8735 21.2214 17.6522 20.2609 17.6522H17.6522V19.3913C17.6522 20.3518 16.8735 21.1304 15.913 21.1304H3.73913C2.77864 21.1304 2 20.3518 2 19.3913V7.21739C2 6.2569 2.77864 5.47826 3.73913 5.47826H6.34783V3.73913C6.34783 2.77864 7.12646 2 8.08696 2ZM3.73913 19.3913H15.913V17.6522H8.08696C7.12646 17.6522 6.34783 16.8735 6.34783 15.913V7.21739H3.73913V19.3913Z"/>
  </symbol>
<symbol id="create">
<path d="M4.5 2C3.11929 2 2 3.11929 2 4.5V8.66667C2 10.0474 3.11929 11.1667 4.5 11.1667H8.66667C10.0474 11.1667 11.1667 10.0474 11.1667 8.66667V4.5C11.1667 3.11929 10.0474 2 8.66667 2H4.5Z"/>
<path d="M4.5 12.8333C3.11929 12.8333 2 13.9526 2 15.3333V19.5C2 20.8807 3.11929 22 4.5 22H8.66667C10.0474 22 11.1667 20.8807 11.1667 19.5V15.3333C11.1667 13.9526 10.0474 12.8333 8.66667 12.8333H4.5Z"/>
<path d="M12.8333 4.5C12.8333 3.11929 13.9526 2 15.3333 2H19.5C20.8807 2 22 3.11929 22 4.5V8.66667C22 10.0474 20.8807 11.1667 19.5 11.1667H15.3333C13.9526 11.1667 12.8333 10.0474 12.8333 8.66667V4.5Z"/>
<path d="M18.6667 16.1667H20.75C21.4404 16.1667 22 16.7263 22 17.4167C22 18.107 21.4404 18.6667 20.75 18.6667H18.6667V20.75C18.6667 21.4404 18.107 22 17.4167 22C16.7263 22 16.1667 21.4404 16.1667 20.75V18.6667H14.0833C13.393 18.6667 12.8333 18.107 12.8333 17.4167C12.8333 16.7263 13.393 16.1667 14.0833 16.1667H16.1667V14.0833C16.1667 13.393 16.7263 12.8333 17.4167 12.8333C18.107 12.8333 18.6667 13.393 18.6667 14.0833V16.1667Z"/>
  </symbol>
<symbol id="customer">
<path d="M12.2679 12.3826C15.4111 12.3826 17.9592 9.83453 17.9592 6.6913C17.9592 3.54808 15.4111 1 12.2679 1C9.12464 1 6.57655 3.54808 6.57655 6.6913C6.57655 9.83453 9.12464 12.3826 12.2679 12.3826Z"/>
<path d="M12.2679 13.693C18.7244 13.693 21.5174 16.8209 22.7322 19.3843C23.0617 20.1054 23.001 20.9447 22.5711 21.6108C22.1412 22.2769 21.4015 22.678 20.6087 22.6748H4.34786C3.55008 22.7657 2.76685 22.411 2.30907 21.7513C1.8513 21.0916 1.79304 20.2338 2.15742 19.5183C3.14264 16.9357 5.81134 13.693 12.2679 13.693Z"/>
  </symbol>
<symbol id="darkMode">
<path d="M14.7634 16.4416C11.4195 16.0085 8.74772 13.2288 8.38337 9.81172C8.04816 6.6681 9.61251 3.86403 12.0512 2.43495C12.5251 2.15747 12.329 1.41722 11.7829 1.44381C11.1716 1.47351 10.5477 1.56305 9.91468 1.71952C5.69816 2.76518 2.55946 6.52271 2.27424 10.9376C1.89077 16.8813 6.50511 21.8228 12.2521 21.8228C16.6338 21.8228 20.356 18.95 21.7077 14.9505C21.8877 14.4172 21.246 14.0143 20.8473 14.4052C19.3064 15.9132 17.1273 16.7474 14.7634 16.4416Z"/>
  </symbol>
<symbol id="dashboard">
    <path fill-rule="evenodd" clip-rule="evenodd" d="M2.87833 0H19.1217C20.7092 0.00503196 21.995 1.29076 22 2.87833V19.1217C21.995 20.7092 20.7092 21.995 19.1217 22H2.87833C1.29076 21.995 0.00503196 20.7092 0 19.1217V2.87833C0.00503196 1.29076 1.29076 0.00503196 2.87833 0ZM5.335 18.7917C6.09439 18.7917 6.71 18.1761 6.71 17.4167V9.90917C6.71 9.14977 6.09439 8.53417 5.335 8.53417C4.57561 8.53417 3.96 9.14977 3.96 9.90917V17.4167C3.96 18.1761 4.57561 18.7917 5.335 18.7917ZM12.375 17.4167C12.375 18.1761 11.7594 18.7917 11 18.7917C10.2406 18.7917 9.625 18.1761 9.625 17.4167V4.65667C9.625 3.89728 10.2406 3.28167 11 3.28167C11.7594 3.28167 12.375 3.89728 12.375 4.65667V17.4167ZM16.8575 18.7917C17.6169 18.7917 18.2325 18.1761 18.2325 17.4167V13.5942C18.2325 12.8348 17.6169 12.2192 16.8575 12.2192C16.0981 12.2192 15.4825 12.8348 15.4825 13.5942V17.4167C15.4825 18.1761 16.0981 18.7917 16.8575 18.7917Z"/>
  </symbol>
<symbol id="dashboards">
  <path d="M0 1.81818C0 0.814028 0.814028 0 1.81818 0H7.27273C8.27688 0 9.09091 0.814028 9.09091 1.81818V18.1818C9.09091 19.186 8.27688 20 7.27273 20H1.81818C0.814027 20 0 19.186 0 18.1818V1.81818Z"/>
<path d="M10.9091 1.81818C10.9091 0.814027 11.7231 0 12.7273 0H18.1818C19.186 0 20 0.814028 20 1.81818V6.36364C20 7.36779 19.186 8.18182 18.1818 8.18182H12.7273C11.7231 8.18182 10.9091 7.36779 10.9091 6.36364V1.81818Z"/>
<path d="M12.7273 10C11.7231 10 10.9091 10.814 10.9091 11.8182V18.1818C10.9091 19.186 11.7231 20 12.7273 20H18.1818C19.186 20 20 19.186 20 18.1818V11.8182C20 10.814 19.186 10 18.1818 10H12.7273Z"/>
  </symbol>
<symbol id="desktop">
<path d="M2.3,1.9c-1.1,0-1.9,0.9-1.9,1.9v12.6c0,1.1,0.9,1.9,1.9,1.9h5.5l-0.4,1.9H6.2c-0.5,0-1,0.4-1,1c0,0.5,0.4,1,1,1h11.7c0.5,0,1-0.4,1-1c0-0.5-0.4-1-1-1h-1.2l-0.4-1.9h5.5c1.1,0,1.9-0.9,1.9-1.9V3.8c0-1.1-0.9-1.9-1.9-1.9H2.3z M2.3,13.5V4.8
    c0-0.5,0.4-1,1-1h17.5c0.5,0,1,0.4,1,1v8.7c0,0.5-0.4,1-1,1H3.2C2.7,14.5,2.3,14.1,2.3,13.5z M12,17.4c0.5,0,1-0.4,1-1
    c0-0.5-0.4-1-1-1s-1,0.4-1,1C11,17,11.4,17.4,12,17.4z"/>
</symbol>
<symbol id="disconnect">
<path d="M5.46127 8.2569C6.10398 7.71962 7.0605 7.80509 7.59775 8.44781C8.13502 9.09052 8.04949 10.0471 7.40677 10.5844C5.18839 12.4391 3.12163 14.409 3.03677 16.2879C2.99434 17.2334 3.47307 18.185 4.49741 19.2154C6.97641 21.6944 9.607 19.2033 9.89792 18.9124L9.91605 18.9063C10.2993 18.523 10.8581 18.3733 11.3816 18.5136C11.9052 18.6539 12.3142 19.0629 12.4544 19.5865C12.5947 20.11 12.445 20.6687 12.0617 21.052C11.2078 21.8638 10.2002 22.4965 9.09794 22.9127C8.36676 23.184 7.59264 23.3216 6.81278 23.3189C5.11749 23.2928 3.50541 22.5797 2.34573 21.3429C0.709215 19.7064 -0.0786645 17.9547 0.00619055 16.1364C0.145586 12.9421 2.89741 10.3965 5.46127 8.2569ZM7.51242 0.632284L7.69132 0.63709C8.23085 0.683542 8.70471 1.01431 8.93424 1.50478L17.4197 19.6882C17.6493 20.1787 17.5997 20.7543 17.2897 21.1984C16.9797 21.6424 16.4565 21.8873 15.917 21.8408C15.3774 21.7944 14.9036 21.4636 14.6741 20.9732L6.18857 2.78973C5.95902 2.29925 6.00858 1.7236 6.31857 1.27958C6.62857 0.835565 7.15178 0.590638 7.69132 0.63709L7.51242 0.632284ZM14.9165 0.419835C17.2725 -0.499471 19.9514 0.12147 21.6626 1.9836C23.3052 3.6383 24.0992 5.38391 23.9901 7.23256C23.8689 10.451 21.111 13.0088 18.535 15.1545C17.8856 15.685 16.9291 15.5887 16.3985 14.9393C15.868 14.2899 15.9643 13.3333 16.6137 12.8027C18.8442 10.942 20.9232 8.95998 21.008 7.06891C21.0505 6.11731 20.5716 5.15359 19.5412 4.12319C17.1167 1.71086 14.5712 3.95953 14.0863 4.4323C13.4909 5.00577 12.5458 4.99624 11.9621 4.4109C11.3784 3.82555 11.3715 2.88041 11.9467 2.28667C12.8023 1.47257 13.8119 0.837838 14.9165 0.419835Z"/>
  </symbol>
<symbol id="drag">
<path d="M6.6 4.78824C6.6 5.77585 5.79411 6.57647 4.8 6.57647C3.80589 6.57647 3 5.77585 3 4.78824C3 3.80062 3.80589 3 4.8 3C5.79411 3 6.6 3.80062 6.6 4.78824Z"/>
<path d="M6.6 11.9882C6.6 12.9759 5.79411 13.7765 4.8 13.7765C3.80589 13.7765 3 12.9759 3 11.9882C3 11.0006 3.80589 10.2 4.8 10.2C5.79411 10.2 6.6 11.0006 6.6 11.9882Z"/>
<path d="M4.8 20.9765C5.79411 20.9765 6.6 20.1758 6.6 19.1882C6.6 18.2006 5.79411 17.4 4.8 17.4C3.80589 17.4 3 18.2006 3 19.1882C3 20.1758 3.80589 20.9765 4.8 20.9765Z"/>
<path d="M13.8 4.78824C13.8 5.77585 12.9941 6.57647 12 6.57647C11.0059 6.57647 10.2 5.77585 10.2 4.78824C10.2 3.80062 11.0059 3 12 3C12.9941 3 13.8 3.80062 13.8 4.78824Z"/>
<path d="M12 13.7765C12.9941 13.7765 13.8 12.9759 13.8 11.9882C13.8 11.0006 12.9941 10.2 12 10.2C11.0059 10.2 10.2 11.0006 10.2 11.9882C10.2 12.9759 11.0059 13.7765 12 13.7765Z"/>
<path d="M13.8 19.1882C13.8 20.1758 12.9941 20.9765 12 20.9765C11.0059 20.9765 10.2 20.1758 10.2 19.1882C10.2 18.2006 11.0059 17.4 12 17.4C12.9941 17.4 13.8 18.2006 13.8 19.1882Z"/>
<path d="M19.2 6.57647C20.1941 6.57647 21 5.77585 21 4.78824C21 3.80062 20.1941 3 19.2 3C18.2059 3 17.4 3.80062 17.4 4.78824C17.4 5.77585 18.2059 6.57647 19.2 6.57647Z"/>
<path d="M21 11.9882C21 12.9759 20.1941 13.7765 19.2 13.7765C18.2059 13.7765 17.4 12.9759 17.4 11.9882C17.4 11.0006 18.2059 10.2 19.2 10.2C20.1941 10.2 21 11.0006 21 11.9882Z"/>
<path d="M19.2 20.9765C20.1941 20.9765 21 20.1758 21 19.1882C21 18.2006 20.1941 17.4 19.2 17.4C18.2059 17.4 17.4 18.2006 17.4 19.1882C17.4 20.1758 18.2059 20.9765 19.2 20.9765Z"/>
</symbol>
<symbol id="dropUp"><path d="M6.20864 14.2538L6.27391 14.319L13.9939 21.7563C14.9785 22.7048 16.5127 22.746 17.5451 21.88L17.7255 21.715C18.6866 20.789 18.7552 19.286 17.9115 18.2784L17.7584 18.1112L11.9349 12.5L17.7257 6.92111C18.7306 5.95304 18.7598 4.3543 17.791 3.35021L17.6829 3.24372C16.6536 2.25209 15.0235 2.25209 13.9942 3.24372L6.27417 10.681C5.91221 11.0297 5.67683 11.4602 5.5691 11.9153C5.55075 11.9935 5.53606 12.0717 5.52508 12.1504C5.50727 12.2787 5.49933 12.408 5.50126 12.5372C5.51023 13.1573 5.74529 13.7736 6.20864 14.2538Z" /></symbol>
<symbol id="dropdown"><path d="M6.20864 14.2538L6.27391 14.319L13.9939 21.7563C14.9785 22.7048 16.5127 22.746 17.5451 21.88L17.7255 21.715C18.6866 20.789 18.7552 19.286 17.9115 18.2784L17.7584 18.1112L11.9349 12.5L17.7257 6.92111C18.7306 5.95304 18.7598 4.3543 17.791 3.35021L17.6829 3.24372C16.6536 2.25209 15.0235 2.25209 13.9942 3.24372L6.27417 10.681C5.91221 11.0297 5.67683 11.4602 5.5691 11.9153C5.55075 11.9935 5.53606 12.0717 5.52508 12.1504C5.50727 12.2787 5.49933 12.408 5.50126 12.5372C5.51023 13.1573 5.74529 13.7736 6.20864 14.2538Z" /></symbol>
<symbol id="edit">
<path d="M20.0297 3.97141C18.7339 2.6762 16.6352 2.6762 15.3394 3.97141L4.19068 15.1705C4.07647 15.2856 3.99835 15.4316 3.9659 15.5905L3.02186 19.9862C2.9625 20.2391 3.02561 20.5053 3.19219 20.7045C3.35877 20.9037 3.60935 21.0128 3.8685 20.9988H4.03334L8.46137 20.0837C8.61942 20.0492 8.76473 19.9713 8.88095 19.8586L20.0297 8.66707C21.3234 7.3698 21.3234 5.26869 20.0297 3.97141Z"/>
  </symbol>
<symbol id="error">
<path d="M12.2317 23.4633C6.02859 23.4633 1 18.4347 1 12.2317C1 6.02859 6.02859 1 12.2317 1C18.4347 1 23.4633 6.02859 23.4633 12.2317C23.458 18.4326 18.4326 23.458 12.2317 23.4633ZM12.2317 3.33833C7.30943 3.33833 3.31917 7.3286 3.31917 12.2508C3.31917 14.2442 3.97355 16.0846 5.0792 17.5692L17.4359 5.00988C15.9718 3.95382 14.1745 3.33084 12.2317 3.32875V3.33833ZM19.3696 6.90985L7.01327 19.4767C8.48011 20.5378 10.2828 21.1633 12.2317 21.1633C17.1539 21.1633 21.1442 17.1731 21.1442 12.2508C21.1442 10.2479 20.4841 8.39897 19.3696 6.90985Z" />
</symbol>
<symbol id="fastForward">
<path d="M6.56438 12.0002L0.773195 6.41674C-0.231675 5.44792 -0.260899 3.84792 0.70792 2.84305L0.816027 2.73648C1.84535 1.74409 3.4754 1.74409 4.50473 2.73648L12.2247 10.1795C12.6499 10.5894 12.9004 11.1123 12.9746 11.6553C13.0763 12.3963 12.8497 13.1749 12.2903 13.7551L12.225 13.8204L4.50499 21.2634C3.47566 22.2558 1.84561 22.2558 0.816285 21.2634L0.773453 21.2221C-0.187726 20.2954 -0.256256 18.7913 0.587468 17.7828L0.740518 17.6155L6.56438 12.0002Z"/>
<path d="M17.5644 12.0002L11.7732 6.41674C10.7683 5.44792 10.7391 3.84792 11.7079 2.84305L11.816 2.73648C12.8454 1.74409 14.4754 1.74409 15.5047 2.73648L23.2247 10.1795C23.6499 10.5894 23.9004 11.1123 23.9746 11.6553C24.0763 12.3963 23.8497 13.1749 23.2903 13.7551L23.225 13.8204L15.505 21.2634C14.4757 22.2558 12.8456 22.2558 11.8163 21.2634L11.7735 21.2221C10.8123 20.2954 10.7437 18.7913 11.5875 17.7828L11.7405 17.6155L17.5644 12.0002Z"/>
  </symbol>
<symbol id="file">
<path d="M15.9511 1.4821L20.5709 6.41425C20.8559 6.73863 21.01 7.17216 20.9995 7.61947V20.469C20.9996 21.8525 19.9727 22.9797 18.6938 23H5.33993C4.04762 23 3 21.8668 3 20.469V3.53098C3 2.13316 4.04762 1.00001 5.33993 1.00001H14.854C15.264 0.998486 15.6582 1.17167 15.9511 1.4821ZM15.1368 6.56258C15.1368 7.0746 15.5205 7.48968 15.9939 7.48968H19.0881L15.1368 3.28066V6.56258Z"/>
  </symbol>
<symbol id="filter">[object Object]</symbol>
<symbol id="filters">
<path d="M20.8994 3H2.89935C2.58168 2.99941 2.29062 3.17316 2.1455 3.44987C1.99837 3.73031 2.0242 4.068 2.21216 4.32412L8.80663 13.4253C8.80883 13.4284 8.81124 13.4314 8.81344 13.4345C9.05304 13.7514 9.18276 14.1354 9.18336 14.5298V21.9499C9.18195 22.1695 9.27003 22.3807 9.42797 22.5367C9.5861 22.6924 9.80109 22.7802 10.0253 22.7802C10.1392 22.78 10.2521 22.7579 10.3574 22.7149L14.063 21.3308C14.3948 21.2314 14.6152 20.9245 14.6152 20.555V14.5298C14.6158 14.1354 14.7455 13.7514 14.9849 13.4345C14.9871 13.4314 14.9896 13.4284 14.9918 13.4253L21.5864 4.32393C21.7744 4.068 21.8002 3.7305 21.6531 3.45007C21.5082 3.17316 21.2169 2.99941 20.8994 3Z"/>
  </symbol>
<symbol id="france">
<path d="M8.52207 2.62207C4.7141 4.035 2.00031 7.70043 2.00031 12.0001C2.00031 16.2997 4.7141 19.9652 8.52207 21.3781L9.3916 12.0001L8.52207 2.62207Z" fill="#042891"/>
<path d="M22 12.0001C22 7.70043 19.2863 4.035 15.4782 2.62207L14.6087 12.0001L15.4783 21.3781C19.2862 19.9652 22 16.2997 22 12.0001Z" fill="#DB3F41"/>
<path d="M15.4785 2.62199C14.3952 2.22004 13.2235 2 12.0003 2C10.7771 2 9.60535 2.22004 8.52203 2.62199L8.52203 21.378C9.60535 21.78 10.7771 22 12.0003 22C13.2235 22 14.3952 21.78 15.4785 21.378L15.4785 2.62199Z" fill="white"/>
  </symbol>
<symbol id="front"><path d="M6.20864 14.2538L6.27391 14.319L13.9939 21.7563C14.9785 22.7048 16.5127 22.746 17.5451 21.88L17.7255 21.715C18.6866 20.789 18.7552 19.286 17.9115 18.2784L17.7584 18.1112L11.9349 12.5L17.7257 6.92111C18.7306 5.95304 18.7598 4.3543 17.791 3.35021L17.6829 3.24372C16.6536 2.25209 15.0235 2.25209 13.9942 3.24372L6.27417 10.681C5.91221 11.0297 5.67683 11.4602 5.5691 11.9153C5.55075 11.9935 5.53606 12.0717 5.52508 12.1504C5.50727 12.2787 5.49933 12.408 5.50126 12.5372C5.51023 13.1573 5.74529 13.7736 6.20864 14.2538Z" /></symbol>
<symbol id="germany">
<path d="M2.62207 15.4782C4.035 19.2861 7.70043 21.9999 12.0001 21.9999C16.2997 21.9999 19.9652 19.2861 21.3781 15.4782L12.0001 14.6086L2.62207 15.4782Z" fill="#FFDA44"/>
<path d="M12.0001 2C7.70043 2 4.035 4.71375 2.62207 8.52176L12.0001 9.39129L21.3781 8.52172C19.9652 4.71375 16.2997 2 12.0001 2Z" fill="black"/>
<path d="M2.62199 8.52173C2.22004 9.60505 2 10.7768 2 12C2 13.2232 2.22004 14.3949 2.62199 15.4782H21.378C21.78 14.3949 22 13.2232 22 12C22 10.7768 21.78 9.60505 21.378 8.52173H2.62199Z" fill="#D80027"/>
</symbol>
<symbol id="goldPartner">[object Object]</symbol>
<symbol id="help">
<path d="M12 0C9.62663 0 7.30655 0.703788 5.33316 2.02236C3.35977 3.34094 1.8217 5.21509 0.913451 7.4078C0.00519941 9.60051 -0.232441 12.0133 0.230582 14.3411C0.693605 16.6689 1.83649 18.8071 3.51472 20.4853C5.19295 22.1635 7.33115 23.3064 9.65892 23.7694C11.9867 24.2324 14.3995 23.9948 16.5922 23.0866C18.7849 22.1783 20.6591 20.6402 21.9776 18.6668C23.2962 16.6935 24 14.3734 24 12C23.9961 8.8186 22.7306 5.76861 20.481 3.51901C18.2314 1.26942 15.1814 0.00388846 12 0ZM12 21.551C10.111 21.551 8.2644 20.9909 6.69374 19.9414C5.12309 18.8919 3.89891 17.4002 3.17601 15.655C2.45312 13.9098 2.26398 11.9894 2.63251 10.1367C3.00103 8.28397 3.91068 6.58214 5.24641 5.24641C6.58215 3.91067 8.28398 3.00103 10.1367 2.6325C11.9894 2.26397 13.9098 2.45311 15.655 3.17601C17.4002 3.8989 18.8919 5.12308 19.9414 6.69374C20.9909 8.26439 21.551 10.111 21.551 12C21.5484 14.5323 20.5413 16.9601 18.7507 18.7507C16.9601 20.5413 14.5323 21.5484 12 21.551Z"/>
<path d="M12.3331 14.9192C11.9012 14.9021 11.4801 15.0572 11.1625 15.3503C11.001 15.4999 10.876 15.6845 10.797 15.89C10.718 16.0955 10.6872 16.3163 10.707 16.5356C10.7276 16.8513 10.8495 17.1519 11.0547 17.3927C11.2151 17.5726 11.4116 17.7165 11.6315 17.8151C11.8514 17.9136 12.0897 17.9646 12.3306 17.9646C12.5716 17.9646 12.8098 17.9136 13.0297 17.8151C13.2496 17.7165 13.4462 17.5726 13.6066 17.3927C13.8127 17.1506 13.9347 16.8481 13.9543 16.5307C13.974 16.3114 13.9432 16.0906 13.8643 15.8851C13.7853 15.6796 13.6603 15.495 13.4988 15.3454C13.1813 15.0557 12.7625 14.9027 12.3331 14.9192Z"/>
<path d="M15.2714 6.60235C14.3408 6.00923 13.2488 5.71997 12.1465 5.77459C11.1571 5.74984 10.1751 5.9526 9.27634 6.36725C8.85442 6.57047 8.46357 6.83269 8.11552 7.14602C8.01154 7.24706 7.93302 7.37135 7.88644 7.50865C7.83986 7.64596 7.82655 7.79236 7.84759 7.93582C7.86863 8.07927 7.92342 8.21569 8.00747 8.33383C8.09152 8.45198 8.20241 8.54848 8.33103 8.61541L8.73756 8.85541C8.90931 8.95644 9.10882 9 9.30705 8.97974C9.50528 8.95948 9.69185 8.87645 9.8396 8.74276C10.387 8.23915 11.1091 7.96859 11.8527 7.98847C12.3224 7.96489 12.7874 8.09187 13.18 8.35092C13.3099 8.43877 13.4204 8.55234 13.5047 8.68461C13.5889 8.81688 13.6451 8.96503 13.6698 9.1199C13.6965 9.32883 13.6779 9.54105 13.6154 9.74218C13.5528 9.94331 13.4478 10.1286 13.3074 10.2856C13.0874 10.5369 12.8518 10.7741 12.6021 10.9958C12.1706 11.3684 11.7813 11.7873 11.4412 12.2448C11.3419 12.3847 11.2831 12.5494 11.2715 12.7207C11.2599 12.8919 11.2959 13.0631 11.3755 13.2151C11.455 13.3672 11.5751 13.4943 11.7225 13.5824C11.8698 13.6705 12.0386 13.7161 12.2102 13.7142H12.7735C12.9718 13.7223 13.1679 13.67 13.3359 13.5642C13.5038 13.4583 13.6356 13.304 13.7139 13.1215C13.76 13.0024 13.8227 12.8902 13.9 12.7885C14.1757 12.4475 14.4823 12.1327 14.8159 11.8481C15.1653 11.5215 15.451 11.2423 15.6731 11.0105C15.9068 10.746 16.0954 10.4448 16.2314 10.1191C16.3916 9.73282 16.47 9.31756 16.4616 8.89949C16.4747 8.44702 16.3723 7.99868 16.1641 7.59677C15.9558 7.19486 15.6486 6.85262 15.2714 6.60235Z"/>
  </symbol>
<symbol id="imports">
<path d="M18.119 4.35192C18.6056 4.35192 19 3.9575 19 3.47096V2.88095C19 2.39442 18.6056 2 18.119 2H5.88095C5.39442 2 5 2.39442 5 2.88095V3.47096C5 3.9575 5.39442 4.35192 5.88095 4.35192H18.119Z"/>
<path d="M18.4713 14.7417C18.418 14.6233 18.2994 14.5468 18.1683 14.5462H13.7327V7.66012C13.7327 7.0194 13.2133 6.5 12.5726 6.5H11.1903C10.5496 6.5 10.0302 7.0194 10.0302 7.66012V14.5462H5.84142C5.70794 14.5429 5.58539 14.6187 5.53001 14.7387C5.47464 14.8588 5.49714 14.9998 5.58718 15.0972L11.758 21.8365C11.8212 21.9053 11.9108 21.9445 12.0049 21.9445C12.0989 21.9445 12.1885 21.9053 12.2517 21.8365L18.4151 15.0948C18.5026 14.9982 18.5245 14.86 18.4713 14.7417Z"/>
  </symbol>
<symbol id="info">
 <path d="M12.1498 10.55C12.543 10.5472 12.9249 10.6815 13.2298 10.93C13.5081 11.1509 13.6732 11.4847 13.6798 11.84V17C13.6058 17.7734 12.924 18.3437 12.1498 18.28C11.3755 18.3437 10.6937 17.7734 10.6198 17V11.84C10.6264 11.4847 10.7914 11.1509 11.0698 10.93C11.3746 10.6815 11.7565 10.5472 12.1498 10.55Z" />
 <path d="M13.6798 7.59001C13.6798 6.74501 12.9948 6.06001 12.1498 6.06001C11.3048 6.06001 10.6198 6.74501 10.6198 7.59001C10.6198 7.99579 10.781 8.38495 11.0679 8.67188C11.3548 8.95881 11.744 9.12001 12.1498 9.12001C12.9948 9.12001 13.6798 8.435 13.6798 7.59001Z" />
 <path d="M1.00977 12.1567C1.00793 18.312 5.99439 23.3045 12.1498 23.31C18.311 23.3045 23.3042 18.3112 23.3098 12.15C23.3042 5.99464 18.3118 1.00817 12.1564 1.01001C6.00106 1.01185 1.01161 6.00131 1.00977 12.1567ZM3.97248 8.77557C5.3417 5.46733 8.56936 3.31001 12.1498 3.31001C17.0313 3.3155 20.9887 7.26848 20.9998 12.15C21.0038 15.7304 18.8501 18.9605 15.5434 20.3335C12.2368 21.7064 8.42857 20.9517 5.89541 18.4214C3.36226 15.8911 2.60325 12.0838 3.97248 8.77557Z" />
 </symbol>
<symbol id="inputError">
<path d="M12 5.26509C12.7611 5.18489 13.4491 5.72154 13.5566 6.47925V11.3151C13.4491 12.0728 12.7611 12.6095 12 12.5292C11.2389 12.6095 10.5509 12.0728 10.4434 11.3151V6.46887C10.5559 5.71534 11.2424 5.18445 12 5.26509Z"/>
<path d="M13.5566 16.1613C13.5566 15.3016 12.8597 14.6047 12 14.6047C11.1403 14.6047 10.4434 15.3016 10.4434 16.1613C10.4434 17.021 11.1403 17.7179 12 17.7179C12.8597 17.7179 13.5566 17.021 13.5566 16.1613Z"/>
<path d="M12 23C5.92487 23 1 18.0751 1 12C1 5.92487 5.92487 1 12 1C18.0751 1 23 5.92487 23 12C22.9943 18.0728 18.0728 22.9943 12 23ZM12 3.28302C7.1871 3.28302 3.28493 7.18364 3.28303 11.9965C3.28112 16.8094 7.18019 20.7132 11.9931 20.717C16.806 20.7208 20.7113 16.8233 20.717 12.0104C20.717 7.19444 16.8159 3.28875 12 3.28302Z"/>
  </symbol>
<symbol id="inputStepper">
<path d="M1.21327 15.8162L11.4847 5.21999C11.7694 4.92667 12.2306 4.92667 12.5153 5.21999L22.7867 15.8162C22.995 16.0313 23.0573 16.3546 22.9445 16.6356C22.8318 16.9165 22.5662 17.0997 22.2715 17.1H1.72854C1.43382 17.0997 1.16824 16.9165 1.05549 16.6356C0.94274 16.3546 1.005 16.0313 1.21327 15.8162Z"/>
  </symbol>
<symbol id="integration">
<path d="M1.02329 1.02337C2.11021 -0.0635417 3.65851 -0.308573 4.62937 0.403704L4.74765 0.497734L4.85528 0.597597L4.99569 0.748752C5.30788 1.11688 5.5222 1.58288 5.63863 2.14676L5.68254 2.39442L5.71446 2.65406L5.73249 2.76948C5.8383 3.25885 6.29647 3.602 6.80688 3.55218C6.90687 3.54242 7.00483 3.51764 7.09744 3.47869C7.87627 3.1511 8.46424 2.83206 8.86133 2.52157L9.0013 2.40553L9.63746 1.76922C10.7672 0.639489 12.5738 0.599141 13.7519 1.64818L13.8801 1.76922L14.474 2.36415C14.8628 2.72394 15.5126 3.09543 16.4236 3.47861C16.5162 3.51756 16.6142 3.54234 16.7142 3.5521C17.2216 3.60163 17.6773 3.26282 17.7866 2.77807L17.8066 2.65398L17.8385 2.39434C17.9396 1.71794 18.1686 1.16939 18.5254 0.748673L18.6652 0.596899L18.7734 0.497654C19.7327 -0.32761 21.3656 -0.108909 22.4978 1.02329C23.5847 2.11021 23.8297 3.65851 23.1174 4.62937L23.0234 4.74765L22.9235 4.85528L22.7718 4.99508C22.4036 5.30731 21.9376 5.52169 21.3738 5.63822L21.1262 5.68218L20.8666 5.71415L20.7425 5.73411C20.2577 5.84353 19.919 6.29937 19.9687 6.80675C19.9784 6.90664 20.0032 7.00449 20.0421 7.09701C20.3695 7.87573 20.6885 8.46363 20.9989 8.86071L21.115 9.00068L21.1563 9.04597L21.7484 9.63754C22.8782 10.7673 22.9185 12.5739 21.8695 13.7519L21.7484 13.8802L21.1043 14.5237C20.7107 14.8684 20.0788 15.2237 19.2085 15.5898C19.1159 15.6287 19.018 15.6535 18.918 15.6633C18.4106 15.7128 17.9548 15.374 17.8455 14.8892L17.8255 14.7651L17.7936 14.5055C17.6925 13.8291 17.4636 13.2805 17.1068 12.8598L16.967 12.7081L16.8587 12.6088C15.8994 11.7836 14.2666 12.0023 13.1344 13.1345C12.0475 14.2214 11.8024 15.7697 12.5147 16.7405L12.6087 16.8588L12.7086 16.9664L12.8604 17.1062C13.2285 17.4185 13.6945 17.6329 14.2583 17.7494L14.506 17.7933L14.7656 17.8253L14.8897 17.8453C15.3744 17.9547 15.7131 18.4105 15.6635 18.9179C15.6537 19.0178 15.629 19.1157 15.5901 19.2082C15.2648 19.9816 14.948 20.5668 14.6395 20.9638L14.5242 21.1038L13.8801 21.7485C12.7504 22.8782 10.9438 22.9186 9.76571 21.8695L9.63746 21.7485L8.96581 21.075C8.57029 20.739 7.94911 20.3929 7.10225 20.0368C7.00973 19.9979 6.91188 19.9732 6.81199 19.9634C6.34689 19.9179 5.9251 20.1987 5.77376 20.6192L5.73936 20.7372L5.71939 20.8613L5.68742 21.1209L5.64347 21.3686C5.54358 21.8518 5.37181 22.2632 5.12815 22.6027L5.00033 22.7665L4.86052 22.9183L4.75289 23.0182L4.63462 23.1122C3.66375 23.8245 2.11545 23.5794 1.02854 22.4925C-0.0583789 21.4056 -0.303411 19.8573 0.408867 18.8864L0.502896 18.7682L0.60214 18.6599L0.753915 18.5201C1.12204 18.2079 1.58804 17.9936 2.15193 17.8772L2.39958 17.8333L2.65922 17.8013L2.78331 17.7814C3.26806 17.6721 3.60687 17.2163 3.55734 16.7089C3.54758 16.6089 3.5228 16.511 3.48385 16.4184C3.12752 15.5712 2.78131 14.9499 2.44521 14.5544L1.76914 13.8802C0.639409 12.7505 0.599062 10.9439 1.6481 9.76579L1.76914 9.63754L2.30233 9.11142C2.68155 8.7322 3.07377 8.06075 3.47897 7.09709C3.51787 7.00457 3.54263 6.90672 3.5524 6.80683C3.59789 6.34173 3.31707 5.91994 2.89658 5.76859L2.77858 5.73419L2.6545 5.71423L2.39489 5.68226L2.14725 5.6383C1.66397 5.53842 1.25257 5.36664 0.913065 5.12298L0.749301 4.99516L0.597518 4.85536L0.497654 4.74773L0.395921 4.61888C-0.306866 3.64738 -0.0596826 2.10635 1.02329 1.02337Z"/>
  </symbol>
<symbol id="invisible">
<path fill-rule="evenodd" clip-rule="evenodd" d="M19.5836 5.6247L21.0065 4.20276C21.5105 3.6988 21.5105 2.8817 21.0065 2.37773C20.5026 1.87376 19.6855 1.87376 19.1815 2.37773L17.2414 4.31786C15.7905 3.71244 14.0605 3.32586 12.0063 3.32586C4.13686 3.32586 0.980733 8.99657 0.130668 10.9398C-0.0484646 11.3486 -0.0432004 11.8146 0.14512 12.2193C0.646797 13.299 1.8948 15.5488 4.23389 17.3259L2.61325 18.9465C2.11331 19.4513 2.11543 20.2652 2.61799 20.7673C3.12055 21.2694 3.93447 21.2709 4.4388 20.7705L6.51467 18.6946C8.02693 19.3888 9.84267 19.842 12.0068 19.842C19.6971 19.842 22.9487 14.1233 23.8262 12.2033C24.0068 11.8072 24.0117 11.3531 23.8396 10.9532C23.3585 9.83167 22.1023 7.43425 19.5836 5.6247ZM6.38099 11.5839C6.37996 9.5773 7.45314 7.72364 9.19385 6.72541C10.9346 5.72717 13.0764 5.73709 14.8078 6.75141L13.2672 8.29154C11.9597 7.77951 10.4731 8.09027 9.48023 9.08316C8.48734 10.0761 8.17658 11.5626 8.6886 12.8701L7.14847 14.4108C6.64482 13.5539 6.37981 12.5778 6.38099 11.5839ZM8.92912 16.2781C9.83655 16.8707 10.8972 17.1855 11.981 17.1839L11.9769 17.1834C14.0308 17.1852 15.9207 16.062 16.9008 14.257C17.8808 12.452 17.7937 10.2552 16.6736 8.5336L15.1619 10.0453C15.8172 11.3996 15.5434 13.0202 14.4796 14.084C13.4157 15.1478 11.7951 15.4217 10.4409 14.7664L8.92912 16.2781Z" />
</symbol>
<symbol id="lightMode">
<path d="M12.0005 6.48975C8.96207 6.48975 6.49023 8.96207 6.49023 12.0005C6.49023 15.0389 8.96207 17.5112 12.0005 17.5112C15.0384 17.5112 17.5107 15.0393 17.5107 12.0005C17.5107 8.96158 15.0384 6.48975 12.0005 6.48975Z"/>
  </symbol>
<symbol id="link">
  <path d="M20.3178 10.5921C19.9237 10.5921 19.5457 10.7487 19.267 11.0273C18.9884 11.306 18.8318 11.684 18.8318 12.0781V18.022C18.8318 18.4161 18.6753 18.7941 18.3966 19.0728C18.1179 19.3515 17.7399 19.508 17.3458 19.508H5.45795C5.06385 19.508 4.68588 19.3515 4.4072 19.0728C4.12853 18.7941 3.97197 18.4161 3.97197 18.022V6.10444C3.97197 5.71033 4.12853 5.33236 4.4072 5.05369C4.68588 4.77501 5.06385 4.61845 5.45795 4.61845H12.1449C12.539 4.61845 12.917 4.46189 13.1956 4.18322C13.4743 3.90454 13.6309 3.52658 13.6309 3.13247C13.6309 2.73836 13.4743 2.3604 13.1956 2.08172C12.917 1.80304 12.539 1.64648 12.1449 1.64648H5.45795C4.27563 1.64648 3.14173 2.11616 2.3057 2.95219C1.46968 3.78822 1 4.92211 1 6.10444L1 18.0443C1 19.2266 1.46968 20.3605 2.3057 21.1966C3.14173 22.0326 4.27563 22.5023 5.45795 22.5023H17.3458C18.5282 22.5023 19.6621 22.0326 20.4981 21.1966C21.3341 20.3605 21.8038 19.2266 21.8038 18.0443V12.1004C21.8067 11.9034 21.7705 11.7077 21.6971 11.5249C21.6238 11.342 21.5148 11.1756 21.3765 11.0352C21.2382 10.8948 21.0734 10.7834 20.8917 10.7073C20.7099 10.6313 20.5148 10.5921 20.3178 10.5921Z" />
        <path d="M22.0265 0.999889L16.3054 1.51998C16.1372 1.53741 15.9774 1.60191 15.8442 1.7061C15.711 1.81028 15.6099 1.94992 15.5524 2.10897C15.495 2.26803 15.4836 2.44005 15.5196 2.60529C15.5555 2.77053 15.6373 2.92228 15.7556 3.04312L17.2416 4.5291L8.89037 12.4865C8.62331 12.7617 8.47296 13.1294 8.47073 13.5129C8.4685 13.8963 8.61458 14.2658 8.87842 14.544C9.14226 14.8222 9.50345 14.9877 9.88646 15.0058C10.2695 15.0239 10.6447 14.8933 10.9336 14.6412L19.322 6.68378L20.9194 8.28121C21.0411 8.41343 21.1997 8.50613 21.3747 8.54734C21.5496 8.58855 21.7329 8.57637 21.9008 8.51239C22.0688 8.44841 22.2137 8.33555 22.3169 8.18839C22.4201 8.04123 22.4768 7.86652 22.4797 7.68682L22.9998 1.96578C23.01 1.8357 22.9917 1.70497 22.9463 1.58265C22.9009 1.46034 22.8294 1.34937 22.7368 1.25747C22.6442 1.16556 22.5327 1.09492 22.41 1.05044C22.2873 1.00596 22.1565 0.988708 22.0265 0.999889Z" />
  </symbol>
<symbol id="loader">
<ellipse opacity="0.7" rx="3.48584" ry="3.4859" transform="matrix(0.80444 0.594034 -0.593986 0.804475 11.925 4.87503)"/>
<ellipse rx="3.48584" ry="3.4859" transform="matrix(0.80444 0.594034 -0.593986 0.804475 20.1242 10.9278)"/>
<ellipse opacity="0.4" rx="3.48584" ry="3.4859" transform="matrix(0.80444 0.594034 -0.593986 0.804475 5.87224 13.0723)"/>
<ellipse opacity="0.3" rx="3.48584" ry="3.4859" transform="matrix(0.80444 0.594034 -0.593986 0.804475 14.0695 19.125)"/>
</symbol>
<symbol id="locker">
  <path d="M19.1998 21.9786V10.52C19.1998 9.8453 18.6725 9.2985 18.0218 9.2985H17.9955V7.01715C17.9955 3.58907 15.3058 0.800049 11.9998 0.800049C8.69384 0.800049 6.00415 3.58907 6.00415 7.01715V9.2985H5.97777C5.32743 9.2985 4.7998 9.8453 4.7998 10.52V21.9786C4.7998 22.6532 5.32743 23.2 5.97777 23.2H18.0218C18.6725 23.2 19.1998 22.6532 19.1998 21.9786ZM10.8218 16.0624C10.8218 15.3877 11.3492 14.8409 11.9998 14.8409C12.6504 14.8409 13.1778 15.3877 13.1778 16.0624V17.5835C13.1778 18.2579 12.6504 18.805 11.9998 18.805C11.3492 18.805 10.8218 18.2579 10.8218 17.5835V16.0624ZM8.36008 7.01715C8.36008 4.93619 9.99297 3.24299 11.9998 3.24299C14.0066 3.24299 15.6395 4.93619 15.6395 7.01715V9.2985H8.36008V7.01715Z" />
  </symbol>
<symbol id="maintenance">
<path d="M22.56 4.9122C22.4789 4.70976 22.3017 4.56143 22.0882 4.51718C21.8746 4.47293 21.6531 4.53865 21.4983 4.6922L18.1504 8.04002L16.3044 7.69568L15.9218 5.89742L19.2696 2.54959C19.4483 2.40229 19.5352 2.17109 19.4977 1.94255C19.4603 1.71401 19.3042 1.52262 19.0878 1.44002C16.9001 0.573303 14.4103 1.02016 12.6605 2.59354C10.9107 4.16693 10.2028 6.59546 10.8331 8.86263L1.88958 17.8061C1.12068 18.575 0.820389 19.6957 1.10183 20.746C1.38326 21.7964 2.20367 22.6168 3.254 22.8982C4.30433 23.1796 5.42503 22.8794 6.19392 22.1105L15.1374 13.167C17.4046 13.7972 19.8331 13.0893 21.4065 11.3395C22.9799 9.58974 23.4267 7.09991 22.56 4.9122Z"/>
  </symbol>
<symbol id="mark">
<path d="M20.4357 8.37056L10.6396 18.4215C10.2624 18.8065 9.77177 19 9.27917 19C8.78657 19 8.29398 18.8065 7.91876 18.4215L3.56427 13.9538C2.81191 13.1838 2.81191 11.9341 3.56427 11.1622C4.31664 10.3902 5.53274 10.3902 6.2851 11.1622L9.27917 14.2341L17.7149 5.57895C18.4673 4.80702 19.6834 4.80702 20.4357 5.57895C21.1881 6.35089 21.1881 7.59863 20.4357 8.37056Z"/></symbol>
<symbol id="marketplace">
  <path d="M20.11 2.31L23.86 7.56L24 8C24 9.65685 22.6569 11 21 11C20.1415 11.004 19.3224 10.6399 18.75 10C18.1805 10.6458 17.361 11.0157 16.5 11.0157C15.639 11.0157 14.8195 10.6458 14.25 10C13.6805 10.6458 12.861 11.0157 12 11.0157C11.139 11.0157 10.3195 10.6458 9.75 10C9.1805 10.6458 8.361 11.0157 7.5 11.0157C6.639 11.0157 5.8195 10.6458 5.25 10C4.67764 10.6399 3.85854 11.004 3 11C1.34315 11 0 9.65685 0 8L0.14 7.56L3.89 2.31C4.03474 2.11824 4.25978 2.00387 4.5 2H19.5C19.7402 2.00387 19.9653 2.11824 20.11 2.31Z"/>
    <path d="M18.75 11.9V11.89C17.3524 12.6738 15.6476 12.6738 14.25 11.89C12.8524 12.6738 11.1476 12.6738 9.75 11.89C8.35238 12.6738 6.64762 12.6738 5.25 11.89C4.10289 12.5283 2.73635 12.6413 1.5 12.2V20C1.5 20.8284 2.17157 21.5 3 21.5H15V14.75C15 14.3358 15.3358 14 15.75 14H18.75C19.1642 14 19.5 14.3358 19.5 14.75V21.5H21C21.8284 21.5 22.5 20.8284 22.5 20V12.23C21.2641 12.6902 19.8866 12.569 18.75 11.9ZM10.5 17.75C10.5 18.1642 10.1642 18.5 9.75 18.5H5.25C4.83579 18.5 4.5 18.1642 4.5 17.75V14.75C4.5 14.3358 4.83579 14 5.25 14H9.75C10.1642 14 10.5 14.3358 10.5 14.75V17.75Z"/>
  </symbol>
<symbol id="maximize">
<path d="M15.287 12.469L15.4142 12.5858L19 16.171V14.5C19 11.8926 22.8242 11.8347 22.9942 14.3262L23 14.5L22.9977 21.0976L22.9866 21.2321L22.953 21.432L22.9124 21.5869L22.8635 21.7276L22.7958 21.8814L22.7258 22.0115L22.6128 22.1832L22.5084 22.3135L22.4142 22.4142L22.343 22.4821L22.2274 22.5792L22.1428 22.6418L22.0124 22.7253L21.8398 22.8158L21.6778 22.8821L21.5309 22.9286L21.394 22.961L21.2341 22.9864L21.0507 22.9994L14.5 23C13.3954 23 12.5 22.1046 12.5 21C12.5 19.9456 13.3159 19.0818 14.3507 19.0055L14.5 19H16.171L12.5858 15.4142C11.8047 14.6332 11.8047 13.3668 12.5858 12.5858C13.3257 11.8458 14.5012 11.8069 15.287 12.469ZM10.5 1C11.6046 1 12.5 1.89543 12.5 3C12.5 4.05436 11.6841 4.91817 10.6493 4.99451L10.5 5H8.828L12.4142 8.58579C13.1953 9.36684 13.1953 10.6332 12.4142 11.4142C11.6743 12.1542 10.4988 12.1931 9.713 11.531L9.58579 11.4142L6 7.828V9.5C6 12.1074 2.1758 12.1653 2.00584 9.67383L2 9.5L2.003 2.895L2.01342 2.76792L2.0406 2.59786L2.07559 2.45394L2.13651 2.27237L2.20417 2.11864L2.27424 1.98854L2.38139 1.82473L2.49606 1.6815L2.58579 1.58579L2.667 1.509L2.77257 1.42082L2.85722 1.35823L2.98764 1.27475L3.16172 1.18356L3.32218 1.11786L3.4314 1.08198L3.60595 1.03896L3.76595 1.01364L3.94949 1.00063L10.5 1Z"/>
  </symbol>
<symbol id="menu">
<path d="M2 12C2 10.8954 2.89543 10 4 10H20C21.1046 10 22 10.8954 22 12C22 13.1046 21.1046 14 20 14H4C2.89543 14 2 13.1046 2 12Z"/>
<path d="M2 12C2 10.8954 2.89543 10 4 10H20C21.1046 10 22 10.8954 22 12C22 13.1046 21.1046 14 20 14H4C2.89543 14 2 13.1046 2 12Z"/>
<path d="M2 19C2 17.8954 2.89543 17 4 17H20C21.1046 17 22 17.8954 22 19C22 20.1046 21.1046 21 20 21H4C2.89543 21 2 20.1046 2 19Z"/>
<path d="M2 5C2 3.89543 2.89543 3 4 3H20C21.1046 3 22 3.89543 22 5C22 6.10457 21.1046 7 20 7H4C2.89543 7 2 6.10457 2 5Z"/>
  </symbol>
<symbol id="merchandising">
<path d="M12.2075 2.89232L21.3647 12.0515C21.7666 12.4451 21.9952 12.9826 21.9999 13.5451C22.0045 14.1076 21.785 14.6489 21.3897 15.0491L15.0546 21.3856C14.23 22.2048 12.8989 22.2048 12.0743 21.3856L2.91711 12.2264C2.65953 11.9705 2.47304 11.652 2.376 11.3021C2.2861 11.0765 2.23542 10.8371 2.22615 10.5944L2.00138 4.18294C1.98019 3.59811 2.20316 3.03082 2.61688 2.61701C3.0306 2.20321 3.59777 1.98018 4.18247 2.00138L10.6008 2.2262C10.8435 2.23547 11.0828 2.28616 11.3084 2.37608C11.6467 2.46989 11.9559 2.64743 12.2075 2.89232ZM3.69963 5.41527C3.69963 6.289 4.40778 6.99731 5.28133 6.99731C5.70082 6.99731 6.10314 6.83063 6.39976 6.53394C6.69639 6.23725 6.86303 5.83485 6.86303 5.41527C6.86303 4.54153 6.15488 3.83322 5.28133 3.83322C4.40778 3.83322 3.69963 4.54153 3.69963 5.41527Z"/>
</symbol>
<symbol id="merchant">
<path d="M3.88205 2C2.99855 2 2.28233 2.7316 2.28233 3.6151C2.28233 4.49859 2.99855 5.23019 3.88205 5.23019H19.8918C20.7753 5.23019 21.4915 4.49859 21.4915 3.6151C21.4915 2.7316 20.7753 2 19.8918 2H3.88205Z"/>
<path d="M21.3783 13.4231H21.0766V20.1939C21.0766 21.0774 20.3604 21.7937 19.4769 21.7937C18.5934 21.7937 17.8772 21.0774 17.8772 20.1939V13.4231H12.3143V20.0294C12.3179 20.9894 11.5554 21.7734 10.6046 21.7873H4.01718C3.55163 21.7941 3.10291 21.6117 2.77192 21.2811C2.44093 20.9505 2.25544 20.4995 2.25718 20.0294V13.4168C1.55423 13.3499 1.00331 12.7541 1.00005 12.0269V11.8873C0.999123 11.7741 1.01179 11.6611 1.03776 11.551L2.06862 7.33712C2.22152 6.71218 2.77617 6.27257 3.41376 6.27096H20.4292C21.0747 6.27176 21.6346 6.72135 21.7806 7.35615L22.7298 11.5192C22.7543 11.6232 22.7669 11.7297 22.7675 11.8365V12.0333C22.7606 12.8029 22.1407 13.4231 21.3783 13.4231ZM9.80003 17.9479C9.80003 18.6489 9.23719 19.2171 8.54289 19.2171H6.07889C5.38459 19.2171 4.82175 18.6489 4.82175 17.9479V15.4665C4.82175 14.7656 5.38459 14.1973 6.07889 14.1973H8.54289C9.23719 14.1973 9.80003 14.7656 9.80003 15.4665V17.9479Z"/>
  </symbol>
<symbol id="merchantProfile">
<path d="M20.1025 2.19688L23.8465 5.72008L24.0001 6.15208C24.0052 6.95399 23.6896 7.72468 23.1234 8.29263C22.5573 8.86058 21.7876 9.17866 20.9857 9.17608C20.1216 9.18048 19.2983 8.80911 18.7297 8.15848C18.1627 8.80606 17.3439 9.17748 16.4833 9.17748C15.6226 9.17748 14.8038 8.80606 14.2369 8.15848C13.6699 8.80606 12.8511 9.17748 11.9905 9.17748C11.1298 9.17748 10.311 8.80606 9.74406 8.15848C9.17714 8.80606 8.35834 9.17748 7.49766 9.17748C6.63699 9.17748 5.81818 8.80606 5.25126 8.15848C4.68265 8.80911 3.85933 9.18048 2.99526 9.17608C2.19667 9.17354 1.43193 8.85321 0.869944 8.28582C0.307957 7.71843 -0.00504537 6.95066 6.15249e-05 6.15208L0.134462 5.72008L3.84006 2.19688C3.99203 1.99 4.23631 1.87146 4.49286 1.88008H19.4881C19.7311 1.88384 19.9584 2.00105 20.1025 2.19688Z"/>
<path d="M18.7393 10.2513C17.3436 11.0327 15.6421 11.0327 14.2465 10.2513C12.8513 11.0345 11.1488 11.0345 9.75366 10.2513C8.35848 11.0345 6.65605 11.0345 5.26086 10.2513C4.10408 10.8799 2.73205 10.9779 1.49766 10.5201V21.2625C1.49766 22.0896 2.16816 22.7601 2.99526 22.7601H6.00006V22.6737C6.57606 21.1761 8.04486 19.2945 11.8561 19.2945C15.6673 19.2945 17.2801 21.0801 17.9521 22.5969C17.978 22.6498 18.0004 22.7043 18.0193 22.7601H20.9857C21.8128 22.7601 22.4833 22.0896 22.4833 21.2625V10.5777C21.2482 11.0345 19.8732 10.9111 18.7393 10.2417V10.2513ZM11.8849 18.5361C10.061 18.5361 8.58246 17.0575 8.58246 15.2337C8.58246 13.4098 10.061 11.9313 11.8849 11.9313C13.7087 11.9313 15.1873 13.4098 15.1873 15.2337C15.1873 17.0575 13.7087 18.5361 11.8849 18.5361Z"/>
  </symbol>
<symbol id="minimize">
<path d="M11.7958 10.8814L11.7258 11.0115L11.6128 11.1832L11.5084 11.3135L11.4142 11.4142L11.343 11.4821L11.2274 11.5792L11.1428 11.6418L11.0124 11.7253L10.8398 11.8158L10.6778 11.8821L10.5309 11.9286L10.394 11.961L10.2341 11.9864L10.0507 11.9994L3.5 12C2.39543 12 1.5 11.1046 1.5 10C1.5 8.94564 2.31588 8.08183 3.35074 8.00549L3.5 8H5.171L1.58579 4.41421C0.804738 3.63317 0.804738 2.36683 1.58579 1.58579C2.32573 0.845846 3.50121 0.806901 4.287 1.46895L4.41421 1.58579L8 5.171V3.5C8 0.892593 11.8242 0.83465 11.9942 3.32617L12 3.5L11.9977 10.0976L11.9866 10.2321L11.953 10.432L11.9124 10.5869L11.8635 10.7276L11.7958 10.8814ZM19.5 12C20.6046 12 21.5 12.8954 21.5 14C21.5 15.0544 20.6841 15.9182 19.6493 15.9945L19.5 16H15V20.5C15 23.1074 11.1758 23.1653 11.0058 20.6738L11 20.5V14C11 12.9456 11.8159 12.0818 12.8507 12.0055L13 12H19.5ZM11.5858 12.5858C12.3257 11.8458 13.5012 11.8069 14.287 12.469L14.4142 12.5858L21.4142 19.5858C22.1953 20.3668 22.1953 21.6332 21.4142 22.4142C20.6743 23.1542 19.4988 23.1931 18.713 22.531L18.5858 22.4142L11.5858 15.4142C10.8047 14.6332 10.8047 13.3668 11.5858 12.5858Z"/>
  </symbol>
<symbol id="minus">
<path d="M2 12C2 10.8954 2.89543 10 4 10H20C21.1046 10 22 10.8954 22 12C22 13.1046 21.1046 14 20 14H4C2.89543 14 2 13.1046 2 12Z"/>
  </symbol>
<symbol id="mobile">
  <path d="M20.0003 3.56003C19.9974 3.08146 19.8985 2.60833 19.7096 2.16862C19.5207 1.72891 19.2455 1.33155 18.9003 1.00003C18.2288 0.347959 17.3263 -0.011593 16.3903 2.90927e-05H7.54032C7.06762 -0.00182296 6.59933 0.0910168 6.16308 0.273071C5.72684 0.455126 5.33148 0.722707 5.00032 1.06003C4.34706 1.73892 3.98776 2.64797 4.00032 3.59003L4.05032 20.45C4.04806 20.9234 4.1397 21.3925 4.31993 21.8302C4.50016 22.2679 4.76541 22.6655 5.10032 23C5.77187 23.6521 6.67435 24.0117 7.61032 24H16.4603C16.933 24.0019 17.4013 23.909 17.8376 23.727C18.2738 23.5449 18.6692 23.2774 19.0003 22.94C19.6536 22.2611 20.0129 21.3521 20.0003 20.41V3.56003ZM13.5503 21.13C13.4964 21.4355 13.3532 21.7182 13.1388 21.9424C12.9244 22.1666 12.6483 22.3223 12.3455 22.3898C12.0427 22.4572 11.7267 22.4334 11.4374 22.3214C11.1481 22.2094 10.8985 22.0142 10.72 21.7605C10.5415 21.5067 10.4422 21.2058 10.4347 20.8956C10.4271 20.5855 10.5116 20.2801 10.6774 20.0179C10.8433 19.7557 11.0831 19.5486 11.3666 19.4226C11.6501 19.2966 11.9646 19.2574 12.2703 19.31C12.4741 19.3451 12.6689 19.42 12.8436 19.5305C13.0183 19.6411 13.1695 19.785 13.2884 19.9541C13.4073 20.1232 13.4917 20.3142 13.5366 20.516C13.5816 20.7177 13.5862 20.9264 13.5503 21.13ZM17.7703 16.87C17.6733 17.0856 17.5339 17.2795 17.3603 17.44C17.1837 17.6077 16.9767 17.7401 16.7503 17.83C16.5137 17.9347 16.259 17.9924 16.0003 18H8.00032C7.75437 18.0013 7.51028 17.9573 7.28032 17.87C7.05534 17.7865 6.84832 17.661 6.67032 17.5C6.51096 17.3585 6.37879 17.1891 6.28032 17C6.18389 16.7897 6.13279 16.5614 6.13032 16.33L6.00032 4.00003C5.99964 3.76937 6.04733 3.54112 6.14032 3.33003C6.23731 3.11442 6.37675 2.92056 6.55032 2.76003C6.72693 2.59233 6.93398 2.45995 7.16032 2.37003C7.38964 2.27938 7.63374 2.23191 7.88032 2.23003H15.8803C16.1263 2.22872 16.3704 2.27279 16.6003 2.36003C16.8261 2.44651 17.0332 2.57551 17.2103 2.74003C17.3843 2.90019 17.5238 3.09414 17.6203 3.31003C17.7167 3.52037 17.7679 3.74865 17.7703 3.98003L17.8503 16.26C17.8621 16.4666 17.835 16.6735 17.7703 16.87Z" />
  </symbol>
<symbol id="navigationArrow">
<path d="M21.2241 10.4923C21.6927 10.8193 22 11.3656 22 11.9772C22 12.3235 21.9015 12.6489 21.731 12.9254C21.6595 13.0438 21.573 13.1557 21.4715 13.2582L16.3198 18.4584C15.6206 19.1641 14.4742 19.1581 13.7751 18.4524C13.0851 17.756 13.0793 16.6279 13.7693 15.9314L15.8998 13.7809H3.78684C2.79999 13.7809 2 12.9641 2 11.9772C2 10.9904 2.79999 10.1736 3.78683 10.1736H15.8544L13.7691 8.06864C13.0792 7.37222 13.085 6.24409 13.7749 5.54766C14.474 4.84196 15.6205 4.83597 16.3196 5.54168L21.2241 10.4923Z"/>
  </symbol>
<symbol id="orders">
<path d="M23.7459 7.62513C23.9577 7.88924 24.037 8.20617 23.9841 8.57592L22.978 14.3335C22.9427 14.6329 22.8059 14.8794 22.5676 15.073C22.3293 15.2667 22.0602 15.3636 21.7601 15.3636H7.09189L6.80064 17.001H20.7805C21.1159 17.001 21.4069 17.1199 21.6542 17.3576C21.9013 17.5953 22.0248 17.8902 22.0248 18.2423C22.0248 18.5945 21.9013 18.8894 21.6542 19.1271C21.4069 19.3648 21.1159 19.4837 20.7805 19.4837H5.31793C4.94726 19.4837 4.62953 19.334 4.36477 19.0348C4.11765 18.7354 4.02057 18.392 4.07352 18.0048L4.73544 14.4129L3.72932 4.32386L0.869815 3.42589C0.534441 3.32024 0.291736 3.11772 0.1417 2.81844C-0.00833532 2.51907 -0.039225 2.20218 0.0490313 1.86765C0.154939 1.53311 0.362341 1.29101 0.671238 1.14135C0.980136 0.991685 1.29345 0.960873 1.61117 1.04891L5.26498 2.21099C5.49445 2.28142 5.6842 2.41347 5.83423 2.60715C5.98427 2.80083 6.07694 3.02096 6.11224 3.26747L6.32406 5.27469L22.8986 7.12345C23.2693 7.17614 23.5517 7.34341 23.7459 7.62513ZM7.19784 20.1703C7.72738 20.1703 8.17748 20.3552 8.54816 20.7251C8.91884 21.0947 9.10417 21.5438 9.10417 22.072C9.10417 22.6001 8.91884 23.0536 8.54816 23.4322C8.17748 23.8107 7.72738 24 7.19784 24C6.6683 24 6.21819 23.8107 5.84752 23.4322C5.47684 23.0537 5.2915 22.6002 5.2915 22.072C5.2915 21.5438 5.47684 21.0947 5.84752 20.7251C6.21815 20.3552 6.66826 20.1703 7.19784 20.1703ZM19.8538 20.7251C19.4831 20.3552 19.0329 20.1703 18.5034 20.1703C17.9739 20.1703 17.5238 20.3552 17.1532 20.7251C16.7824 21.0947 16.597 21.5438 16.597 22.072C16.597 22.6002 16.7825 23.0537 17.1532 23.4322C17.5237 23.8107 17.9739 24 18.5034 24C19.0329 24 19.4831 23.8107 19.8538 23.4322C20.2244 23.0536 20.4098 22.6001 20.4098 22.072C20.4098 21.5438 20.2243 21.0947 19.8538 20.7251Z"/>
  </symbol>
<symbol id="placeholder">
<rect width="24" height="24" fill="#2480F2"/>
  </symbol>
<symbol id="planet">
<path d="M12 2C6.5 2 2 6.5 2 12C2 17.5 6.5 22 12 22C17.5 22 22 17.5 22 12C22 6.5 17.5 2 12 2ZM18.9 8H16C15.7 6.7 15.2 5.6 14.6 4.4C16.4 5.1 18 6.3 18.9 8ZM12 4C12.8 5.2 13.5 6.5 13.9 8H10.1C10.5 6.6 11.2 5.2 12 4ZM4.3 14C4.1 13.4 4 12.7 4 12C4 11.3 4.1 10.6 4.3 10H7.7C7.6 10.7 7.6 11.3 7.6 12C7.6 12.7 7.7 13.3 7.7 14H4.3ZM5.1 16H8C8.3 17.3 8.8 18.4 9.4 19.6C7.6 18.9 6 17.7 5.1 16ZM8 8H5.1C6.1 6.3 7.6 5.1 9.4 4.4C8.8 5.6 8.3 6.7 8 8ZM12 20C11.2 18.8 10.5 17.5 10.1 16H13.9C13.5 17.4 12.8 18.8 12 20ZM14.3 14H9.7C9.6 13.3 9.5 12.7 9.5 12C9.5 11.3 9.6 10.7 9.7 10H14.4C14.5 10.7 14.6 11.3 14.6 12C14.6 12.7 14.4 13.3 14.3 14ZM14.6 19.6C15.2 18.5 15.7 17.3 16 16H18.9C18 17.7 16.4 18.9 14.6 19.6ZM16.4 14C16.5 13.3 16.5 12.7 16.5 12C16.5 11.3 16.4 10.7 16.4 10H19.8C20 10.6 20.1 11.3 20.1 12C20.1 12.7 20 13.4 19.8 14H16.4Z"/>
  </symbol>
<symbol id="popular">[object Object]</symbol>
<symbol id="products">
<path d="M10.9242 10.4572L2.19731 7.21082C2.01253 7.14214 1.891 6.96768 1.89289 6.77381C1.89478 6.57993 2.01969 6.40778 2.20577 6.34258L11.1424 3.15191C11.6984 2.95706 12.3048 2.94976 12.8655 3.13115L21.7821 6.07511C21.9697 6.13585 22.0988 6.30489 22.1056 6.4986C22.1123 6.6923 21.9953 6.8696 21.8124 6.94276L13.0655 10.4323C12.3806 10.7056 11.6156 10.7145 10.9242 10.4572Z"/>
<path d="M9.65978 21.6661L1.79055 18.8502C1.31574 18.6803 0.999869 18.2372 1 17.7412V10.172C0.999899 9.78672 1.19144 9.42566 1.51312 9.20475C1.83479 8.98385 2.2461 8.93092 2.61495 9.06295L10.4836 11.8788C10.9588 12.0487 11.275 12.4921 11.2747 12.9884V20.5547C11.2756 20.9404 11.0844 21.3022 10.7626 21.5236C10.4408 21.7451 10.029 21.7983 9.65978 21.6661Z"/>
<path d="M14.3402 21.6661L22.2088 18.8502C22.6839 18.6805 23 18.2373 23 17.7412V10.172C23.0001 9.78672 22.8086 9.42566 22.4869 9.20475C22.1652 8.98385 21.7539 8.93092 21.3851 9.06295L13.5158 11.8794C13.041 12.0494 12.7251 12.4925 12.7253 12.9884V20.5547C12.7244 20.9404 12.9156 21.3022 13.2374 21.5236C13.5592 21.7451 13.971 21.7983 14.3402 21.6661Z"/>
  </symbol>
<symbol id="profile">
<path d="M11.9911 12.2933C15.1097 12.2933 17.6378 9.76523 17.6378 6.64667C17.6378 3.5281 15.1097 1 11.9911 1C8.87255 1 6.34445 3.5281 6.34445 6.64667C6.34445 9.76523 8.87255 12.2933 11.9911 12.2933Z"/>
<path d="M1.15226 21.9881C1.30536 22.206 1.55472 22.3304 1.81611 22.3193H22.1569C22.4137 22.3279 22.6581 22.2059 22.8102 21.9933C22.9623 21.7806 23.0025 21.5047 22.9178 21.2556C21.9919 18.874 19.0586 13.32 11.9819 13.32C4.90528 13.32 1.97195 18.8457 1.05528 21.2368C0.962723 21.4881 0.999148 21.7703 1.15226 21.9881Z"/>
  </symbol>
<symbol id="ratings">
<path d="M3.29808 0H20.7019C21.5766 0 22.4155 0.347476 23.034 0.965986C23.6525 1.5845 24 2.42338 24 3.29808V14.6282C24 15.5029 23.6525 16.3418 23.034 16.9603C22.4155 17.5788 21.5766 17.9263 20.7019 17.9263H14.9414L12.8279 20.2477C12.7134 20.3733 12.5736 20.4732 12.4176 20.5409C12.2617 20.6085 12.0932 20.6422 11.9232 20.6399C11.7533 20.6377 11.5857 20.5994 11.4316 20.5276C11.2776 20.4558 11.1405 20.3522 11.0294 20.2236L9.049 17.9263H3.29808C2.42338 17.9263 1.5845 17.5788 0.965986 16.9603C0.347476 16.3418 0 15.5029 0 14.6282V3.29808C0 2.42338 0.347476 1.5845 0.965986 0.965986C1.5845 0.347476 2.42338 0 3.29808 0ZM15.462 10.001L17.4481 7.943C17.5176 7.87048 17.5655 7.77996 17.5864 7.68165C17.6072 7.58334 17.6002 7.48116 17.566 7.38666C17.5319 7.29215 17.4719 7.20907 17.3931 7.14681C17.3142 7.08454 17.2195 7.04558 17.1196 7.0343L14.2779 6.70998C14.1914 6.69976 14.1087 6.66872 14.0368 6.61953C13.9649 6.57034 13.906 6.50445 13.8652 6.42752L12.5242 3.90192C12.477 3.81305 12.4059 3.73917 12.3189 3.68865C12.2318 3.63813 12.1324 3.61297 12.0318 3.61604C11.9312 3.61911 11.8335 3.65028 11.7497 3.70601C11.6659 3.76174 11.5994 3.83982 11.5577 3.9314L10.3689 6.53307C10.3327 6.61263 10.2776 6.68217 10.2085 6.73569C10.1393 6.78922 10.0582 6.82512 9.97209 6.8403L7.15577 7.34093C7.05669 7.35838 6.96447 7.40321 6.88955 7.47036C6.81463 7.5375 6.75999 7.62427 6.73183 7.72085C6.70366 7.81743 6.70309 7.91997 6.73018 8.01686C6.75727 8.11375 6.81094 8.20112 6.88511 8.26909L8.99322 10.2015C9.05763 10.2605 9.10674 10.3342 9.13633 10.4164C9.16591 10.4986 9.17508 10.5867 9.16305 10.6732L8.76619 13.5037C8.753 13.6028 8.76762 13.7036 8.80844 13.7949C8.84925 13.8861 8.91464 13.9642 8.9973 14.0205C9.07997 14.0767 9.17664 14.1088 9.27651 14.1133C9.37639 14.1177 9.47553 14.0943 9.56285 14.0456L12.0525 12.638C12.1285 12.5951 12.2139 12.5712 12.3012 12.5685C12.3885 12.5659 12.4752 12.5844 12.5537 12.6227L15.1247 13.8752C15.215 13.9197 15.316 13.938 15.4162 13.928C15.5163 13.9181 15.6117 13.8803 15.6915 13.8189C15.7713 13.7575 15.8323 13.675 15.8676 13.5808C15.9029 13.4865 15.9111 13.3842 15.8913 13.2855L15.3217 10.4828C15.3042 10.3971 15.3079 10.3085 15.3324 10.2245C15.3568 10.1406 15.4013 10.0639 15.462 10.001Z"/>
  </symbol>
<symbol id="remove">
<circle cx="12" cy="12" r="12" style="fill:var(--oryx-color-neutral-light, #eeeeee)"/>
<path d="M16.1425 7.85748C15.6659 7.38084 14.8931 7.38084 14.4165 7.85748L12 10.2739L9.58353 7.85748C9.10689 7.38084 8.33411 7.38084 7.85748 7.85748C7.38084 8.33411 7.38084 9.10689 7.85748 9.58353L10.2739 12L7.85748 14.4165C7.38084 14.8931 7.38084 15.6659 7.85748 16.1425C8.33411 16.6192 9.10689 16.6192 9.58353 16.1425L12 13.7261L14.4165 16.1425C14.8931 16.6192 15.6659 16.6192 16.1425 16.1425C16.6192 15.6659 16.6192 14.8931 16.1425 14.4165L13.7261 12L16.1425 9.58353C16.6192 9.10689 16.6192 8.33411 16.1425 7.85748Z" />
</symbol>
<symbol id="reset"><path d="M11.8623 2H11.7801C9.22666 2.00327 6.76692 2.9436 4.88471 4.63601C4.77286 4.74355 4.59385 4.74355 4.482 4.63601L2.59995 2.74969C2.49808 2.65098 2.34553 2.62233 2.21368 2.67714C2.08537 2.7313 2.00162 2.85452 2 2.99153V9.72263C2.00447 9.91091 2.16139 10.0613 2.3534 10.0612H9.14192C9.30188 10.0655 9.44389 9.96143 9.485 9.80974C9.52611 9.65804 9.45554 9.49853 9.31451 9.42437L7.47355 7.64284C7.41528 7.5881 7.38232 7.51239 7.38232 7.43325C7.38232 7.35411 7.41528 7.2784 7.47355 7.22366C9.65244 5.35178 12.8311 5.11963 15.2686 6.65434C17.7061 8.18905 18.8144 11.1204 17.9865 13.8429C17.1586 16.5654 14.5942 18.4222 11.6979 18.3965V21.9998H11.7472C17.3778 22.031 21.9681 17.5791 21.9998 12.0563C22.0316 6.53354 17.4929 2.03116 11.8623 2Z" /></symbol>
<symbol id="rocket"><path d="M20.6598 0.380021C21.5851 0.67218 22.4006 1.2368 22.9998 2.00002C23.8298 3.42002 24.9098 6.46002 20.6398 11.39C20.6398 11.39 15.7298 16.63 9.72978 18.99C9.39181 19.1229 9.02233 19.1539 8.66693 19.0793C8.31153 19.0047 7.98575 18.8276 7.72978 18.57L5.15978 16C4.90267 15.7436 4.72815 15.4161 4.65865 15.0597C4.58915 14.7033 4.62785 14.3343 4.76978 14C6.35715 10.2861 8.61479 6.8963 11.4298 4.00002C15.5998 -0.299979 18.6398 -0.409979 20.6598 0.380021ZM15.6442 8.93881C16.0454 9.20692 16.5172 9.35002 16.9998 9.35002C17.3206 9.35134 17.6385 9.28913 17.9351 9.16698C18.2317 9.04483 18.5012 8.86515 18.7281 8.63831C18.9549 8.41147 19.1346 8.14196 19.2567 7.84533C19.3789 7.5487 19.4411 7.23082 19.4398 6.91002C19.4398 6.42743 19.2967 5.95569 19.0286 5.55443C18.7605 5.15317 18.3794 4.84043 17.9335 4.65576C17.4877 4.47108 16.9971 4.42276 16.5238 4.5169C16.0504 4.61105 15.6157 4.84344 15.2744 5.18468C14.9332 5.52592 14.7008 5.96069 14.6067 6.434C14.5125 6.90731 14.5608 7.39792 14.7455 7.84377C14.9302 8.28962 15.2429 8.6707 15.6442 8.93881ZM5.07967 11.0201C4.78967 11.5201 4.57967 11.9101 4.39967 12.2801C4.38272 12.3156 4.35872 12.3473 4.32914 12.3732C4.29956 12.3992 4.265 12.4188 4.22758 12.431C4.19016 12.4431 4.15066 12.4476 4.11148 12.444C4.07229 12.4404 4.03425 12.4288 3.99967 12.4101L0.569668 11.2301C0.435003 11.2101 0.309421 11.1502 0.209178 11.0581C0.108935 10.966 0.0386448 10.846 0.00740494 10.7135C-0.0238349 10.581 -0.0145861 10.4421 0.0339543 10.3149C0.0824948 10.1878 0.168092 10.0781 0.279668 10.0001L1.56967 8.74008L3.29967 7.00008C3.43421 6.88194 3.59648 6.7998 3.77134 6.76133C3.94621 6.72286 4.12797 6.72931 4.29967 6.78008L6.89967 7.64008C6.9297 7.64676 6.95752 7.66102 6.98047 7.68151C7.00343 7.702 7.02074 7.72803 7.03077 7.75711C7.0408 7.7862 7.04321 7.81737 7.03776 7.84765C7.03232 7.87793 7.0192 7.90631 6.99967 7.93008C6.30159 8.92284 5.66055 9.9545 5.07967 11.0201ZM4.05744 16.5976C4.17311 16.6443 4.2742 16.721 4.35024 16.8199L7.52024 19.9999C7.60605 20.0809 7.67033 20.182 7.70727 20.2941C7.7442 20.4061 7.75263 20.5256 7.73179 20.6418C7.71094 20.7579 7.66148 20.867 7.58788 20.9592C7.51428 21.0514 7.41886 21.1239 7.31024 21.1699C7.31024 21.1699 4.53024 22.5599 3.14024 21.1699C1.75024 19.7799 3.14024 16.9999 3.14024 16.9999C3.1842 16.8832 3.25857 16.7803 3.35563 16.702C3.4527 16.6236 3.56894 16.5726 3.69233 16.5542C3.81572 16.5359 3.94177 16.5508 4.05744 16.5976ZM16.7504 16.43C16.7405 16.3997 16.7231 16.3723 16.6998 16.3505C16.6766 16.3287 16.6482 16.3131 16.6173 16.3051C16.5864 16.2971 16.554 16.2971 16.5231 16.3049C16.4922 16.3127 16.4638 16.3282 16.4404 16.35C15.3104 17.19 14.2604 17.9 13.4404 18.35L12.2304 19.08C12.1708 19.1185 12.1256 19.1757 12.1021 19.2427C12.0785 19.3097 12.078 19.3826 12.1004 19.45L13.4404 22.86C13.4665 22.9957 13.5327 23.1205 13.6305 23.2182C13.7283 23.3158 13.8531 23.3819 13.9889 23.4077C14.1247 23.4336 14.2651 23.4181 14.392 23.3632C14.5188 23.3083 14.6263 23.2166 14.7004 23.1L15.9304 21.74L17.5604 20C17.6686 19.86 17.7414 19.6961 17.7728 19.522C17.8041 19.3479 17.793 19.1688 17.7404 19L16.7504 16.43Z" /></symbol>
<symbol id="sales">
  <path d="M20.9305 3C22.6257 3 24 4.37425 24 6.06947V8.68421H18.9474C17.5521 8.68421 16.4211 9.81528 16.4211 11.2105V12.4737C16.4211 13.8689 17.5521 15 18.9474 15H24V17.6147C24 19.31 22.6257 20.6842 20.9305 20.6842H3.06947C1.37425 20.6842 0 19.31 0 17.6147V6.06947C0 4.37425 1.37425 3 3.06947 3H20.9305Z"/>
  <path d="M19.5789 13.1053C20.2766 13.1053 20.8421 12.5397 20.8421 11.8421C20.8421 11.1445 20.2766 10.5789 19.5789 10.5789C18.8813 10.5789 18.3158 11.1445 18.3158 11.8421C18.3158 12.5397 18.8813 13.1053 19.5789 13.1053Z"/>
  </symbol>
<symbol id="search">
<path d="M16.7485 15.2635L21.6724 20.212V20.1945C21.9562 20.4628 22.0664 20.859 21.9603 21.2287C21.8541 21.5983 21.5484 21.8829 21.1621 21.9715C20.7759 22.0601 20.3704 21.9386 20.1038 21.6545L15.1436 16.6849C13.7435 17.6394 12.071 18.1497 10.3577 18.1449C6.44091 18.1472 3.04866 15.5184 2.19948 11.8228C1.3503 8.12723 3.27235 4.35772 6.82191 2.75737C10.3715 1.15701 14.5948 2.15578 16.9789 5.15935C19.363 8.16291 19.2672 12.3643 16.7485 15.2635ZM16.5307 10.0727C16.5307 6.7776 13.7669 4.10637 10.3577 4.10637C6.9484 4.10637 4.18465 6.7776 4.18465 10.0727C4.18465 13.3679 6.9484 16.0391 10.3577 16.0391C13.7669 16.0391 16.5307 13.3679 16.5307 10.0727Z" />
</symbol>
<symbol id="settings">
<path d="M21.0855 9.88665H19.469C19.3042 9.30338 19.0711 8.74158 18.7747 8.21288L19.92 7.06764C20.2762 6.71132 20.2762 6.13369 19.92 5.77737L18.2206 4.08003C17.8643 3.72379 17.2866 3.72379 16.9303 4.08003L15.7855 5.22486C15.2568 4.92845 14.695 4.69541 14.1117 4.53057V2.91245C14.1117 2.40852 13.7032 2 13.1993 2H10.7987C10.2948 2 9.88625 2.40852 9.88625 2.91245V4.53057C9.30297 4.69541 8.74117 4.92845 8.21247 5.22486L7.06764 4.08003C6.71142 3.72433 6.13441 3.72433 5.77818 4.08003L4.08003 5.77818C3.72379 6.1345 3.72379 6.71213 4.08003 7.06845L5.22527 8.21369C4.92886 8.74239 4.69582 9.30419 4.53098 9.88747H2.91245C2.40899 9.88747 2.00067 10.2952 2 10.7987V13.1993C2 13.7032 2.40852 14.1117 2.91245 14.1117H4.53057C4.69542 14.695 4.92845 15.2568 5.22486 15.7855L4.08003 16.9303C3.72379 17.2866 3.72379 17.8643 4.08003 18.2206L5.77818 19.9179C6.1345 20.2742 6.71213 20.2742 7.06845 19.9179L8.21369 18.7727C8.74204 19.0698 9.30357 19.3035 9.88665 19.469V21.0875C9.88665 21.5915 10.2952 22 10.7991 22H13.1997C13.7036 22 14.1121 21.5915 14.1121 21.0875V19.469C14.6954 19.3042 15.2572 19.0711 15.7859 18.7747L16.9311 19.92C17.2875 20.2762 17.8651 20.2762 18.2214 19.92L19.9187 18.2226C20.275 17.8663 20.275 17.2887 19.9187 16.9324L18.7735 15.7871C19.0705 15.258 19.3039 14.6956 19.469 14.1117H21.0875C21.5915 14.1117 22 13.7032 22 13.1993V10.7987C21.9999 10.5564 21.9034 10.3241 21.7319 10.153C21.5603 9.98195 21.3278 9.88612 21.0855 9.88665ZM11.9992 15.2342C10.6907 15.2342 9.51114 14.446 9.01042 13.2372C8.5097 12.0283 8.78647 10.6369 9.71168 9.71168C10.6369 8.78647 12.0283 8.5097 13.2372 9.01042C14.446 9.51114 15.2342 10.6907 15.2342 11.9992C15.2342 13.7858 13.7858 15.2342 11.9992 15.2342Z"/>
  </symbol>
<symbol id="silverPartner">[object Object]</symbol>
<symbol id="sort">
<path d="M5.35748 14.25H18.6425C18.7838 14.2507 18.9116 14.3412 18.969 14.4813C19.0264 14.6213 19.0028 14.7848 18.9085 14.899L12.258 22.8722C12.19 22.9536 12.0934 23 11.992 23C11.8907 23 11.7941 22.9536 11.726 22.8722L5.09146 14.899C4.99724 14.7848 4.97356 14.6213 5.03096 14.4813C5.08836 14.3412 5.21616 14.2507 5.35748 14.25Z"/>
<path d="M18.6425 10.75H5.35748C5.21616 10.7493 5.08836 10.6588 5.03096 10.5187C4.97356 10.3787 4.99724 10.2152 5.09146 10.101L11.742 2.12781C11.81 2.04642 11.9066 2 12.008 2C12.1093 2 12.2059 2.04642 12.274 2.12781L18.9085 10.101C19.0028 10.2152 19.0264 10.3787 18.969 10.5187C18.9116 10.6588 18.7838 10.7493 18.6425 10.75Z"/>
  </symbol>
<symbol id="spain">
<path d="M2.62207 15.4782C4.035 19.2861 7.70043 21.9999 12.0001 21.9999C16.2997 21.9999 19.9652 19.2861 21.3781 15.4782L12.0001 14.6086L2.62207 15.4782Z" fill="#C60B1E"/>
<path d="M12.0001 2C7.70043 2 4.035 4.71375 2.62207 8.52176L12.0001 9.39129L21.3781 8.52172C19.9652 4.71375 16.2997 2 12.0001 2Z" fill="#C60B1E"/>
<path d="M2.62199 8.52173C2.22004 9.60505 2 10.7768 2 12C2 13.2232 2.22004 14.3949 2.62199 15.4782H21.378C21.78 14.3949 22 13.2232 22 12C22 10.7768 21.78 9.60505 21.378 8.52173H2.62199Z" fill="#FFC400"/>
  </symbol>
<symbol id="star">
<path d="M16.8296 13.6124L20.7123 10.3997C21.2615 9.94343 20.9774 9.04995 20.2577 9.01193L15.2576 8.70777C14.9546 8.68876 14.6894 8.49866 14.5758 8.21351L12.7386 3.49901C12.4735 2.83366 11.5454 2.83366 11.2803 3.49901L9.44314 8.1945C9.3295 8.47965 9.06435 8.66975 8.76131 8.68876L3.7423 8.99292C3.02259 9.03094 2.73849 9.92442 3.28774 10.3807L7.17038 13.5744C7.39766 13.7645 7.51129 14.0876 7.43553 14.3728L6.16658 19.2584C5.99612 19.9427 6.73477 20.494 7.34084 20.1138L11.5644 17.3954C11.8295 17.2243 12.1515 17.2243 12.3977 17.3954L16.6402 20.1138C17.2463 20.494 17.9849 19.9427 17.8145 19.2584L16.5455 14.3918C16.4887 14.1066 16.5834 13.8025 16.8296 13.6124Z"/>
  </symbol>
<symbol id="success">
<path d="M11.1198 16.3664C11.4502 16.3664 11.767 16.2345 11.9998 16L17.4898 10.47C17.8042 10.1556 17.9269 9.69737 17.8119 9.2679C17.6968 8.83843 17.3613 8.50298 16.9319 8.3879C16.5024 8.27283 16.0442 8.39561 15.7298 8.71001L11.3398 13.1C11.2816 13.1586 11.2024 13.1916 11.1198 13.1916C11.0372 13.1916 10.958 13.1586 10.8998 13.1L9.27976 11.48C8.96537 11.1656 8.50713 11.0428 8.07766 11.1579C7.64819 11.273 7.31274 11.6084 7.19766 12.0379C7.08258 12.4674 7.20537 12.9256 7.51976 13.24L10.2398 16C10.4726 16.2345 10.7893 16.3664 11.1198 16.3664Z" />
<path d="M12.1498 23.31C5.99439 23.3045 1.00793 18.312 1.00977 12.1567C1.01161 6.00131 6.00106 1.01185 12.1564 1.01001C18.3118 1.00817 23.3042 5.99464 23.3098 12.15C23.3042 18.3112 18.311 23.3045 12.1498 23.31ZM12.1498 3.31001C8.56936 3.31001 5.3417 5.46733 3.97248 8.77557C2.60325 12.0838 3.36226 15.8911 5.89541 18.4214C8.42857 20.9517 12.2368 21.7064 15.5434 20.3335C18.8501 18.9605 21.0038 15.7304 20.9998 12.15C20.9887 7.26848 17.0313 3.3155 12.1498 3.31001Z" />
</symbol>
<symbol id="tablet">
<path d="M18.76 6.14638e-05H5.24C4.82499 -0.0105782 4.41195 0.0606624 4.02448 0.209713C3.63701 0.358763 3.28271 0.582701 2.98182 0.868731C2.68093 1.15476 2.43935 1.49728 2.27089 1.87671C2.10242 2.25614 2.01037 2.66504 2 3.08006V20.9201C2.01037 21.3351 2.10242 21.744 2.27089 22.1234C2.43935 22.5028 2.68093 22.8454 2.98182 23.1314C3.28271 23.4174 3.63701 23.6414 4.02448 23.7904C4.41195 23.9395 4.82499 24.0107 5.24 24.0001H18.76C19.175 24.0107 19.5881 23.9395 19.9755 23.7904C20.363 23.6414 20.7173 23.4174 21.0182 23.1314C21.3191 22.8454 21.5606 22.5028 21.7291 22.1234C21.8976 21.744 21.9896 21.3351 22 20.9201V3.08006C21.9896 2.66504 21.8976 2.25614 21.7291 1.87671C21.5606 1.49728 21.3191 1.15476 21.0182 0.868731C20.7173 0.582701 20.363 0.358763 19.9755 0.209713C19.5881 0.0606624 19.175 -0.0105782 18.76 6.14638e-05ZM13.55 21.6301C13.4961 21.9356 13.3529 22.2183 13.1385 22.4425C12.9241 22.6667 12.648 22.8223 12.3452 22.8898C12.0424 22.9572 11.7264 22.9335 11.4371 22.8215C11.1478 22.7095 10.8981 22.5143 10.7197 22.2605C10.5412 22.0068 10.4419 21.7058 10.4343 21.3957C10.4268 21.0855 10.5112 20.7801 10.6771 20.5179C10.843 20.2558 11.0828 20.0486 11.3663 19.9226C11.6498 19.7966 11.9643 19.7575 12.27 19.8101C12.4737 19.8451 12.6686 19.92 12.8433 20.0306C13.018 20.1411 13.1691 20.2851 13.2881 20.4542C13.407 20.6233 13.4914 20.8142 13.5363 21.016C13.5813 21.2178 13.5859 21.4265 13.55 21.6301ZM19.89 18.0001C19.8575 18.251 19.7311 18.4803 19.5363 18.6418C19.3414 18.8032 19.0926 18.8848 18.84 18.8701H5.25C4.99572 18.8874 4.7444 18.8071 4.54739 18.6454C4.35038 18.4837 4.22254 18.2528 4.19 18.0001V3.07006C4.22254 2.81727 4.35038 2.58645 4.54739 2.42475C4.7444 2.26305 4.99572 2.18268 5.25 2.20006H18.84C19.0926 2.18532 19.3414 2.26689 19.5363 2.42834C19.7311 2.58979 19.8575 2.81911 19.89 3.07006V18.0001Z" />
</symbol>
<symbol id="textAreaResizable">
<path d="M23.8409 16.9273C24.053 16.7151 24.053 16.3712 23.8409 16.1591C23.6288 15.947 23.2849 15.947 23.0727 16.1591L16.1591 23.0727C15.947 23.2849 15.947 23.6288 16.1591 23.8409C16.3712 24.053 16.7151 24.053 16.9273 23.8409L23.8409 16.9273ZM23.5773 21.2728C23.7894 21.0606 23.7894 20.7167 23.5773 20.5046C23.3652 20.2925 23.0213 20.2925 22.8091 20.5046L20.5046 22.8091C20.2925 23.0213 20.2925 23.3652 20.5046 23.5773C20.7167 23.7894 21.0606 23.7894 21.2728 23.5773L23.5773 21.2728Z"/>
  </symbol>
<symbol id="trash">
<path d="M20.4,4.5C20.1,4.2,19.6,4,19,4h-3.5V2.6c-0.1-0.9-0.8-1.5-1.6-1.6h-3.6c-1,0.1-1.7,0.7-1.7,1.6V4H5C3.9,4,3,4.9,3,6v1.1
        c0,0.3,0.3,0.6,0.6,0.6h16.8c0.3,0,0.6-0.3,0.6-0.6V5.9C21,5.4,20.8,4.9,20.4,4.5z M14.4,4H9.6V3.2c0.1-0.6,0.7-1.1,1.3-1h2.2
        c0.6-0.1,1.2,0.4,1.3,1V4z"/>
<path d="M19.8,8.7H4.1H4v0.1l0.6,12C4.7,22,5.7,23,6.9,23h10.3c1.2,0,2.2-1,2.3-2.2l0.5-12V8.7C19.9,8.7,19.8,8.7,19.8,8.7z
            M9.2,11.2v8.1c0,0.3-0.1,0.6-0.3,0.7c-0.2,0.2-0.5,0.2-0.8,0c-0.2-0.2-0.4-0.4-0.3-0.7v-8.1c0-0.3,0.1-0.6,0.3-0.7
        c0.2-0.2,0.5-0.2,0.8,0C9.1,10.7,9.3,10.9,9.2,11.2z M12.3,20c-0.2,0.2-0.5,0.2-0.8,0c-0.2-0.1-0.3-0.4-0.3-0.7v-8.1
        c-0.1-0.3,0.1-0.5,0.3-0.7c0.3-0.2,0.6-0.2,0.8,0c0.2,0.1,0.3,0.4,0.3,0.7v8.1C12.7,19.6,12.5,19.8,12.3,20z M16.1,19.3
        c0,0.3-0.1,0.6-0.3,0.7c-0.2,0.2-0.5,0.2-0.8,0c-0.2-0.2-0.4-0.4-0.3-0.7v-8.1c0-0.4,0.4-0.7,0.7-0.7c0.4,0,0.7,0.3,0.7,0.7V19.3
        z"/>
</symbol>
<symbol id="users">
<path d="M17.7498 6.7C17.7498 9.84802 15.1127 12.4 11.8598 12.4C8.60681 12.4 5.96976 9.84802 5.96976 6.7C5.96976 3.55198 8.60681 1 11.8598 1C15.1127 1 17.7498 3.55198 17.7498 6.7Z"/>
<path d="M22.4898 19.43C21.2798 16.94 18.4898 13.93 12.2898 13.74L13.3798 14.79C13.455 14.8617 13.4975 14.9611 13.4975 15.065C13.4975 15.1689 13.455 15.2683 13.3798 15.34L12.1498 16.54H12.0998L12.8198 17.02C13.0727 17.2114 13.2296 17.5035 13.2498 17.82L13.7498 22.68H20.2898C21.0819 22.695 21.8278 22.3082 22.2719 21.6521C22.716 20.9961 22.798 20.1598 22.4898 19.43Z"/>
<path d="M10.222 15.065C10.222 15.1689 10.2646 15.2683 10.3398 15.34L11.5998 16.58H11.6498L10.9298 17.06C10.6769 17.2514 10.5199 17.5435 10.4998 17.86L9.99976 22.72H3.47976C1.55976 22.72 0.529763 21.3 1.20976 19.56C2.21976 17 4.80976 13.8 11.4298 13.73L10.3398 14.79C10.2646 14.8617 10.222 14.9611 10.222 15.065Z"/>
  </symbol>
<symbol id="visible">
<path d="M8.44464 12.2581C8.44464 10.3055 10.0275 8.72258 11.9801 8.72258C13.9318 8.72486 15.5133 10.3064 15.5156 12.2581C15.5156 14.2107 13.9327 15.7935 11.9801 15.7935C10.0275 15.7935 8.44464 14.2107 8.44464 12.2581Z" />
<path d="M12.0059 4C4.136 4 0.980382 9.67123 0.130318 11.6139C-0.0485177 12.0228 -0.0430662 12.4888 0.145286 12.8934C1.04438 14.8289 4.33883 20.5161 12.0059 20.5161C19.6963 20.5161 22.9479 14.7974 23.8253 12.8774C24.0058 12.4822 24.011 12.0292 23.8397 11.6299C23.0139 9.70271 19.8981 4 12.0059 4ZM11.9801 17.8581C8.88733 17.8581 6.38012 15.3509 6.38012 12.2581C6.38012 9.16527 8.88733 6.65806 11.9801 6.65806C15.0729 6.65806 17.5801 9.16527 17.5801 12.2581C17.5767 15.3494 15.0715 17.8547 11.9801 17.8581Z" />
</symbol>
<symbol id="warning">
    <path d="M12 5.26509C12.7611 5.18489 13.4491 5.72154 13.5566 6.47925V11.3151C13.4491 12.0728 12.7611 12.6095 12 12.5292C11.2389 12.6095 10.5509 12.0728 10.4434 11.3151V6.46887C10.5559 5.71534 11.2424 5.18445 12 5.26509Z"  />
    <path d="M13.5566 16.1613C13.5566 15.3016 12.8597 14.6047 12 14.6047C11.1403 14.6047 10.4434 15.3016 10.4434 16.1613C10.4434 17.021 11.1403 17.7179 12 17.7179C12.8597 17.7179 13.5566 17.021 13.5566 16.1613Z" />
    <path d="M12 23C5.92487 23 1 18.0751 1 12C1 5.92487 5.92487 1 12 1C18.0751 1 23 5.92487 23 12C22.9943 18.0728 18.0728 22.9943 12 23ZM12 3.28302C7.1871 3.28302 3.28493 7.18364 3.28303 11.9965C3.28112 16.8094 7.18019 20.7132 11.9931 20.717C16.806 20.7208 20.7113 16.8233 20.717 12.0104C20.717 7.19444 16.8159 3.28875 12 3.28302Z" />
</symbol>
      </svg>
