<?xml version="1.0" encoding="utf-8"?>
<svg version="1.1" id="Layer_1"
	xmlns="http://www.w3.org/2000/svg"
	xmlns:xlink="http://www.w3.org/1999/xlink" x="0px" y="0px" style="enable-background:new 0 0 24 24;" xml:space="preserve">
	<g id="close">
		<path d="M20.3,3.8c-1-1-2.5-1-3.5,0L12,8.6L7.2,3.8c-1-1-2.5-1-3.5,0s-1,2.5,0,3.4L8.5,12l-4.8,4.8c-1,1-1,2.5,0,3.4
		c1,1,2.5,1,3.5,0l4.8-4.8l4.8,4.8c1,1,2.5,1,3.5,0c1-1,1-2.5,0-3.4L15.5,12l4.8-4.8C21.3,6.2,21.3,4.7,20.3,3.8z"/>
	</g>
	<g id="add">
		<path d="M13.3,6.7c0-0.7-0.6-1.3-1.3-1.3S10.7,6,10.7,6.7v4h-4c-0.7,0-1.3,0.6-1.3,1.3s0.6,1.3,1.3,1.3h4v4c0,0.7,0.6,1.3,1.3,1.3
		s1.3-0.6,1.3-1.3v-4h4c0.7,0,1.3-0.6,1.3-1.3s-0.6-1.3-1.3-1.3h-4C13.3,10.7,13.3,6.7,13.3,6.7z"/>
	</g>
	<g id="delete">
		<path d="M20.4,4.5C20.1,4.2,19.6,4,19,4h-3.5V2.6c-0.1-0.9-0.8-1.5-1.6-1.6h-3.6c-1,0.1-1.7,0.7-1.7,1.6V4H5C3.9,4,3,4.9,3,6v1.1
				c0,0.3,0.3,0.6,0.6,0.6h16.8c0.3,0,0.6-0.3,0.6-0.6V5.9C21,5.4,20.8,4.9,20.4,4.5z M14.4,4H9.6V3.2c0.1-0.6,0.7-1.1,1.3-1h2.2
				c0.6-0.1,1.2,0.4,1.3,1V4z"/>
		<path d="M19.8,8.7H4.1H4v0.1l0.6,12C4.7,22,5.7,23,6.9,23h10.3c1.2,0,2.2-1,2.3-2.2l0.5-12V8.7C19.9,8.7,19.8,8.7,19.8,8.7z
				 M9.2,11.2v8.1c0,0.3-0.1,0.6-0.3,0.7c-0.2,0.2-0.5,0.2-0.8,0c-0.2-0.2-0.4-0.4-0.3-0.7v-8.1c0-0.3,0.1-0.6,0.3-0.7
				c0.2-0.2,0.5-0.2,0.8,0C9.1,10.7,9.3,10.9,9.2,11.2z M12.3,20c-0.2,0.2-0.5,0.2-0.8,0c-0.2-0.1-0.3-0.4-0.3-0.7v-8.1
				c-0.1-0.3,0.1-0.5,0.3-0.7c0.3-0.2,0.6-0.2,0.8,0c0.2,0.1,0.3,0.4,0.3,0.7v8.1C12.7,19.6,12.5,19.8,12.3,20z M16.1,19.3
				c0,0.3-0.1,0.6-0.3,0.7c-0.2,0.2-0.5,0.2-0.8,0c-0.2-0.2-0.4-0.4-0.3-0.7v-8.1c0-0.4,0.4-0.7,0.7-0.7c0.4,0,0.7,0.3,0.7,0.7V19.3
				z"/>
	</g>
	<g id="mobile">
		<path d="M20.0003 3.56003C19.9974 3.08146 19.8985 2.60833 19.7096 2.16862C19.5207 1.72891 19.2455 1.33155 18.9003 1.00003C18.2288 0.347959 17.3263 -0.011593 16.3903 2.90927e-05H7.54032C7.06762 -0.00182296 6.59933 0.0910168 6.16308 0.273071C5.72684 0.455126 5.33148 0.722707 5.00032 1.06003C4.34706 1.73892 3.98776 2.64797 4.00032 3.59003L4.05032 20.45C4.04806 20.9234 4.1397 21.3925 4.31993 21.8302C4.50016 22.2679 4.76541 22.6655 5.10032 23C5.77187 23.6521 6.67435 24.0117 7.61032 24H16.4603C16.933 24.0019 17.4013 23.909 17.8376 23.727C18.2738 23.5449 18.6692 23.2774 19.0003 22.94C19.6536 22.2611 20.0129 21.3521 20.0003 20.41V3.56003ZM13.5503 21.13C13.4964 21.4355 13.3532 21.7182 13.1388 21.9424C12.9244 22.1666 12.6483 22.3223 12.3455 22.3898C12.0427 22.4572 11.7267 22.4334 11.4374 22.3214C11.1481 22.2094 10.8985 22.0142 10.72 21.7605C10.5415 21.5067 10.4422 21.2058 10.4347 20.8956C10.4271 20.5855 10.5116 20.2801 10.6774 20.0179C10.8433 19.7557 11.0831 19.5486 11.3666 19.4226C11.6501 19.2966 11.9646 19.2574 12.2703 19.31C12.4741 19.3451 12.6689 19.42 12.8436 19.5305C13.0183 19.6411 13.1695 19.785 13.2884 19.9541C13.4073 20.1232 13.4917 20.3142 13.5366 20.516C13.5816 20.7177 13.5862 20.9264 13.5503 21.13ZM17.7703 16.87C17.6733 17.0856 17.5339 17.2795 17.3603 17.44C17.1837 17.6077 16.9767 17.7401 16.7503 17.83C16.5137 17.9347 16.259 17.9924 16.0003 18H8.00032C7.75437 18.0013 7.51028 17.9573 7.28032 17.87C7.05534 17.7865 6.84832 17.661 6.67032 17.5C6.51096 17.3585 6.37879 17.1891 6.28032 17C6.18389 16.7897 6.13279 16.5614 6.13032 16.33L6.00032 4.00003C5.99964 3.76937 6.04733 3.54112 6.14032 3.33003C6.23731 3.11442 6.37675 2.92056 6.55032 2.76003C6.72693 2.59233 6.93398 2.45995 7.16032 2.37003C7.38964 2.27938 7.63374 2.23191 7.88032 2.23003H15.8803C16.1263 2.22872 16.3704 2.27279 16.6003 2.36003C16.8261 2.44651 17.0332 2.57551 17.2103 2.74003C17.3843 2.90019 17.5238 3.09414 17.6203 3.31003C17.7167 3.52037 17.7679 3.74865 17.7703 3.98003L17.8503 16.26C17.8621 16.4666 17.835 16.6735 17.7703 16.87Z" />
	</g>
	<g id="tablet">
		<path d="M18.76 6.14638e-05H5.24C4.82499 -0.0105782 4.41195 0.0606624 4.02448 0.209713C3.63701 0.358763 3.28271 0.582701 2.98182 0.868731C2.68093 1.15476 2.43935 1.49728 2.27089 1.87671C2.10242 2.25614 2.01037 2.66504 2 3.08006V20.9201C2.01037 21.3351 2.10242 21.744 2.27089 22.1234C2.43935 22.5028 2.68093 22.8454 2.98182 23.1314C3.28271 23.4174 3.63701 23.6414 4.02448 23.7904C4.41195 23.9395 4.82499 24.0107 5.24 24.0001H18.76C19.175 24.0107 19.5881 23.9395 19.9755 23.7904C20.363 23.6414 20.7173 23.4174 21.0182 23.1314C21.3191 22.8454 21.5606 22.5028 21.7291 22.1234C21.8976 21.744 21.9896 21.3351 22 20.9201V3.08006C21.9896 2.66504 21.8976 2.25614 21.7291 1.87671C21.5606 1.49728 21.3191 1.15476 21.0182 0.868731C20.7173 0.582701 20.363 0.358763 19.9755 0.209713C19.5881 0.0606624 19.175 -0.0105782 18.76 6.14638e-05ZM13.55 21.6301C13.4961 21.9356 13.3529 22.2183 13.1385 22.4425C12.9241 22.6667 12.648 22.8223 12.3452 22.8898C12.0424 22.9572 11.7264 22.9335 11.4371 22.8215C11.1478 22.7095 10.8981 22.5143 10.7197 22.2605C10.5412 22.0068 10.4419 21.7058 10.4343 21.3957C10.4268 21.0855 10.5112 20.7801 10.6771 20.5179C10.843 20.2558 11.0828 20.0486 11.3663 19.9226C11.6498 19.7966 11.9643 19.7575 12.27 19.8101C12.4737 19.8451 12.6686 19.92 12.8433 20.0306C13.018 20.1411 13.1691 20.2851 13.2881 20.4542C13.407 20.6233 13.4914 20.8142 13.5363 21.016C13.5813 21.2178 13.5859 21.4265 13.55 21.6301ZM19.89 18.0001C19.8575 18.251 19.7311 18.4803 19.5363 18.6418C19.3414 18.8032 19.0926 18.8848 18.84 18.8701H5.25C4.99572 18.8874 4.7444 18.8071 4.54739 18.6454C4.35038 18.4837 4.22254 18.2528 4.19 18.0001V3.07006C4.22254 2.81727 4.35038 2.58645 4.54739 2.42475C4.7444 2.26305 4.99572 2.18268 5.25 2.20006H18.84C19.0926 2.18532 19.3414 2.26689 19.5363 2.42834C19.7311 2.58979 19.8575 2.81911 19.89 3.07006V18.0001Z" />

	</g>
	<g id="desktop">
		<path d="M2.3,1.9c-1.1,0-1.9,0.9-1.9,1.9v12.6c0,1.1,0.9,1.9,1.9,1.9h5.5l-0.4,1.9H6.2c-0.5,0-1,0.4-1,1c0,0.5,0.4,1,1,1h11.7c0.5,0,1-0.4,1-1c0-0.5-0.4-1-1-1h-1.2l-0.4-1.9h5.5c1.1,0,1.9-0.9,1.9-1.9V3.8c0-1.1-0.9-1.9-1.9-1.9H2.3z M2.3,13.5V4.8
		c0-0.5,0.4-1,1-1h17.5c0.5,0,1,0.4,1,1v8.7c0,0.5-0.4,1-1,1H3.2C2.7,14.5,2.3,14.1,2.3,13.5z M12,17.4c0.5,0,1-0.4,1-1
		c0-0.5-0.4-1-1-1s-1,0.4-1,1C11,17,11.4,17.4,12,17.4z"/>
	</g>
	<g id="drag">
		<path d="M6.6 4.78824C6.6 5.77585 5.79411 6.57647 4.8 6.57647C3.80589 6.57647 3 5.77585 3 4.78824C3 3.80062 3.80589 3 4.8 3C5.79411 3 6.6 3.80062 6.6 4.78824Z"/>
		<path d="M6.6 11.9882C6.6 12.9759 5.79411 13.7765 4.8 13.7765C3.80589 13.7765 3 12.9759 3 11.9882C3 11.0006 3.80589 10.2 4.8 10.2C5.79411 10.2 6.6 11.0006 6.6 11.9882Z"/>
		<path d="M4.8 20.9765C5.79411 20.9765 6.6 20.1758 6.6 19.1882C6.6 18.2006 5.79411 17.4 4.8 17.4C3.80589 17.4 3 18.2006 3 19.1882C3 20.1758 3.80589 20.9765 4.8 20.9765Z"/>
		<path d="M13.8 4.78824C13.8 5.77585 12.9941 6.57647 12 6.57647C11.0059 6.57647 10.2 5.77585 10.2 4.78824C10.2 3.80062 11.0059 3 12 3C12.9941 3 13.8 3.80062 13.8 4.78824Z"/>
		<path d="M12 13.7765C12.9941 13.7765 13.8 12.9759 13.8 11.9882C13.8 11.0006 12.9941 10.2 12 10.2C11.0059 10.2 10.2 11.0006 10.2 11.9882C10.2 12.9759 11.0059 13.7765 12 13.7765Z"/>
		<path d="M13.8 19.1882C13.8 20.1758 12.9941 20.9765 12 20.9765C11.0059 20.9765 10.2 20.1758 10.2 19.1882C10.2 18.2006 11.0059 17.4 12 17.4C12.9941 17.4 13.8 18.2006 13.8 19.1882Z"/>
		<path d="M19.2 6.57647C20.1941 6.57647 21 5.77585 21 4.78824C21 3.80062 20.1941 3 19.2 3C18.2059 3 17.4 3.80062 17.4 4.78824C17.4 5.77585 18.2059 6.57647 19.2 6.57647Z"/>
		<path d="M21 11.9882C21 12.9759 20.1941 13.7765 19.2 13.7765C18.2059 13.7765 17.4 12.9759 17.4 11.9882C17.4 11.0006 18.2059 10.2 19.2 10.2C20.1941 10.2 21 11.0006 21 11.9882Z"/>
		<path d="M19.2 20.9765C20.1941 20.9765 21 20.1758 21 19.1882C21 18.2006 20.1941 17.4 19.2 17.4C18.2059 17.4 17.4 18.2006 17.4 19.1882C17.4 20.1758 18.2059 20.9765 19.2 20.9765Z"/>
	</g>
	<g id="loader">
		<ellipse opacity="0.7" rx="3.48584" ry="3.4859" transform="matrix(0.80444 0.594034 -0.593986 0.804475 11.925 4.87503)"/>
		<ellipse rx="3.48584" ry="3.4859" transform="matrix(0.80444 0.594034 -0.593986 0.804475 20.1242 10.9278)"/>
		<ellipse opacity="0.4" rx="3.48584" ry="3.4859" transform="matrix(0.80444 0.594034 -0.593986 0.804475 5.87224 13.0723)"/>
		<ellipse opacity="0.3" rx="3.48584" ry="3.4859" transform="matrix(0.80444 0.594034 -0.593986 0.804475 14.0695 19.125)"/>
	</g>
	<g id="error">
		<path d="M12 5.26509C12.7611 5.18489 13.4491 5.72154 13.5566 6.47925V11.3151C13.4491 12.0728 12.7611 12.6095 12 12.5292C11.2389 12.6095 10.5509 12.0728 10.4434 11.3151V6.46887C10.5559 5.71534 11.2424 5.18445 12 5.26509Z" />
		<path d="M13.5566 16.1613C13.5566 15.3016 12.8597 14.6047 12 14.6047C11.1403 14.6047 10.4434 15.3016 10.4434 16.1613C10.4434 17.021 11.1403 17.7179 12 17.7179C12.8597 17.7179 13.5566 17.021 13.5566 16.1613Z" />
		<path d="M12 23C5.92487 23 1 18.0751 1 12C1 5.92487 5.92487 1 12 1C18.0751 1 23 5.92487 23 12C22.9943 18.0728 18.0728 22.9943 12 23ZM12 3.28302C7.1871 3.28302 3.28493 7.18364 3.28303 11.9965C3.28112 16.8094 7.18019 20.7132 11.9931 20.717C16.806 20.7208 20.7113 16.8233 20.717 12.0104C20.717 7.19444 16.8159 3.28875 12 3.28302Z" />
	</g>
	<g id="search">
		<path d="M16.7485 15.2635L21.6724 20.212V20.1945C21.9562 20.4628 22.0664 20.859 21.9603 21.2287C21.8541 21.5983 21.5484 21.8829 21.1621 21.9715C20.7759 22.0601 20.3704 21.9386 20.1038 21.6545L15.1436 16.6849C13.7435 17.6394 12.071 18.1497 10.3577 18.1449C6.44091 18.1472 3.04866 15.5184 2.19948 11.8228C1.3503 8.12723 3.27235 4.35772 6.82191 2.75737C10.3715 1.15701 14.5948 2.15578 16.9789 5.15935C19.363 8.16291 19.2672 12.3643 16.7485 15.2635ZM16.5307 10.0727C16.5307 6.7776 13.7669 4.10637 10.3577 4.10637C6.9484 4.10637 4.18465 6.7776 4.18465 10.0727C4.18465 13.3679 6.9484 16.0391 10.3577 16.0391C13.7669 16.0391 16.5307 13.3679 16.5307 10.0727Z" />
	</g>
	<g id="dropdown-arrow">
		<path fill-rule="evenodd" clip-rule="evenodd" d="M10.2462 18.2913L10.181 18.226L2.74372 10.506C1.79521 9.52139 1.75397 7.98719 2.62 6.95483L2.78498 6.77443C3.71096 5.81325 5.21397 5.74472 6.22165 6.58844L6.3888 6.74149L12 12.5649L17.5789 6.77417C18.547 5.7693 20.1457 5.74008 21.1498 6.7089L21.2563 6.817C22.2479 7.84633 22.2479 9.47638 21.2563 10.5057L13.819 18.2257C13.4703 18.5877 13.0398 18.8231 12.5847 18.9308C12.5065 18.9492 12.4283 18.9638 12.3496 18.9748C12.2213 18.9926 12.092 19.0006 11.9628 18.9986C11.3427 18.9897 10.7264 18.7546 10.2462 18.2913Z"/>
	</g>
	<g id="back">
		<path d="M6.20864 14.2538L6.27391 14.319L13.9939 21.7563C14.9785 22.7048 16.5127 22.746 17.5451 21.88L17.7255 21.715C18.6866 20.789 18.7552 19.286 17.9115 18.2784L17.7584 18.1112L11.9349 12.5L17.7257 6.92111C18.7306 5.95304 18.7598 4.3543 17.791 3.35021L17.6829 3.24372C16.6536 2.25209 15.0235 2.25209 13.9942 3.24372L6.27417 10.681C5.91221 11.0297 5.67683 11.4602 5.5691 11.9153C5.55075 11.9935 5.53606 12.0717 5.52508 12.1504C5.50727 12.2787 5.49933 12.408 5.50126 12.5372C5.51023 13.1573 5.74529 13.7736 6.20864 14.2538Z" />
	</g>

	<g id="reset">
		<path d="M11.8623 2H11.7801C9.22666 2.00327 6.76692 2.9436 4.88471 4.63601C4.77286 4.74355 4.59385 4.74355 4.482 4.63601L2.59995 2.74969C2.49808 2.65098 2.34553 2.62233 2.21368 2.67714C2.08537 2.7313 2.00162 2.85452 2 2.99153V9.72263C2.00447 9.91091 2.16139 10.0613 2.3534 10.0612H9.14192C9.30188 10.0655 9.44389 9.96143 9.485 9.80974C9.52611 9.65804 9.45554 9.49853 9.31451 9.42437L7.47355 7.64284C7.41528 7.5881 7.38232 7.51239 7.38232 7.43325C7.38232 7.35411 7.41528 7.2784 7.47355 7.22366C9.65244 5.35178 12.8311 5.11963 15.2686 6.65434C17.7061 8.18905 18.8144 11.1204 17.9865 13.8429C17.1586 16.5654 14.5942 18.4222 11.6979 18.3965V21.9998H11.7472C17.3778 22.031 21.9681 17.5791 21.9998 12.0563C22.0316 6.53354 17.4929 2.03116 11.8623 2Z" />
	</g>

	<g id="close_all">
		<circle cx="12" cy="12" r="12" style="fill:var(--oryx-color-neutral-light, #eeeeee)"/>
		<path d="M16.1425 7.85748C15.6659 7.38084 14.8931 7.38084 14.4165 7.85748L12 10.2739L9.58353 7.85748C9.10689 7.38084 8.33411 7.38084 7.85748 7.85748C7.38084 8.33411 7.38084 9.10689 7.85748 9.58353L10.2739 12L7.85748 14.4165C7.38084 14.8931 7.38084 15.6659 7.85748 16.1425C8.33411 16.6192 9.10689 16.6192 9.58353 16.1425L12 13.7261L14.4165 16.1425C14.8931 16.6192 15.6659 16.6192 16.1425 16.1425C16.6192 15.6659 16.6192 14.8931 16.1425 14.4165L13.7261 12L16.1425 9.58353C16.6192 9.10689 16.6192 8.33411 16.1425 7.85748Z" />
	</g>

	<g id="remove">
		<circle cx="12" cy="12" r="12" style="fill:var(--oryx-color-neutral-light, #eeeeee)"/>
		<path d="M16.1425 7.85748C15.6659 7.38084 14.8931 7.38084 14.4165 7.85748L12 10.2739L9.58353 7.85748C9.10689 7.38084 8.33411 7.38084 7.85748 7.85748C7.38084 8.33411 7.38084 9.10689 7.85748 9.58353L10.2739 12L7.85748 14.4165C7.38084 14.8931 7.38084 15.6659 7.85748 16.1425C8.33411 16.6192 9.10689 16.6192 9.58353 16.1425L12 13.7261L14.4165 16.1425C14.8931 16.6192 15.6659 16.6192 16.1425 16.1425C16.6192 15.6659 16.6192 14.8931 16.1425 14.4165L13.7261 12L16.1425 9.58353C16.6192 9.10689 16.6192 8.33411 16.1425 7.85748Z" />
	</g>
</svg>
