<?xml version="1.0" encoding="utf-8"?>
<svg version="1.1" id="Layer_1"
	xmlns="http://www.w3.org/2000/svg"
	xmlns:xlink="http://www.w3.org/1999/xlink" x="0px" y="0px" style="enable-background:new 0 0 24 24;" xml:space="preserve">
	<g id="misc">
		<g id="add">
			<path d="M13.3,6.7c0-0.7-0.6-1.3-1.3-1.3S10.7,6,10.7,6.7v4h-4c-0.7,0-1.3,0.6-1.3,1.3s0.6,1.3,1.3,1.3h4v4c0,0.7,0.6,1.3,1.3,1.3
		s1.3-0.6,1.3-1.3v-4h4c0.7,0,1.3-0.6,1.3-1.3s-0.6-1.3-1.3-1.3h-4C13.3,10.7,13.3,6.7,13.3,6.7z"/>
		</g>
		<g id="back">
			<path d="M6.20864 14.2538L6.27391 14.319L13.9939 21.7563C14.9785 22.7048 16.5127 22.746 17.5451 21.88L17.7255 21.715C18.6866 20.789 18.7552 19.286 17.9115 18.2784L17.7584 18.1112L11.9349 12.5L17.7257 6.92111C18.7306 5.95304 18.7598 4.3543 17.791 3.35021L17.6829 3.24372C16.6536 2.25209 15.0235 2.25209 13.9942 3.24372L6.27417 10.681C5.91221 11.0297 5.67683 11.4602 5.5691 11.9153C5.55075 11.9935 5.53606 12.0717 5.52508 12.1504C5.50727 12.2787 5.49933 12.408 5.50126 12.5372C5.51023 13.1573 5.74529 13.7736 6.20864 14.2538Z" />
		</g>
		<g id="close">
			<path d="M20.3,3.8c-1-1-2.5-1-3.5,0L12,8.6L7.2,3.8c-1-1-2.5-1-3.5,0s-1,2.5,0,3.4L8.5,12l-4.8,4.8c-1,1-1,2.5,0,3.4
		c1,1,2.5,1,3.5,0l4.8-4.8l4.8,4.8c1,1,2.5,1,3.5,0c1-1,1-2.5,0-3.4L15.5,12l4.8-4.8C21.3,6.2,21.3,4.7,20.3,3.8z"/>
		</g>
		<g id="close_all">
			<circle cx="12" cy="12" r="12" style="fill:var(--oryx-color-neutral-light, #eeeeee)"/>
			<path d="M16.1425 7.85748C15.6659 7.38084 14.8931 7.38084 14.4165 7.85748L12 10.2739L9.58353 7.85748C9.10689 7.38084 8.33411 7.38084 7.85748 7.85748C7.38084 8.33411 7.38084 9.10689 7.85748 9.58353L10.2739 12L7.85748 14.4165C7.38084 14.8931 7.38084 15.6659 7.85748 16.1425C8.33411 16.6192 9.10689 16.6192 9.58353 16.1425L12 13.7261L14.4165 16.1425C14.8931 16.6192 15.6659 16.6192 16.1425 16.1425C16.6192 15.6659 16.6192 14.8931 16.1425 14.4165L13.7261 12L16.1425 9.58353C16.6192 9.10689 16.6192 8.33411 16.1425 7.85748Z" />
		</g>
		<g id="drag">
			<path d="M6.6 4.78824C6.6 5.77585 5.79411 6.57647 4.8 6.57647C3.80589 6.57647 3 5.77585 3 4.78824C3 3.80062 3.80589 3 4.8 3C5.79411 3 6.6 3.80062 6.6 4.78824Z"/>
			<path d="M6.6 11.9882C6.6 12.9759 5.79411 13.7765 4.8 13.7765C3.80589 13.7765 3 12.9759 3 11.9882C3 11.0006 3.80589 10.2 4.8 10.2C5.79411 10.2 6.6 11.0006 6.6 11.9882Z"/>
			<path d="M4.8 20.9765C5.79411 20.9765 6.6 20.1758 6.6 19.1882C6.6 18.2006 5.79411 17.4 4.8 17.4C3.80589 17.4 3 18.2006 3 19.1882C3 20.1758 3.80589 20.9765 4.8 20.9765Z"/>
			<path d="M13.8 4.78824C13.8 5.77585 12.9941 6.57647 12 6.57647C11.0059 6.57647 10.2 5.77585 10.2 4.78824C10.2 3.80062 11.0059 3 12 3C12.9941 3 13.8 3.80062 13.8 4.78824Z"/>
			<path d="M12 13.7765C12.9941 13.7765 13.8 12.9759 13.8 11.9882C13.8 11.0006 12.9941 10.2 12 10.2C11.0059 10.2 10.2 11.0006 10.2 11.9882C10.2 12.9759 11.0059 13.7765 12 13.7765Z"/>
			<path d="M13.8 19.1882C13.8 20.1758 12.9941 20.9765 12 20.9765C11.0059 20.9765 10.2 20.1758 10.2 19.1882C10.2 18.2006 11.0059 17.4 12 17.4C12.9941 17.4 13.8 18.2006 13.8 19.1882Z"/>
			<path d="M19.2 6.57647C20.1941 6.57647 21 5.77585 21 4.78824C21 3.80062 20.1941 3 19.2 3C18.2059 3 17.4 3.80062 17.4 4.78824C17.4 5.77585 18.2059 6.57647 19.2 6.57647Z"/>
			<path d="M21 11.9882C21 12.9759 20.1941 13.7765 19.2 13.7765C18.2059 13.7765 17.4 12.9759 17.4 11.9882C17.4 11.0006 18.2059 10.2 19.2 10.2C20.1941 10.2 21 11.0006 21 11.9882Z"/>
			<path d="M19.2 20.9765C20.1941 20.9765 21 20.1758 21 19.1882C21 18.2006 20.1941 17.4 19.2 17.4C18.2059 17.4 17.4 18.2006 17.4 19.1882C17.4 20.1758 18.2059 20.9765 19.2 20.9765Z"/>
		</g>
		<g id="dropdown">
			<path fill-rule="evenodd" clip-rule="evenodd" d="M10.2462 18.2913L10.181 18.226L2.74372 10.506C1.79521 9.52139 1.75397 7.98719 2.62 6.95483L2.78498 6.77443C3.71096 5.81325 5.21397 5.74472 6.22165 6.58844L6.3888 6.74149L12 12.5649L17.5789 6.77417C18.547 5.7693 20.1457 5.74008 21.1498 6.7089L21.2563 6.817C22.2479 7.84633 22.2479 9.47638 21.2563 10.5057L13.819 18.2257C13.4703 18.5877 13.0398 18.8231 12.5847 18.9308C12.5065 18.9492 12.4283 18.9638 12.3496 18.9748C12.2213 18.9926 12.092 19.0006 11.9628 18.9986C11.3427 18.9897 10.7264 18.7546 10.2462 18.2913Z" />
		</g>
		<g id="loader">
			<ellipse opacity="0.7" rx="3.48584" ry="3.4859" transform="matrix(0.80444 0.594034 -0.593986 0.804475 11.925 4.87503)"/>
			<ellipse rx="3.48584" ry="3.4859" transform="matrix(0.80444 0.594034 -0.593986 0.804475 20.1242 10.9278)"/>
			<ellipse opacity="0.4" rx="3.48584" ry="3.4859" transform="matrix(0.80444 0.594034 -0.593986 0.804475 5.87224 13.0723)"/>
			<ellipse opacity="0.3" rx="3.48584" ry="3.4859" transform="matrix(0.80444 0.594034 -0.593986 0.804475 14.0695 19.125)"/>
		</g>
		<g id="mark">
			<path d="M20.4357 8.37056L10.6396 18.4215C10.2624 18.8065 9.77177 19 9.27917 19C8.78657 19 8.29398 18.8065 7.91876 18.4215L3.56427 13.9538C2.81191 13.1838 2.81191 11.9341 3.56427 11.1622C4.31664 10.3902 5.53274 10.3902 6.2851 11.1622L9.27917 14.2341L17.7149 5.57895C18.4673 4.80702 19.6834 4.80702 20.4357 5.57895C21.1881 6.35089 21.1881 7.59863 20.4357 8.37056Z" />
		</g>
		<g id="remove">
			<circle cx="12" cy="12" r="12" style="fill:var(--oryx-color-neutral-light, #eeeeee)"/>
			<path d="M16.1425 7.85748C15.6659 7.38084 14.8931 7.38084 14.4165 7.85748L12 10.2739L9.58353 7.85748C9.10689 7.38084 8.33411 7.38084 7.85748 7.85748C7.38084 8.33411 7.38084 9.10689 7.85748 9.58353L10.2739 12L7.85748 14.4165C7.38084 14.8931 7.38084 15.6659 7.85748 16.1425C8.33411 16.6192 9.10689 16.6192 9.58353 16.1425L12 13.7261L14.4165 16.1425C14.8931 16.6192 15.6659 16.6192 16.1425 16.1425C16.6192 15.6659 16.6192 14.8931 16.1425 14.4165L13.7261 12L16.1425 9.58353C16.6192 9.10689 16.6192 8.33411 16.1425 7.85748Z" />
		</g>
		<g id="reset">
			<path d="M11.8623 2H11.7801C9.22666 2.00327 6.76692 2.9436 4.88471 4.63601C4.77286 4.74355 4.59385 4.74355 4.482 4.63601L2.59995 2.74969C2.49808 2.65098 2.34553 2.62233 2.21368 2.67714C2.08537 2.7313 2.00162 2.85452 2 2.99153V9.72263C2.00447 9.91091 2.16139 10.0613 2.3534 10.0612H9.14192C9.30188 10.0655 9.44389 9.96143 9.485 9.80974C9.52611 9.65804 9.45554 9.49853 9.31451 9.42437L7.47355 7.64284C7.41528 7.5881 7.38232 7.51239 7.38232 7.43325C7.38232 7.35411 7.41528 7.2784 7.47355 7.22366C9.65244 5.35178 12.8311 5.11963 15.2686 6.65434C17.7061 8.18905 18.8144 11.1204 17.9865 13.8429C17.1586 16.5654 14.5942 18.4222 11.6979 18.3965V21.9998H11.7472C17.3778 22.031 21.9681 17.5791 21.9998 12.0563C22.0316 6.53354 17.4929 2.03116 11.8623 2Z" />
		</g>
		<g id="search">
			<path d="M16.7485 15.2635L21.6724 20.212V20.1945C21.9562 20.4628 22.0664 20.859 21.9603 21.2287C21.8541 21.5983 21.5484 21.8829 21.1621 21.9715C20.7759 22.0601 20.3704 21.9386 20.1038 21.6545L15.1436 16.6849C13.7435 17.6394 12.071 18.1497 10.3577 18.1449C6.44091 18.1472 3.04866 15.5184 2.19948 11.8228C1.3503 8.12723 3.27235 4.35772 6.82191 2.75737C10.3715 1.15701 14.5948 2.15578 16.9789 5.15935C19.363 8.16291 19.2672 12.3643 16.7485 15.2635ZM16.5307 10.0727C16.5307 6.7776 13.7669 4.10637 10.3577 4.10637C6.9484 4.10637 4.18465 6.7776 4.18465 10.0727C4.18465 13.3679 6.9484 16.0391 10.3577 16.0391C13.7669 16.0391 16.5307 13.3679 16.5307 10.0727Z" />
		</g>
		<g id="trash">
			<path d="M20.4,4.5C20.1,4.2,19.6,4,19,4h-3.5V2.6c-0.1-0.9-0.8-1.5-1.6-1.6h-3.6c-1,0.1-1.7,0.7-1.7,1.6V4H5C3.9,4,3,4.9,3,6v1.1
				c0,0.3,0.3,0.6,0.6,0.6h16.8c0.3,0,0.6-0.3,0.6-0.6V5.9C21,5.4,20.8,4.9,20.4,4.5z M14.4,4H9.6V3.2c0.1-0.6,0.7-1.1,1.3-1h2.2
				c0.6-0.1,1.2,0.4,1.3,1V4z"/>
			<path d="M19.8,8.7H4.1H4v0.1l0.6,12C4.7,22,5.7,23,6.9,23h10.3c1.2,0,2.2-1,2.3-2.2l0.5-12V8.7C19.9,8.7,19.8,8.7,19.8,8.7z
				 M9.2,11.2v8.1c0,0.3-0.1,0.6-0.3,0.7c-0.2,0.2-0.5,0.2-0.8,0c-0.2-0.2-0.4-0.4-0.3-0.7v-8.1c0-0.3,0.1-0.6,0.3-0.7
				c0.2-0.2,0.5-0.2,0.8,0C9.1,10.7,9.3,10.9,9.2,11.2z M12.3,20c-0.2,0.2-0.5,0.2-0.8,0c-0.2-0.1-0.3-0.4-0.3-0.7v-8.1
				c-0.1-0.3,0.1-0.5,0.3-0.7c0.3-0.2,0.6-0.2,0.8,0c0.2,0.1,0.3,0.4,0.3,0.7v8.1C12.7,19.6,12.5,19.8,12.3,20z M16.1,19.3
				c0,0.3-0.1,0.6-0.3,0.7c-0.2,0.2-0.5,0.2-0.8,0c-0.2-0.2-0.4-0.4-0.3-0.7v-8.1c0-0.4,0.4-0.7,0.7-0.7c0.4,0,0.7,0.3,0.7,0.7V19.3
				z"/>
		</g>
		<g id="visible">
			<path d="M8.44464 12.2581C8.44464 10.3055 10.0275 8.72258 11.9801 8.72258C13.9318 8.72486 15.5133 10.3064 15.5156 12.2581C15.5156 14.2107 13.9327 15.7935 11.9801 15.7935C10.0275 15.7935 8.44464 14.2107 8.44464 12.2581Z" />
			<path d="M12.0059 4C4.136 4 0.980382 9.67123 0.130318 11.6139C-0.0485177 12.0228 -0.0430662 12.4888 0.145286 12.8934C1.04438 14.8289 4.33883 20.5161 12.0059 20.5161C19.6963 20.5161 22.9479 14.7974 23.8253 12.8774C24.0058 12.4822 24.011 12.0292 23.8397 11.6299C23.0139 9.70271 19.8981 4 12.0059 4ZM11.9801 17.8581C8.88733 17.8581 6.38012 15.3509 6.38012 12.2581C6.38012 9.16527 8.88733 6.65806 11.9801 6.65806C15.0729 6.65806 17.5801 9.16527 17.5801 12.2581C17.5767 15.3494 15.0715 17.8547 11.9801 17.8581Z" />
		</g>
		<g id="invisible">
			<path fill-rule="evenodd" clip-rule="evenodd" d="M19.5836 5.6247L21.0065 4.20276C21.5105 3.6988 21.5105 2.8817 21.0065 2.37773C20.5026 1.87376 19.6855 1.87376 19.1815 2.37773L17.2414 4.31786C15.7905 3.71244 14.0605 3.32586 12.0063 3.32586C4.13686 3.32586 0.980733 8.99657 0.130668 10.9398C-0.0484646 11.3486 -0.0432004 11.8146 0.14512 12.2193C0.646797 13.299 1.8948 15.5488 4.23389 17.3259L2.61325 18.9465C2.11331 19.4513 2.11543 20.2652 2.61799 20.7673C3.12055 21.2694 3.93447 21.2709 4.4388 20.7705L6.51467 18.6946C8.02693 19.3888 9.84267 19.842 12.0068 19.842C19.6971 19.842 22.9487 14.1233 23.8262 12.2033C24.0068 11.8072 24.0117 11.3531 23.8396 10.9532C23.3585 9.83167 22.1023 7.43425 19.5836 5.6247ZM6.38099 11.5839C6.37996 9.5773 7.45314 7.72364 9.19385 6.72541C10.9346 5.72717 13.0764 5.73709 14.8078 6.75141L13.2672 8.29154C11.9597 7.77951 10.4731 8.09027 9.48023 9.08316C8.48734 10.0761 8.17658 11.5626 8.6886 12.8701L7.14847 14.4108C6.64482 13.5539 6.37981 12.5778 6.38099 11.5839ZM8.92912 16.2781C9.83655 16.8707 10.8972 17.1855 11.981 17.1839L11.9769 17.1834C14.0308 17.1852 15.9207 16.062 16.9008 14.257C17.8808 12.452 17.7937 10.2552 16.6736 8.5336L15.1619 10.0453C15.8172 11.3996 15.5434 13.0202 14.4796 14.084C13.4157 15.1478 11.7951 15.4217 10.4409 14.7664L8.92912 16.2781Z" />
		</g>
	</g>

	<g id="view">
		<g id="mobile">
			<path d="M20.0003 3.56003C19.9974 3.08146 19.8985 2.60833 19.7096 2.16862C19.5207 1.72891 19.2455 1.33155 18.9003 1.00003C18.2288 0.347959 17.3263 -0.011593 16.3903 2.90927e-05H7.54032C7.06762 -0.00182296 6.59933 0.0910168 6.16308 0.273071C5.72684 0.455126 5.33148 0.722707 5.00032 1.06003C4.34706 1.73892 3.98776 2.64797 4.00032 3.59003L4.05032 20.45C4.04806 20.9234 4.1397 21.3925 4.31993 21.8302C4.50016 22.2679 4.76541 22.6655 5.10032 23C5.77187 23.6521 6.67435 24.0117 7.61032 24H16.4603C16.933 24.0019 17.4013 23.909 17.8376 23.727C18.2738 23.5449 18.6692 23.2774 19.0003 22.94C19.6536 22.2611 20.0129 21.3521 20.0003 20.41V3.56003ZM13.5503 21.13C13.4964 21.4355 13.3532 21.7182 13.1388 21.9424C12.9244 22.1666 12.6483 22.3223 12.3455 22.3898C12.0427 22.4572 11.7267 22.4334 11.4374 22.3214C11.1481 22.2094 10.8985 22.0142 10.72 21.7605C10.5415 21.5067 10.4422 21.2058 10.4347 20.8956C10.4271 20.5855 10.5116 20.2801 10.6774 20.0179C10.8433 19.7557 11.0831 19.5486 11.3666 19.4226C11.6501 19.2966 11.9646 19.2574 12.2703 19.31C12.4741 19.3451 12.6689 19.42 12.8436 19.5305C13.0183 19.6411 13.1695 19.785 13.2884 19.9541C13.4073 20.1232 13.4917 20.3142 13.5366 20.516C13.5816 20.7177 13.5862 20.9264 13.5503 21.13ZM17.7703 16.87C17.6733 17.0856 17.5339 17.2795 17.3603 17.44C17.1837 17.6077 16.9767 17.7401 16.7503 17.83C16.5137 17.9347 16.259 17.9924 16.0003 18H8.00032C7.75437 18.0013 7.51028 17.9573 7.28032 17.87C7.05534 17.7865 6.84832 17.661 6.67032 17.5C6.51096 17.3585 6.37879 17.1891 6.28032 17C6.18389 16.7897 6.13279 16.5614 6.13032 16.33L6.00032 4.00003C5.99964 3.76937 6.04733 3.54112 6.14032 3.33003C6.23731 3.11442 6.37675 2.92056 6.55032 2.76003C6.72693 2.59233 6.93398 2.45995 7.16032 2.37003C7.38964 2.27938 7.63374 2.23191 7.88032 2.23003H15.8803C16.1263 2.22872 16.3704 2.27279 16.6003 2.36003C16.8261 2.44651 17.0332 2.57551 17.2103 2.74003C17.3843 2.90019 17.5238 3.09414 17.6203 3.31003C17.7167 3.52037 17.7679 3.74865 17.7703 3.98003L17.8503 16.26C17.8621 16.4666 17.835 16.6735 17.7703 16.87Z" />
		</g>
		<g id="tablet">
			<path d="M18.76 6.14638e-05H5.24C4.82499 -0.0105782 4.41195 0.0606624 4.02448 0.209713C3.63701 0.358763 3.28271 0.582701 2.98182 0.868731C2.68093 1.15476 2.43935 1.49728 2.27089 1.87671C2.10242 2.25614 2.01037 2.66504 2 3.08006V20.9201C2.01037 21.3351 2.10242 21.744 2.27089 22.1234C2.43935 22.5028 2.68093 22.8454 2.98182 23.1314C3.28271 23.4174 3.63701 23.6414 4.02448 23.7904C4.41195 23.9395 4.82499 24.0107 5.24 24.0001H18.76C19.175 24.0107 19.5881 23.9395 19.9755 23.7904C20.363 23.6414 20.7173 23.4174 21.0182 23.1314C21.3191 22.8454 21.5606 22.5028 21.7291 22.1234C21.8976 21.744 21.9896 21.3351 22 20.9201V3.08006C21.9896 2.66504 21.8976 2.25614 21.7291 1.87671C21.5606 1.49728 21.3191 1.15476 21.0182 0.868731C20.7173 0.582701 20.363 0.358763 19.9755 0.209713C19.5881 0.0606624 19.175 -0.0105782 18.76 6.14638e-05ZM13.55 21.6301C13.4961 21.9356 13.3529 22.2183 13.1385 22.4425C12.9241 22.6667 12.648 22.8223 12.3452 22.8898C12.0424 22.9572 11.7264 22.9335 11.4371 22.8215C11.1478 22.7095 10.8981 22.5143 10.7197 22.2605C10.5412 22.0068 10.4419 21.7058 10.4343 21.3957C10.4268 21.0855 10.5112 20.7801 10.6771 20.5179C10.843 20.2558 11.0828 20.0486 11.3663 19.9226C11.6498 19.7966 11.9643 19.7575 12.27 19.8101C12.4737 19.8451 12.6686 19.92 12.8433 20.0306C13.018 20.1411 13.1691 20.2851 13.2881 20.4542C13.407 20.6233 13.4914 20.8142 13.5363 21.016C13.5813 21.2178 13.5859 21.4265 13.55 21.6301ZM19.89 18.0001C19.8575 18.251 19.7311 18.4803 19.5363 18.6418C19.3414 18.8032 19.0926 18.8848 18.84 18.8701H5.25C4.99572 18.8874 4.7444 18.8071 4.54739 18.6454C4.35038 18.4837 4.22254 18.2528 4.19 18.0001V3.07006C4.22254 2.81727 4.35038 2.58645 4.54739 2.42475C4.7444 2.26305 4.99572 2.18268 5.25 2.20006H18.84C19.0926 2.18532 19.3414 2.26689 19.5363 2.42834C19.7311 2.58979 19.8575 2.81911 19.89 3.07006V18.0001Z" />

		</g>
		<g id="desktop">
			<path d="M2.3,1.9c-1.1,0-1.9,0.9-1.9,1.9v12.6c0,1.1,0.9,1.9,1.9,1.9h5.5l-0.4,1.9H6.2c-0.5,0-1,0.4-1,1c0,0.5,0.4,1,1,1h11.7c0.5,0,1-0.4,1-1c0-0.5-0.4-1-1-1h-1.2l-0.4-1.9h5.5c1.1,0,1.9-0.9,1.9-1.9V3.8c0-1.1-0.9-1.9-1.9-1.9H2.3z M2.3,13.5V4.8
		c0-0.5,0.4-1,1-1h17.5c0.5,0,1,0.4,1,1v8.7c0,0.5-0.4,1-1,1H3.2C2.7,14.5,2.3,14.1,2.3,13.5z M12,17.4c0.5,0,1-0.4,1-1
		c0-0.5-0.4-1-1-1s-1,0.4-1,1C11,17,11.4,17.4,12,17.4z"/>
		</g>
	</g>

	<g id="navigation">
		<g id="rocket">
			<path d="M20.6598 0.380021C21.5851 0.67218 22.4006 1.2368 22.9998 2.00002C23.8298 3.42002 24.9098 6.46002 20.6398 11.39C20.6398 11.39 15.7298 16.63 9.72978 18.99C9.39181 19.1229 9.02233 19.1539 8.66693 19.0793C8.31153 19.0047 7.98575 18.8276 7.72978 18.57L5.15978 16C4.90267 15.7436 4.72815 15.4161 4.65865 15.0597C4.58915 14.7033 4.62785 14.3343 4.76978 14C6.35715 10.2861 8.61479 6.8963 11.4298 4.00002C15.5998 -0.299979 18.6398 -0.409979 20.6598 0.380021ZM15.6442 8.93881C16.0454 9.20692 16.5172 9.35002 16.9998 9.35002C17.3206 9.35134 17.6385 9.28913 17.9351 9.16698C18.2317 9.04483 18.5012 8.86515 18.7281 8.63831C18.9549 8.41147 19.1346 8.14196 19.2567 7.84533C19.3789 7.5487 19.4411 7.23082 19.4398 6.91002C19.4398 6.42743 19.2967 5.95569 19.0286 5.55443C18.7605 5.15317 18.3794 4.84043 17.9335 4.65576C17.4877 4.47108 16.9971 4.42276 16.5238 4.5169C16.0504 4.61105 15.6157 4.84344 15.2744 5.18468C14.9332 5.52592 14.7008 5.96069 14.6067 6.434C14.5125 6.90731 14.5608 7.39792 14.7455 7.84377C14.9302 8.28962 15.2429 8.6707 15.6442 8.93881ZM5.07967 11.0201C4.78967 11.5201 4.57967 11.9101 4.39967 12.2801C4.38272 12.3156 4.35872 12.3473 4.32914 12.3732C4.29956 12.3992 4.265 12.4188 4.22758 12.431C4.19016 12.4431 4.15066 12.4476 4.11148 12.444C4.07229 12.4404 4.03425 12.4288 3.99967 12.4101L0.569668 11.2301C0.435003 11.2101 0.309421 11.1502 0.209178 11.0581C0.108935 10.966 0.0386448 10.846 0.00740494 10.7135C-0.0238349 10.581 -0.0145861 10.4421 0.0339543 10.3149C0.0824948 10.1878 0.168092 10.0781 0.279668 10.0001L1.56967 8.74008L3.29967 7.00008C3.43421 6.88194 3.59648 6.7998 3.77134 6.76133C3.94621 6.72286 4.12797 6.72931 4.29967 6.78008L6.89967 7.64008C6.9297 7.64676 6.95752 7.66102 6.98047 7.68151C7.00343 7.702 7.02074 7.72803 7.03077 7.75711C7.0408 7.7862 7.04321 7.81737 7.03776 7.84765C7.03232 7.87793 7.0192 7.90631 6.99967 7.93008C6.30159 8.92284 5.66055 9.9545 5.07967 11.0201ZM4.05744 16.5976C4.17311 16.6443 4.2742 16.721 4.35024 16.8199L7.52024 19.9999C7.60605 20.0809 7.67033 20.182 7.70727 20.2941C7.7442 20.4061 7.75263 20.5256 7.73179 20.6418C7.71094 20.7579 7.66148 20.867 7.58788 20.9592C7.51428 21.0514 7.41886 21.1239 7.31024 21.1699C7.31024 21.1699 4.53024 22.5599 3.14024 21.1699C1.75024 19.7799 3.14024 16.9999 3.14024 16.9999C3.1842 16.8832 3.25857 16.7803 3.35563 16.702C3.4527 16.6236 3.56894 16.5726 3.69233 16.5542C3.81572 16.5359 3.94177 16.5508 4.05744 16.5976ZM16.7504 16.43C16.7405 16.3997 16.7231 16.3723 16.6998 16.3505C16.6766 16.3287 16.6482 16.3131 16.6173 16.3051C16.5864 16.2971 16.554 16.2971 16.5231 16.3049C16.4922 16.3127 16.4638 16.3282 16.4404 16.35C15.3104 17.19 14.2604 17.9 13.4404 18.35L12.2304 19.08C12.1708 19.1185 12.1256 19.1757 12.1021 19.2427C12.0785 19.3097 12.078 19.3826 12.1004 19.45L13.4404 22.86C13.4665 22.9957 13.5327 23.1205 13.6305 23.2182C13.7283 23.3158 13.8531 23.3819 13.9889 23.4077C14.1247 23.4336 14.2651 23.4181 14.392 23.3632C14.5188 23.3083 14.6263 23.2166 14.7004 23.1L15.9304 21.74L17.5604 20C17.6686 19.86 17.7414 19.6961 17.7728 19.522C17.8041 19.3479 17.793 19.1688 17.7404 19L16.7504 16.43Z" />
		</g>
	</g>

	<g id="notification">
		<g id="info">
			<path d="M12.1498 10.55C12.543 10.5472 12.9249 10.6815 13.2298 10.93C13.5081 11.1509 13.6732 11.4847 13.6798 11.84V17C13.6058 17.7734 12.924 18.3437 12.1498 18.28C11.3755 18.3437 10.6937 17.7734 10.6198 17V11.84C10.6264 11.4847 10.7914 11.1509 11.0698 10.93C11.3746 10.6815 11.7565 10.5472 12.1498 10.55Z" />
			<path d="M13.6798 7.59001C13.6798 6.74501 12.9948 6.06001 12.1498 6.06001C11.3048 6.06001 10.6198 6.74501 10.6198 7.59001C10.6198 7.99579 10.781 8.38495 11.0679 8.67188C11.3548 8.95881 11.744 9.12001 12.1498 9.12001C12.9948 9.12001 13.6798 8.435 13.6798 7.59001Z" />
			<path d="M1.00977 12.1567C1.00793 18.312 5.99439 23.3045 12.1498 23.31C18.311 23.3045 23.3042 18.3112 23.3098 12.15C23.3042 5.99464 18.3118 1.00817 12.1564 1.01001C6.00106 1.01185 1.01161 6.00131 1.00977 12.1567ZM3.97248 8.77557C5.3417 5.46733 8.56936 3.31001 12.1498 3.31001C17.0313 3.3155 20.9887 7.26848 20.9998 12.15C21.0038 15.7304 18.8501 18.9605 15.5434 20.3335C12.2368 21.7064 8.42857 20.9517 5.89541 18.4214C3.36226 15.8911 2.60325 12.0838 3.97248 8.77557Z" />
		</g>
		<g id="success">
			<path d="M11.1198 16.3664C11.4502 16.3664 11.767 16.2345 11.9998 16L17.4898 10.47C17.8042 10.1556 17.9269 9.69737 17.8119 9.2679C17.6968 8.83843 17.3613 8.50298 16.9319 8.3879C16.5024 8.27283 16.0442 8.39561 15.7298 8.71001L11.3398 13.1C11.2816 13.1586 11.2024 13.1916 11.1198 13.1916C11.0372 13.1916 10.958 13.1586 10.8998 13.1L9.27976 11.48C8.96537 11.1656 8.50713 11.0428 8.07766 11.1579C7.64819 11.273 7.31274 11.6084 7.19766 12.0379C7.08258 12.4674 7.20537 12.9256 7.51976 13.24L10.2398 16C10.4726 16.2345 10.7893 16.3664 11.1198 16.3664Z" />
			<path fill-rule="evenodd" clip-rule="evenodd" d="M12.1498 23.31C5.99439 23.3045 1.00793 18.312 1.00977 12.1567C1.01161 6.00131 6.00106 1.01185 12.1564 1.01001C18.3118 1.00817 23.3042 5.99464 23.3098 12.15C23.3042 18.3112 18.311 23.3045 12.1498 23.31ZM12.1498 3.31001C8.56936 3.31001 5.3417 5.46733 3.97248 8.77557C2.60325 12.0838 3.36226 15.8911 5.89541 18.4214C8.42857 20.9517 12.2368 21.7064 15.5434 20.3335C18.8501 18.9605 21.0038 15.7304 20.9998 12.15C20.9887 7.26848 17.0313 3.3155 12.1498 3.31001Z" />
		</g>
		<g id="warning">
			<path d="M12 5.26509C12.7611 5.18489 13.4491 5.72154 13.5566 6.47925V11.3151C13.4491 12.0728 12.7611 12.6095 12 12.5292C11.2389 12.6095 10.5509 12.0728 10.4434 11.3151V6.46887C10.5559 5.71534 11.2424 5.18445 12 5.26509Z" />
			<path d="M13.5566 16.1613C13.5566 15.3016 12.8597 14.6047 12 14.6047C11.1403 14.6047 10.4434 15.3016 10.4434 16.1613C10.4434 17.021 11.1403 17.7179 12 17.7179C12.8597 17.7179 13.5566 17.021 13.5566 16.1613Z" />
			<path d="M12 23C5.92487 23 1 18.0751 1 12C1 5.92487 5.92487 1 12 1C18.0751 1 23 5.92487 23 12C22.9943 18.0728 18.0728 22.9943 12 23ZM12 3.28302C7.1871 3.28302 3.28493 7.18364 3.28303 11.9965C3.28112 16.8094 7.18019 20.7132 11.9931 20.717C16.806 20.7208 20.7113 16.8233 20.717 12.0104C20.717 7.19444 16.8159 3.28875 12 3.28302Z" />
		</g>
		<g id="error">
			<path d="M12.2317 23.4633C6.02859 23.4633 1 18.4347 1 12.2317C1 6.02859 6.02859 1 12.2317 1C18.4347 1 23.4633 6.02859 23.4633 12.2317C23.458 18.4326 18.4326 23.458 12.2317 23.4633ZM12.2317 3.33833C7.30943 3.33833 3.31917 7.3286 3.31917 12.2508C3.31917 14.2442 3.97355 16.0846 5.0792 17.5692L17.4359 5.00988C15.9718 3.95382 14.1745 3.33084 12.2317 3.32875V3.33833ZM19.3696 6.90985L7.01327 19.4767C8.48011 20.5378 10.2828 21.1633 12.2317 21.1633C17.1539 21.1633 21.1442 17.1731 21.1442 12.2508C21.1442 10.2479 20.4841 8.39897 19.3696 6.90985Z" />
		</g>
	</g>

	<g id="language">
		<g id="germany">
			<path d="M2.62207 15.4782C4.035 19.2861 7.70043 21.9999 12.0001 21.9999C16.2997 21.9999 19.9652 19.2861 21.3781 15.4782L12.0001 14.6086L2.62207 15.4782Z" fill="#FFDA44"/>
			<path d="M12.0001 2C7.70043 2 4.035 4.71375 2.62207 8.52176L12.0001 9.39129L21.3781 8.52172C19.9652 4.71375 16.2997 2 12.0001 2Z" fill="black"/>
			<path d="M2.62199 8.52173C2.22004 9.60505 2 10.7768 2 12C2 13.2232 2.22004 14.3949 2.62199 15.4782H21.378C21.78 14.3949 22 13.2232 22 12C22 10.7768 21.78 9.60505 21.378 8.52173H2.62199Z" fill="#D80027"/>
		</g>
	</g>

	<g id="filter">
		<g id="filter-new">
			<path d="M15.9621 6.25132C16.5136 6.56541 17.2153 6.37609 17.5339 5.82719L19.3302 2.72519C19.6472 2.17404 19.4573 1.47032 18.9061 1.15341C18.3549 0.836492 17.6512 1.02638 17.3343 1.57754L15.538 4.67953C15.2239 5.23105 15.4132 5.93267 15.9621 6.25132Z" />
			<path d="M11.8432 3.42366C11.9945 3.45896 12.1175 3.56861 12.1699 3.71484L16.6108 15.6571C16.6662 15.7989 16.6474 15.959 16.5606 16.0841C16.4739 16.2092 16.3306 16.2829 16.1783 16.2808L1.36696 16.1977C0.803201 16.1921 0.299468 15.8443 0.094508 15.3191C-0.110452 14.7939 0.0245506 14.1968 0.43553 13.8109L11.4214 3.5402C11.5331 3.43225 11.6919 3.38836 11.8432 3.42366Z" />
			<path d="M22.4405 6.68377C22.6909 7.26937 22.4191 7.94702 21.8335 8.19734L18.5069 9.6028C18.1296 9.76473 17.6945 9.71305 17.3656 9.46723C17.0367 9.22141 16.864 8.8188 16.9124 8.41106C16.9608 8.00331 17.2231 7.65238 17.6004 7.49045L20.927 6.07668C21.5126 5.82636 22.1902 6.09816 22.4405 6.68377Z" />
			<path d="M19.5381 10.7671L23.0726 11.3825L23.0476 11.3908C23.4517 11.4606 23.7878 11.7407 23.9294 12.1256C24.071 12.5104 23.9965 12.9416 23.734 13.2566C23.4715 13.5716 23.0608 13.7227 22.6568 13.6529L19.1223 13.0374C18.4954 12.9226 18.0802 12.3213 18.1951 11.6944C18.3099 11.0674 18.9112 10.6523 19.5381 10.7671Z" />
			<path d="M8.3111 21.3288L5.8162 17.8027H2.74747L6.26528 22.7925C6.69392 23.2801 7.42219 23.3637 7.95016 22.9859C8.47814 22.6082 8.63415 21.8919 8.3111 21.3288Z" />
		</g>
	</g>
</svg>

