<svg width="18" height="22" viewBox="0 0 18 22" fill="none" xmlns="http://www.w3.org/2000/svg">
<path fill-rule="evenodd" clip-rule="evenodd" d="M16.0278 2.95122H12.463V1.582C12.3894 0.715836 11.684 0.0387229 10.8148 0H7.17593C6.31756 0.0521211 5.62755 0.725791 5.55556 1.582V2.95122H1.96296C0.878848 2.95122 0 3.82933 0 4.91253V6.04121C0 6.36822 0.265313 6.6333 0.592593 6.6333H17.4074C17.7347 6.6333 18 6.36822 18 6.04121V4.91253C18 4.39075 17.7919 3.89048 17.4218 3.52239C17.0517 3.15431 16.55 2.94876 16.0278 2.95122ZM6.62963 2.95122V2.13709C6.71149 1.51155 7.28002 1.067 7.90741 1.13793H10.0926C10.72 1.067 11.2885 1.51155 11.3704 2.13709V2.95122H6.62963Z" fill="#9EA1A7"/>
<path fill-rule="evenodd" clip-rule="evenodd" d="M16.8426 7.66022H1.22222C1.18127 7.66014 1.14212 7.677 1.11405 7.70679C1.08599 7.73659 1.07151 7.77666 1.07407 7.81749L1.69444 19.8444C1.75832 21.0506 2.75411 21.9968 3.96296 22H14.2222C15.4449 22.001 16.4503 21.0373 16.5 19.8167L16.9907 7.8545C17.0061 7.80813 16.9975 7.75719 16.9679 7.71834C16.9383 7.6795 16.8914 7.65775 16.8426 7.66022ZM6.25926 18.2717C6.29101 18.5541 6.15807 18.8298 5.91717 18.981C5.67628 19.1322 5.37001 19.1322 5.12912 18.981C4.88823 18.8298 4.75528 18.5541 4.78704 18.2717V10.1766C4.75528 9.89416 4.88823 9.61848 5.12912 9.46728C5.37001 9.31608 5.67628 9.31608 5.91717 9.46728C6.15807 9.61848 6.29101 9.89416 6.25926 10.1766V18.2717ZM9.42643 18.981C9.66733 18.8298 9.80027 18.5541 9.76852 18.2717V10.1766C9.80027 9.89416 9.66733 9.61848 9.42643 9.46728C9.18554 9.31608 8.87927 9.31608 8.63838 9.46728C8.39749 9.61848 8.26454 9.89416 8.2963 10.1766V18.2717C8.26454 18.5541 8.39749 18.8298 8.63838 18.981C8.87927 19.1322 9.18554 19.1322 9.42643 18.981ZM13.1944 18.2717C13.2262 18.5541 13.0933 18.8298 12.8524 18.981C12.6115 19.1322 12.3052 19.1322 12.0643 18.981C11.8234 18.8298 11.6905 18.5541 11.7222 18.2717V10.1766C11.7643 9.80219 12.0812 9.51912 12.4583 9.51912C12.8354 9.51912 13.1523 9.80219 13.1944 10.1766V18.2717Z" fill="#9EA1A7"/>
</svg>
