<svg width="12" height="12" viewBox="0 0 12 12" fill="none" xmlns="http://www.w3.org/2000/svg">
<path d="M2.4 1.19216C2.4 1.85057 1.86274 2.38431 1.2 2.38431C0.537258 2.38431 0 1.85057 0 1.19216C0 0.533747 0.537258 0 1.2 0C1.86274 0 2.4 0.533747 2.4 1.19216Z" fill="#9EA1A7"/>
<path d="M2.4 5.99216C2.4 6.65057 1.86274 7.18431 1.2 7.18431C0.537258 7.18431 0 6.65057 0 5.99216C0 5.33375 0.537258 4.8 1.2 4.8C1.86274 4.8 2.4 5.33375 2.4 5.99216Z" fill="#9EA1A7"/>
<path d="M1.2 11.9843C1.86274 11.9843 2.4 11.4506 2.4 10.7922C2.4 10.1337 1.86274 9.6 1.2 9.6C0.537258 9.6 0 10.1337 0 10.7922C0 11.4506 0.537258 11.9843 1.2 11.9843Z" fill="#9EA1A7"/>
<path d="M7.2 1.19216C7.2 1.85057 6.66274 2.38431 6 2.38431C5.33726 2.38431 4.8 1.85057 4.8 1.19216C4.8 0.533747 5.33726 0 6 0C6.66274 0 7.2 0.533747 7.2 1.19216Z" fill="#9EA1A7"/>
<path d="M6 7.18431C6.66274 7.18431 7.2 6.65057 7.2 5.99216C7.2 5.33375 6.66274 4.8 6 4.8C5.33726 4.8 4.8 5.33375 4.8 5.99216C4.8 6.65057 5.33726 7.18431 6 7.18431Z" fill="#9EA1A7"/>
<path d="M7.2 10.7922C7.2 11.4506 6.66274 11.9843 6 11.9843C5.33726 11.9843 4.8 11.4506 4.8 10.7922C4.8 10.1337 5.33726 9.6 6 9.6C6.66274 9.6 7.2 10.1337 7.2 10.7922Z" fill="#9EA1A7"/>
<path d="M10.8 2.38431C11.4627 2.38431 12 1.85057 12 1.19216C12 0.533747 11.4627 0 10.8 0C10.1373 0 9.6 0.533747 9.6 1.19216C9.6 1.85057 10.1373 2.38431 10.8 2.38431Z" fill="#9EA1A7"/>
<path d="M12 5.99216C12 6.65057 11.4627 7.18431 10.8 7.18431C10.1373 7.18431 9.6 6.65057 9.6 5.99216C9.6 5.33375 10.1373 4.8 10.8 4.8C11.4627 4.8 12 5.33375 12 5.99216Z" fill="#9EA1A7"/>
<path d="M10.8 11.9843C11.4627 11.9843 12 11.4506 12 10.7922C12 10.1337 11.4627 9.6 10.8 9.6C10.1373 9.6 9.6 10.1337 9.6 10.7922C9.6 11.4506 10.1373 11.9843 10.8 11.9843Z" fill="#9EA1A7"/>
</svg>
