<?xml version="1.0" encoding="utf-8"?>
<svg version="1.1" id="Layer_1"
	xmlns="http://www.w3.org/2000/svg"
	xmlns:xlink="http://www.w3.org/1999/xlink" x="0px" y="0px" style="enable-background:new 0 0 24 24;" xml:space="preserve">
	<g id="close">
		<path d="M20.3,3.8c-1-1-2.5-1-3.5,0L12,8.6L7.2,3.8c-1-1-2.5-1-3.5,0s-1,2.5,0,3.4L8.5,12l-4.8,4.8c-1,1-1,2.5,0,3.4
		c1,1,2.5,1,3.5,0l4.8-4.8l4.8,4.8c1,1,2.5,1,3.5,0c1-1,1-2.5,0-3.4L15.5,12l4.8-4.8C21.3,6.2,21.3,4.7,20.3,3.8z"/>
	</g>
	<g id="add">
		<path d="M13.3,6.7c0-0.7-0.6-1.3-1.3-1.3S10.7,6,10.7,6.7v4h-4c-0.7,0-1.3,0.6-1.3,1.3s0.6,1.3,1.3,1.3h4v4c0,0.7,0.6,1.3,1.3,1.3
		s1.3-0.6,1.3-1.3v-4h4c0.7,0,1.3-0.6,1.3-1.3s-0.6-1.3-1.3-1.3h-4C13.3,10.7,13.3,6.7,13.3,6.7z"/>
	</g>
	<g id="delete">
		<path d="M20.4,4.5C20.1,4.2,19.6,4,19,4h-3.5V2.6c-0.1-0.9-0.8-1.5-1.6-1.6h-3.6c-1,0.1-1.7,0.7-1.7,1.6V4H5C3.9,4,3,4.9,3,6v1.1
				c0,0.3,0.3,0.6,0.6,0.6h16.8c0.3,0,0.6-0.3,0.6-0.6V5.9C21,5.4,20.8,4.9,20.4,4.5z M14.4,4H9.6V3.2c0.1-0.6,0.7-1.1,1.3-1h2.2
				c0.6-0.1,1.2,0.4,1.3,1V4z"/>
		<path d="M19.8,8.7H4.1H4v0.1l0.6,12C4.7,22,5.7,23,6.9,23h10.3c1.2,0,2.2-1,2.3-2.2l0.5-12V8.7C19.9,8.7,19.8,8.7,19.8,8.7z
				 M9.2,11.2v8.1c0,0.3-0.1,0.6-0.3,0.7c-0.2,0.2-0.5,0.2-0.8,0c-0.2-0.2-0.4-0.4-0.3-0.7v-8.1c0-0.3,0.1-0.6,0.3-0.7
				c0.2-0.2,0.5-0.2,0.8,0C9.1,10.7,9.3,10.9,9.2,11.2z M12.3,20c-0.2,0.2-0.5,0.2-0.8,0c-0.2-0.1-0.3-0.4-0.3-0.7v-8.1
				c-0.1-0.3,0.1-0.5,0.3-0.7c0.3-0.2,0.6-0.2,0.8,0c0.2,0.1,0.3,0.4,0.3,0.7v8.1C12.7,19.6,12.5,19.8,12.3,20z M16.1,19.3
				c0,0.3-0.1,0.6-0.3,0.7c-0.2,0.2-0.5,0.2-0.8,0c-0.2-0.2-0.4-0.4-0.3-0.7v-8.1c0-0.4,0.4-0.7,0.7-0.7c0.4,0,0.7,0.3,0.7,0.7V19.3
				z"/>
	</g>
  <g id="mobile">
    <path d="M16.7,0.4H7.3C6,0.4,5,1.4,5,2.7v18.7c0,1.3,1,2.3,2.3,2.3h9.4c1.3,0,2.3-1,2.3-2.3V2.7C19,1.4,18,0.4,16.7,0.4z M12,22.6
	c-0.6,0-1.2-0.5-1.2-1.2c0-0.6,0.5-1.2,1.2-1.2c0.6,0,1.2,0.5,1.2,1.2C13.2,22.1,12.6,22.6,12,22.6z M16.7,19.1H7.3V3.9h9.4V19.1z
	 M16.1,2.7c-0.3,0-0.6-0.3-0.6-0.6s0.3-0.6,0.6-0.6s0.6,0.3,0.6,0.6S16.4,2.7,16.1,2.7z"/>
  </g>
  <g id="desktop">
    <path d="M2.3,1.9c-1.1,0-1.9,0.9-1.9,1.9v12.6c0,1.1,0.9,1.9,1.9,1.9h5.5l-0.4,1.9H6.2c-0.5,0-1,0.4-1,1c0,0.5,0.4,1,1,1h11.7c0.5,0,1-0.4,1-1c0-0.5-0.4-1-1-1h-1.2l-0.4-1.9h5.5c1.1,0,1.9-0.9,1.9-1.9V3.8c0-1.1-0.9-1.9-1.9-1.9H2.3z M2.3,13.5V4.8
		c0-0.5,0.4-1,1-1h17.5c0.5,0,1,0.4,1,1v8.7c0,0.5-0.4,1-1,1H3.2C2.7,14.5,2.3,14.1,2.3,13.5z M12,17.4c0.5,0,1-0.4,1-1
		c0-0.5-0.4-1-1-1s-1,0.4-1,1C11,17,11.4,17.4,12,17.4z"/>
  </g>
  <g id="drag">
    <path d="M2.4 1.19216C2.4 1.85057 1.86274 2.38431 1.2 2.38431C0.537258 2.38431 0 1.85057 0 1.19216C0 0.533747 0.537258 0 1.2 0C1.86274 0 2.4 0.533747 2.4 1.19216Z"/>
    <path d="M2.4 5.99216C2.4 6.65057 1.86274 7.18431 1.2 7.18431C0.537258 7.18431 0 6.65057 0 5.99216C0 5.33375 0.537258 4.8 1.2 4.8C1.86274 4.8 2.4 5.33375 2.4 5.99216Z"/>
    <path d="M1.2 11.9843C1.86274 11.9843 2.4 11.4506 2.4 10.7922C2.4 10.1337 1.86274 9.6 1.2 9.6C0.537258 9.6 0 10.1337 0 10.7922C0 11.4506 0.537258 11.9843 1.2 11.9843Z"/>
    <path d="M7.2 1.19216C7.2 1.85057 6.66274 2.38431 6 2.38431C5.33726 2.38431 4.8 1.85057 4.8 1.19216C4.8 0.533747 5.33726 0 6 0C6.66274 0 7.2 0.533747 7.2 1.19216Z"/>
    <path d="M6 7.18431C6.66274 7.18431 7.2 6.65057 7.2 5.99216C7.2 5.33375 6.66274 4.8 6 4.8C5.33726 4.8 4.8 5.33375 4.8 5.99216C4.8 6.65057 5.33726 7.18431 6 7.18431Z"/>
    <path d="M7.2 10.7922C7.2 11.4506 6.66274 11.9843 6 11.9843C5.33726 11.9843 4.8 11.4506 4.8 10.7922C4.8 10.1337 5.33726 9.6 6 9.6C6.66274 9.6 7.2 10.1337 7.2 10.7922Z"/>
    <path d="M10.8 2.38431C11.4627 2.38431 12 1.85057 12 1.19216C12 0.533747 11.4627 0 10.8 0C10.1373 0 9.6 0.533747 9.6 1.19216C9.6 1.85057 10.1373 2.38431 10.8 2.38431Z"/>
    <path d="M12 5.99216C12 6.65057 11.4627 7.18431 10.8 7.18431C10.1373 7.18431 9.6 6.65057 9.6 5.99216C9.6 5.33375 10.1373 4.8 10.8 4.8C11.4627 4.8 12 5.33375 12 5.99216Z"/>
    <path d="M10.8 11.9843C11.4627 11.9843 12 11.4506 12 10.7922C12 10.1337 11.4627 9.6 10.8 9.6C10.1373 9.6 9.6 10.1337 9.6 10.7922C9.6 11.4506 10.1373 11.9843 10.8 11.9843Z"/>
  </g>
  <g id="loader">
    <ellipse opacity="0.7" rx="3.48584" ry="3.4859" transform="matrix(0.80444 0.594034 -0.593986 0.804475 11.925 4.87503)"/>
    <ellipse rx="3.48584" ry="3.4859" transform="matrix(0.80444 0.594034 -0.593986 0.804475 20.1242 10.9278)"/>
    <ellipse opacity="0.4" rx="3.48584" ry="3.4859" transform="matrix(0.80444 0.594034 -0.593986 0.804475 5.87224 13.0723)"/>
    <ellipse opacity="0.3" rx="3.48584" ry="3.4859" transform="matrix(0.80444 0.594034 -0.593986 0.804475 14.0695 19.125)"/>
  </g>
</svg>
