<svg width="14" height="14" viewBox="0 0 14 14" fill="none" xmlns="http://www.w3.org/2000/svg">
<path d="M8.33337 1.66671C8.33337 0.930328 7.73642 0.333374 7.00004 0.333374C6.26366 0.333374 5.66671 0.930328 5.66671 1.66671V5.66671H1.66671C0.930328 5.66671 0.333374 6.26366 0.333374 7.00004C0.333374 7.73642 0.930328 8.33337 1.66671 8.33337H5.66671V12.3334C5.66671 13.0698 6.26366 13.6667 7.00004 13.6667C7.73642 13.6667 8.33337 13.0698 8.33337 12.3334V8.33337H12.3334C13.0698 8.33337 13.6667 7.73642 13.6667 7.00004C13.6667 6.26366 13.0698 5.66671 12.3334 5.66671H8.33337V1.66671Z" fill="#17B497"/>
</svg>
