<?xml version="1.0" encoding="utf-8"?>
      <svg version="1.1"
        xmlns="http://www.w3.org/2000/svg"
        xmlns:xlink="http://www.w3.org/1999/xlink">
          <symbol id="add"><path d="M3 9.82879H9.74556V3H14.2899V9.82879H21V14.1712H14.2899V21H9.74556V14.1712H3V9.82879Z" /></symbol>
<symbol id="cart"><path d="M17.3333 18.3851C18.0693 18.3851 18.6667 18.971 18.6667 19.6929C18.6667 20.4148 18.0693 21 17.3333 21C16.5973 21 16 20.4148 16 19.6929C16 18.971 16.5973 18.3851 17.3333 18.3851ZM10 18.3851C10.736 18.3851 11.3333 18.971 11.3333 19.6929C11.3333 20.4148 10.736 21 10 21C9.264 21 8.66667 20.4148 8.66667 19.6929C8.66667 18.971 9.264 18.3851 10 18.3851ZM22 6.61559L18.7693 17.091L18.69 17.0707L18.6873 17.0779H8.66667L4.85133 5.30779H2V4H5.68733L9.55533 15.7688H17.836L20.1953 7.92272H8.41667L8 6.61559H21.3333H22Z" /></symbol>
<symbol id="cart-add"><path d="M17.3333 18.3845C18.0693 18.3845 18.6667 18.9704 18.6667 19.6929C18.6667 20.4148 18.0693 21 17.3333 21C16.5973 21 16 20.4148 16 19.6929C16 18.9704 16.5973 18.3845 17.3333 18.3845ZM10 18.3845C10.736 18.3845 11.3333 18.9704 11.3333 19.6929C11.3333 20.4148 10.736 21 10 21C9.264 21 8.66667 20.4148 8.66667 19.6929C8.66667 18.9704 9.264 18.3845 10 18.3845ZM18.7693 17.0905L18.69 17.0702L18.6873 17.0774H8.66667L4.852 5.30774H2V4H5.68733L9.55533 15.769H17.836L20.1953 7.92388H8.52067L8 6.61614H21.3333H22L18.7693 17.0905ZM13.3333 14.4626V12.501H11.3333V11.1932H13.3333V9.23162H14.6667V11.1932H16.6667V12.501H14.6667V14.4626H13.3333Z" /></symbol>
<symbol id="close"><path d="M20.3,3.8c-1-1-2.5-1-3.5,0L12,8.6L7.2,3.8c-1-1-2.5-1-3.5,0s-1,2.5,0,3.4L8.5,12l-4.8,4.8c-1,1-1,2.5,0,3.4
  c1,1,2.5,1,3.5,0l4.8-4.8l4.8,4.8c1,1,2.5,1,3.5,0c1-1,1-2.5,0-3.4L15.5,12l4.8-4.8C21.3,6.2,21.3,4.7,20.3,3.8z"/></symbol>
<symbol id="dropdown"><g style="transform-origin: center;transform: rotate(90deg)"><path d="M17.3954 7.47054L12.001 13.133L6.60521 7.46974C6.00932 6.84342 5.04338 6.84342 4.44749 7.46974C3.85084 8.09525 3.85084 9.1084 4.44749 9.73472L10.9214 16.5305C11.5173 17.156 12.4825 17.1568 13.0792 16.5313L19.5531 9.73552C20.149 9.1092 20.149 8.09605 19.5531 7.46974C18.9572 6.84422 17.9912 6.84502 17.3954 7.47054Z" /></g></symbol>
<symbol id="image">
<path d="M7.075 11.85H16.425L13.325 7.775L10.95 10.8L9.375 8.875L7.075 11.85ZM6.05 15.5C5.55 15.5 5.125 15.325 4.775 14.975C4.425 14.625 4.25 14.2 4.25 13.7V2.3C4.25 1.8 4.425 1.375 4.775 1.025C5.125 0.675 5.55 0.5 6.05 0.5H17.45C17.95 0.5 18.375 0.675 18.725 1.025C19.075 1.375 19.25 1.8 19.25 2.3V13.7C19.25 14.2 19.075 14.625 18.725 14.975C18.375 15.325 17.95 15.5 17.45 15.5H6.05ZM6.05 14H17.45C17.5167 14 17.5833 13.9667 17.65 13.9C17.7167 13.8333 17.75 13.7667 17.75 13.7V2.3C17.75 2.23333 17.7167 2.16667 17.65 2.1C17.5833 2.03333 17.5167 2 17.45 2H6.05C5.98333 2 5.91667 2.03333 5.85 2.1C5.78333 2.16667 5.75 2.23333 5.75 2.3V13.7C5.75 13.7667 5.78333 13.8333 5.85 13.9C5.91667 13.9667 5.98333 14 6.05 14ZM2.55 19C2.05 19 1.625 18.825 1.275 18.475C0.925 18.125 0.75 17.7 0.75 17.2V4.3H2.25V17.2C2.25 17.2667 2.28333 17.3333 2.35 17.4C2.41667 17.4667 2.48333 17.5 2.55 17.5H15.45V19H2.55Z"/>
  </symbol>
<symbol id="minus"><path d="M3 10H9.74556H14.2899H21V14H14.2899H9.74556H3V10Z" /></symbol>
<symbol id="rocket"><path d="M20.6598 0.380021C21.5851 0.67218 22.4006 1.2368 22.9998 2.00002C23.8298 3.42002 24.9098 6.46002 20.6398 11.39C20.6398 11.39 15.7298 16.63 9.72978 18.99C9.39181 19.1229 9.02233 19.1539 8.66693 19.0793C8.31153 19.0047 7.98575 18.8276 7.72978 18.57L5.15978 16C4.90267 15.7436 4.72815 15.4161 4.65865 15.0597C4.58915 14.7033 4.62785 14.3343 4.76978 14C6.35715 10.2861 8.61479 6.8963 11.4298 4.00002C15.5998 -0.299979 18.6398 -0.409979 20.6598 0.380021ZM15.6442 8.93881C16.0454 9.20692 16.5172 9.35002 16.9998 9.35002C17.3206 9.35134 17.6385 9.28913 17.9351 9.16698C18.2317 9.04483 18.5012 8.86515 18.7281 8.63831C18.9549 8.41147 19.1346 8.14196 19.2567 7.84533C19.3789 7.5487 19.4411 7.23082 19.4398 6.91002C19.4398 6.42743 19.2967 5.95569 19.0286 5.55443C18.7605 5.15317 18.3794 4.84043 17.9335 4.65576C17.4877 4.47108 16.9971 4.42276 16.5238 4.5169C16.0504 4.61105 15.6157 4.84344 15.2744 5.18468C14.9332 5.52592 14.7008 5.96069 14.6067 6.434C14.5125 6.90731 14.5608 7.39792 14.7455 7.84377C14.9302 8.28962 15.2429 8.6707 15.6442 8.93881ZM5.07967 11.0201C4.78967 11.5201 4.57967 11.9101 4.39967 12.2801C4.38272 12.3156 4.35872 12.3473 4.32914 12.3732C4.29956 12.3992 4.265 12.4188 4.22758 12.431C4.19016 12.4431 4.15066 12.4476 4.11148 12.444C4.07229 12.4404 4.03425 12.4288 3.99967 12.4101L0.569668 11.2301C0.435003 11.2101 0.309421 11.1502 0.209178 11.0581C0.108935 10.966 0.0386448 10.846 0.00740494 10.7135C-0.0238349 10.581 -0.0145861 10.4421 0.0339543 10.3149C0.0824948 10.1878 0.168092 10.0781 0.279668 10.0001L1.56967 8.74008L3.29967 7.00008C3.43421 6.88194 3.59648 6.7998 3.77134 6.76133C3.94621 6.72286 4.12797 6.72931 4.29967 6.78008L6.89967 7.64008C6.9297 7.64676 6.95752 7.66102 6.98047 7.68151C7.00343 7.702 7.02074 7.72803 7.03077 7.75711C7.0408 7.7862 7.04321 7.81737 7.03776 7.84765C7.03232 7.87793 7.0192 7.90631 6.99967 7.93008C6.30159 8.92284 5.66055 9.9545 5.07967 11.0201ZM4.05744 16.5976C4.17311 16.6443 4.2742 16.721 4.35024 16.8199L7.52024 19.9999C7.60605 20.0809 7.67033 20.182 7.70727 20.2941C7.7442 20.4061 7.75263 20.5256 7.73179 20.6418C7.71094 20.7579 7.66148 20.867 7.58788 20.9592C7.51428 21.0514 7.41886 21.1239 7.31024 21.1699C7.31024 21.1699 4.53024 22.5599 3.14024 21.1699C1.75024 19.7799 3.14024 16.9999 3.14024 16.9999C3.1842 16.8832 3.25857 16.7803 3.35563 16.702C3.4527 16.6236 3.56894 16.5726 3.69233 16.5542C3.81572 16.5359 3.94177 16.5508 4.05744 16.5976ZM16.7504 16.43C16.7405 16.3997 16.7231 16.3723 16.6998 16.3505C16.6766 16.3287 16.6482 16.3131 16.6173 16.3051C16.5864 16.2971 16.554 16.2971 16.5231 16.3049C16.4922 16.3127 16.4638 16.3282 16.4404 16.35C15.3104 17.19 14.2604 17.9 13.4404 18.35L12.2304 19.08C12.1708 19.1185 12.1256 19.1757 12.1021 19.2427C12.0785 19.3097 12.078 19.3826 12.1004 19.45L13.4404 22.86C13.4665 22.9957 13.5327 23.1205 13.6305 23.2182C13.7283 23.3158 13.8531 23.3819 13.9889 23.4077C14.1247 23.4336 14.2651 23.4181 14.392 23.3632C14.5188 23.3083 14.6263 23.2166 14.7004 23.1L15.9304 21.74L17.5604 20C17.6686 19.86 17.7414 19.6961 17.7728 19.522C17.8041 19.3479 17.793 19.1688 17.7404 19L16.7504 16.43Z" /></symbol>
<symbol id="search"><path d="M16.7485 15.2635L21.6724 20.212V20.1945C21.9562 20.4628 22.0664 20.859 21.9603 21.2287C21.8541 21.5983 21.5484 21.8829 21.1621 21.9715C20.7759 22.0601 20.3704 21.9386 20.1038 21.6545L15.1436 16.6849C13.7435 17.6394 12.071 18.1497 10.3577 18.1449C6.44091 18.1472 3.04866 15.5184 2.19948 11.8228C1.3503 8.12723 3.27235 4.35772 6.82191 2.75737C10.3715 1.15701 14.5948 2.15578 16.9789 5.15935C19.363 8.16291 19.2672 12.3643 16.7485 15.2635ZM16.5307 10.0727C16.5307 6.7776 13.7669 4.10637 10.3577 4.10637C6.9484 4.10637 4.18465 6.7776 4.18465 10.0727C4.18465 13.3679 6.9484 16.0391 10.3577 16.0391C13.7669 16.0391 16.5307 13.3679 16.5307 10.0727Z" /></symbol>
      </svg>