<?xml version="1.0" encoding="utf-8"?>
<svg width="121" height="50" viewBox="0 0 121 50"
    xmlns="http://www.w3.org/2000/svg">


    <style>
        path { fill: black; }
        @media (prefers-color-scheme: dark) {
            path { fill: white; }
        }
    </style>

    <g id="logo">
        <path d="M17.2561 46.5427C17.142 46.626 17.0042 46.7127 16.8629 46.8113C16.7223 46.9048 16.5876 47.007 16.4596 47.1172C16.342 47.2145 16.2433 47.3326 16.1685 47.4656C16.1043 47.589 16.0873 47.7317 16.1209 47.8667C16.1209 47.8939 16.1345 47.9177 16.1413 47.9432L16.1668 48.0163L16.1958 48.0893L16.2264 48.1607C16.1345 48.2967 16.0562 48.4377 15.9796 48.5686C15.9111 48.6932 15.8325 48.812 15.7448 48.9238C15.663 49.0266 15.5595 49.1101 15.4418 49.1686C15.3023 49.2302 15.1498 49.257 14.9976 49.2467C14.824 49.2394 14.6523 49.2085 14.487 49.155C14.3233 49.1019 14.1653 49.0324 14.0156 48.9476C13.8595 48.8589 13.7094 48.7601 13.5663 48.6519C13.4199 48.5431 13.2752 48.4258 13.1357 48.312C13.1357 48.2933 13.1357 48.2763 13.1238 48.2593C13.1119 48.2423 13.1238 48.2253 13.1119 48.2066C13.0999 48.1879 13.1119 48.1726 13.0982 48.1539C13.0846 48.1352 13.0863 48.1182 13.0829 48.1012C13.0424 47.9752 12.9852 47.8551 12.9127 47.7443C12.8367 47.6363 12.7494 47.5366 12.6523 47.4469C12.5543 47.3566 12.4503 47.2732 12.3409 47.1971C12.232 47.1223 12.1179 47.0509 12.0005 46.9863C12.0011 46.9897 12.0011 46.9931 12.0005 46.9965V47.0067V47.0169V47.0271L12.0175 47.09C12.0175 47.1104 12.0294 47.1308 12.0362 47.1529C12.043 47.175 12.0481 47.1954 12.055 47.2175C12.0618 47.2396 12.0686 47.2599 12.0771 47.282C12.203 47.6214 12.3772 47.9408 12.5945 48.2304C12.7986 48.5167 13.0395 48.7749 13.311 48.9986C13.5755 49.2174 13.8694 49.3982 14.1841 49.5357C14.4927 49.6715 14.8228 49.752 15.1593 49.7736C15.4834 49.7944 15.8079 49.7397 16.1073 49.6138C16.4041 49.4857 16.6665 49.2895 16.8731 49.0411C17.098 48.7698 17.2575 48.4506 17.3395 48.108C17.4325 47.7121 17.4354 47.3003 17.348 46.903L17.2612 46.5427" />
        <path d="M3.88233 29.8394L3.77681 29.8887L3.67299 29.9431L3.56918 30.0026L3.46706 30.0689C3.27814 30.193 3.10284 30.3153 2.93776 30.4462C2.77297 30.5741 2.61874 30.7151 2.47653 30.8677C2.32366 31.0322 2.18688 31.2109 2.06807 31.4014C1.92695 31.6261 1.80456 31.862 1.70215 32.1067C2.02564 32.0615 2.35386 32.0615 2.67736 32.1067C3.0219 32.1544 3.35918 32.2446 3.6815 32.3752C4.0389 32.5206 4.38097 32.7011 4.70267 32.914C5.06367 33.1554 5.40511 33.4247 5.72383 33.7196L4.36228 29.6797L4.23974 29.7103L4.1189 29.746L3.99806 29.7885L3.87893 29.8377" />
        <path d="M4.99023 29.6201L6.33306 33.5529L9.31656 33.5971C9.02681 33.0132 8.69163 32.4529 8.31412 31.9213C7.99664 31.4725 7.63331 31.0579 7.22999 30.684C6.89673 30.3732 6.51937 30.1132 6.11011 29.9124C5.76037 29.7409 5.37938 29.642 4.99023 29.6218" />
        <path d="M6.7583 34.7937C7.24973 35.3797 7.69957 35.9993 8.10453 36.6479C8.57143 37.3928 8.99589 38.1634 9.37588 38.956C9.78435 39.8057 10.1707 40.7167 10.5298 41.6906C10.8889 42.6644 11.2259 43.7165 11.5254 44.8144C11.5476 44.3368 11.5527 43.8456 11.5442 43.3459C11.5356 42.8463 11.5101 42.3381 11.4676 41.8248C11.425 41.3116 11.3706 40.7932 11.2974 40.2714C11.2242 39.7497 11.1272 39.2279 11.0268 38.7044C10.9541 38.3532 10.8759 38.0099 10.7919 37.6745C10.7085 37.3346 10.6217 37.0133 10.523 36.6938C10.4243 36.3743 10.329 36.065 10.2252 35.7659C10.1213 35.4667 10.0107 35.1761 9.90008 34.894L6.7583 34.7937Z" />
        <path d="M0 5.83984C0.0862316 6.64771 0.182675 7.4652 0.28933 8.29233C0.395985 9.11945 0.512284 9.95621 0.638227 10.8026C0.76644 11.6456 0.904864 12.4993 1.0535 13.3638C1.20214 14.2284 1.36155 15.0991 1.53175 15.9761C1.75867 17.1239 1.99467 18.2473 2.23975 19.3463C2.48483 20.4454 2.74409 21.5218 3.01754 22.5755C3.28871 23.6281 3.57237 24.6479 3.86851 25.6348C4.16464 26.6216 4.46419 27.5847 4.76713 28.524C4.89944 28.5034 5.03317 28.4931 5.16709 28.4934C5.30338 28.4951 5.43935 28.5071 5.57385 28.5291C5.71289 28.5523 5.84999 28.5858 5.98402 28.6294C6.12435 28.6769 6.26137 28.7337 6.39419 28.7994C6.07876 28.0572 5.76957 27.2952 5.46663 26.5134C5.16368 25.7316 4.86868 24.9334 4.58162 24.1187C4.29569 23.3029 4.01658 22.469 3.74427 21.617C3.47196 20.7649 3.20532 19.901 2.94435 19.0251C2.60397 17.8739 2.28911 16.7296 1.99978 15.592C1.71045 14.4544 1.44381 13.3361 1.19987 12.237C0.955922 11.1391 0.734103 10.0548 0.534409 8.98405C0.334715 7.91332 0.156578 6.86525 0 5.83984Z" />
        <path d="M26.5858 22.6348C26.4156 22.6637 26.2352 22.696 26.0599 22.7334C25.8846 22.7707 25.7195 22.8098 25.5391 22.854C25.3587 22.8982 25.1987 22.9458 25.0285 22.9951C24.8583 23.0444 24.6881 23.1005 24.5179 23.165L23.958 28.155C24.5145 27.5257 25.106 26.9282 25.7297 26.3653C26.324 25.827 26.9491 25.3237 27.6019 24.8578C28.2305 24.4074 28.8858 23.9954 29.5642 23.6239C30.2202 23.2673 30.8977 22.9517 31.5929 22.679C31.2086 22.5612 30.8153 22.4754 30.4169 22.4223C30.0299 22.3715 29.6396 22.3487 29.2493 22.3543C28.8528 22.3543 28.4477 22.3883 28.0239 22.4342C27.6002 22.4801 27.1508 22.5464 26.676 22.6195H26.6522H26.6301H26.6079H26.5858" />
        <path d="M22.3158 30.2183L15.0605 33.8214C14.9618 34.2213 14.8801 34.6264 14.8154 35.0365C14.7507 35.4467 14.7025 35.8631 14.6707 36.2857C14.6384 36.7072 14.6248 37.1355 14.6316 37.5604C14.6384 37.9853 14.6605 38.4238 14.7048 38.8555C14.77 39.4909 14.878 40.1211 15.0281 40.742C15.1739 41.3446 15.3616 41.9364 15.5898 42.513C15.8128 43.0748 16.0756 43.62 16.3761 44.1446C16.6704 44.6572 17.0014 45.148 17.3666 45.613C17.4228 42.7222 17.9192 39.8568 18.8388 37.1151C19.2629 35.8543 19.7776 34.6257 20.379 33.4389C20.9452 32.3217 21.5919 31.247 22.3141 30.2234" />
        <path opacity="0.7" d="M20.1289 0C20.3729 0.922906 20.5688 1.85778 20.7161 2.80089C20.8727 3.77985 20.9901 4.79619 21.0786 5.84992C21.1671 6.90366 21.2318 8.02198 21.2761 9.16749C21.3203 10.313 21.3475 11.5333 21.368 12.7757C21.4156 15.6649 21.1978 17.9917 20.8182 19.9326C20.4987 21.6254 19.9722 23.2727 19.2507 24.8375C18.6686 26.0369 18.0238 27.205 17.319 28.337C16.6927 29.4009 16.143 30.4002 15.8009 31.5661C15.789 31.5967 15.7771 31.6256 15.7652 31.6545C15.7533 31.6834 15.7396 31.714 15.7277 31.7429L15.692 31.8313C15.6801 31.8619 15.6682 31.8908 15.6562 31.9213L22.5185 28.6276C22.8691 26.4317 23.0954 24.3786 23.2197 22.4547C23.3422 20.5852 23.3728 18.8414 23.3405 17.2184C23.3065 15.631 23.2112 14.1591 23.0767 12.7995C22.9423 11.4398 22.7755 10.2348 22.59 9.1233C22.4504 8.28201 22.2904 7.45942 22.1151 6.65552C21.9398 5.85162 21.7475 5.07832 21.5399 4.31691C21.3322 3.5555 21.111 2.82469 20.8744 2.10747C20.6378 1.39025 20.391 0.679828 20.1289 0Z" />
    </g>
    <g id="text">
        <path d="M46.7077 38.3779C42.0223 38.3779 39.9136 36.0393 39.9136 32.9971L40.1484 32.7625H42.96L43.1949 32.9971C43.1949 34.6338 44.1327 35.5702 46.9392 35.5702C49.0479 35.5702 50.2188 34.8683 50.2188 33.4644C50.2188 31.8261 49.281 31.3587 46.0014 30.8913C42.7218 30.4239 40.145 29.2546 40.145 25.9795C40.145 23.6409 42.0172 21.5352 46.4694 21.5352C50.9217 21.5352 52.7938 23.6409 52.7938 26.4469L52.5641 26.6832H49.7525L49.5176 26.4486C49.5176 25.0448 48.8147 24.3428 46.238 24.3428C44.1293 24.3428 43.4264 25.0448 43.4264 25.9812C43.4264 27.3851 44.3641 27.8508 47.6438 28.3198C50.9234 28.7889 53.5002 30.1894 53.5002 33.4661C53.5002 36.0308 51.6263 38.3779 46.7077 38.3779Z" />
        <path d="M61.4653 38.378C59.3566 38.378 58.4205 37.2086 58.4205 37.2086H58.1856V42.5895L57.9508 42.8291H55.1392L54.9043 42.5946V26.6832L55.1392 26.4487H57.7159L57.9508 26.6832L58.1856 27.3851H58.4205C58.4205 27.3851 59.3583 26.2158 61.4653 26.2158C64.2769 26.2158 66.6187 28.5544 66.6187 32.2986C66.6187 36.0427 64.2752 38.378 61.4653 38.378ZM60.7624 29.0201C58.8902 29.0201 58.1856 30.424 58.1856 32.2952C58.1856 34.1664 58.8885 35.5703 60.7624 35.5703C62.6362 35.5703 63.3391 34.1613 63.3391 32.2918C63.3391 30.4223 62.6362 29.0201 60.7624 29.0201Z" />
        <path d="M75.5183 29.2547H73.8793C72.0072 29.2547 71.3026 30.1912 71.3026 32.2953V37.9038L71.0677 38.1384H68.2578L68.0298 37.9106V26.6833L68.2647 26.4487H70.8414L71.0763 26.6833L71.3111 27.3852H71.546C71.546 27.3852 72.014 26.4487 74.1227 26.4487H75.5183L75.7532 26.6833V29.0219L75.5183 29.2547Z"/>
        <path d="M84.186 38.378C83.2483 40.7166 82.3139 42.1171 79.0325 42.1171H77.8616L77.6267 41.8825V39.5473L77.8616 39.3128H79.0325C80.2035 39.3128 80.4384 39.0782 80.6715 38.3763V38.1418L76.9272 29.0185V26.6833L77.1621 26.4487H79.2623L79.5006 26.6833L82.3122 34.6373H82.5471L85.3587 26.6833L85.5935 26.4487H87.7022L87.9422 26.6833V29.0219L84.186 38.378Z" />
        <path d="M99.4136 38.1434H98.0078L97.5398 37.9089L94.2602 34.3993H94.0253L92.6195 35.8031L92.3846 36.2705V37.9089L92.1497 38.1434H89.3399L89.105 37.9089V22.0009L89.3399 21.7664H92.1515L92.3863 22.0009V31.3587H92.6212L97.3032 26.6832L97.7713 26.4487H99.1754L99.4136 26.6832V29.0218L96.602 31.8295V32.0641L99.6468 35.5737V37.9123L99.4136 38.1434Z" />
        <path d="M111.599 33.2316L111.365 33.4662H104.097L103.862 33.7007C103.862 34.1681 104.33 35.5702 106.204 35.5702C106.907 35.5702 107.61 35.3357 107.843 34.8683L108.078 34.6338H110.89L111.125 34.8683C110.89 36.2722 109.719 38.3779 106.206 38.3779C102.223 38.3779 100.35 35.5702 100.35 32.2952C100.35 29.0201 102.222 26.2124 105.966 26.2124C109.71 26.2124 111.582 29.0201 111.582 32.2952L111.599 33.2316ZM108.085 30.893C108.085 30.6585 107.85 29.0235 105.976 29.0235C104.102 29.0235 103.868 30.6602 103.868 30.893L104.102 31.1276H107.847L108.085 30.893Z" />
        <path d="M120.73 29.2547H119.088C117.216 29.2547 116.511 30.1912 116.511 32.2953V37.9038L116.276 38.1384H113.472L113.237 37.9038V26.6833L113.472 26.4487H116.048L116.283 26.6833L116.518 27.3852H116.753C116.753 27.3852 117.221 26.4487 119.33 26.4487H120.736L120.96 26.6833V29.0219L120.73 29.2547Z" />

    </g>
</svg>
