<?xml version="1.0" encoding="utf-8"?>
<svg version="1.1" id="Layer_1"
	xmlns="http://www.w3.org/2000/svg"
	xmlns:xlink="http://www.w3.org/1999/xlink" x="0px" y="0px" style="enable-background:new 0 0 24 24;" xml:space="preserve">
	<g id="close">
		<path d="M20.3,3.8c-1-1-2.5-1-3.5,0L12,8.6L7.2,3.8c-1-1-2.5-1-3.5,0s-1,2.5,0,3.4L8.5,12l-4.8,4.8c-1,1-1,2.5,0,3.4
		c1,1,2.5,1,3.5,0l4.8-4.8l4.8,4.8c1,1,2.5,1,3.5,0c1-1,1-2.5,0-3.4L15.5,12l4.8-4.8C21.3,6.2,21.3,4.7,20.3,3.8z"/>
	</g>
	<g id="add">
		<path d="M13.3,6.7c0-0.7-0.6-1.3-1.3-1.3S10.7,6,10.7,6.7v4h-4c-0.7,0-1.3,0.6-1.3,1.3s0.6,1.3,1.3,1.3h4v4c0,0.7,0.6,1.3,1.3,1.3
		s1.3-0.6,1.3-1.3v-4h4c0.7,0,1.3-0.6,1.3-1.3s-0.6-1.3-1.3-1.3h-4C13.3,10.7,13.3,6.7,13.3,6.7z"/>
	</g>
	<g id="delete">
		<path d="M20.4,4.5C20.1,4.2,19.6,4,19,4h-3.5V2.6c-0.1-0.9-0.8-1.5-1.6-1.6h-3.6c-1,0.1-1.7,0.7-1.7,1.6V4H5C3.9,4,3,4.9,3,6v1.1
				c0,0.3,0.3,0.6,0.6,0.6h16.8c0.3,0,0.6-0.3,0.6-0.6V5.9C21,5.4,20.8,4.9,20.4,4.5z M14.4,4H9.6V3.2c0.1-0.6,0.7-1.1,1.3-1h2.2
				c0.6-0.1,1.2,0.4,1.3,1V4z"/>
		<path d="M19.8,8.7H4.1H4v0.1l0.6,12C4.7,22,5.7,23,6.9,23h10.3c1.2,0,2.2-1,2.3-2.2l0.5-12V8.7C19.9,8.7,19.8,8.7,19.8,8.7z
				 M9.2,11.2v8.1c0,0.3-0.1,0.6-0.3,0.7c-0.2,0.2-0.5,0.2-0.8,0c-0.2-0.2-0.4-0.4-0.3-0.7v-8.1c0-0.3,0.1-0.6,0.3-0.7
				c0.2-0.2,0.5-0.2,0.8,0C9.1,10.7,9.3,10.9,9.2,11.2z M12.3,20c-0.2,0.2-0.5,0.2-0.8,0c-0.2-0.1-0.3-0.4-0.3-0.7v-8.1
				c-0.1-0.3,0.1-0.5,0.3-0.7c0.3-0.2,0.6-0.2,0.8,0c0.2,0.1,0.3,0.4,0.3,0.7v8.1C12.7,19.6,12.5,19.8,12.3,20z M16.1,19.3
				c0,0.3-0.1,0.6-0.3,0.7c-0.2,0.2-0.5,0.2-0.8,0c-0.2-0.2-0.4-0.4-0.3-0.7v-8.1c0-0.4,0.4-0.7,0.7-0.7c0.4,0,0.7,0.3,0.7,0.7V19.3
				z"/>
	</g>
	<g id="mobile">
		<path d="M16.7,0.4H7.3C6,0.4,5,1.4,5,2.7v18.7c0,1.3,1,2.3,2.3,2.3h9.4c1.3,0,2.3-1,2.3-2.3V2.7C19,1.4,18,0.4,16.7,0.4z M12,22.6
	c-0.6,0-1.2-0.5-1.2-1.2c0-0.6,0.5-1.2,1.2-1.2c0.6,0,1.2,0.5,1.2,1.2C13.2,22.1,12.6,22.6,12,22.6z M16.7,19.1H7.3V3.9h9.4V19.1z
	 M16.1,2.7c-0.3,0-0.6-0.3-0.6-0.6s0.3-0.6,0.6-0.6s0.6,0.3,0.6,0.6S16.4,2.7,16.1,2.7z"/>
	</g>
	<g id="tablet">
		<path d="M0.112382 6.36352L-0.000742915 17.2294C-0.00610382 17.6969 0.0807714 18.1608 0.254912 18.5947C0.429052 19.0286 0.687039 19.4239 1.01411 19.758C1.34118 20.092 1.73092 20.3583 2.16102 20.5416C2.59112 20.7249 3.05314 20.8216 3.52065 20.8262L20.3038 21.0002C21.2455 21.0072 22.1515 20.6403 22.8231 19.9802C23.4946 19.32 23.8769 18.4205 23.8861 17.4788L23.9993 6.61007C24.0042 6.14306 23.9172 5.67963 23.743 5.24627C23.5689 4.8129 23.3111 4.41808 22.9844 4.08435C22.6577 3.75062 22.2684 3.48452 21.8388 3.30124C21.4093 3.11796 20.9478 3.02109 20.4808 3.01616L3.70629 2.84212C3.23903 2.83715 2.77538 2.9243 2.34183 3.09862C1.90827 3.27293 1.51333 3.53098 1.17956 3.85801C0.845789 4.18505 0.579745 4.57465 0.396632 5.00456C0.21352 5.43447 0.116929 5.89626 0.112382 6.36352V6.36352ZM22.4938 12.0314C22.4904 12.3469 22.3934 12.6543 22.2153 12.9147C22.0371 13.1751 21.7857 13.3769 21.4929 13.4944C21.2001 13.612 20.879 13.64 20.5702 13.5751C20.2615 13.5102 19.9789 13.3551 19.7582 13.1296C19.5376 12.9041 19.3887 12.6182 19.3306 12.3081C19.2724 11.998 19.3075 11.6776 19.4314 11.3874C19.5553 11.0972 19.7624 10.8503 20.0267 10.6778C20.2909 10.5054 20.6004 10.4152 20.9159 10.4186C21.1254 10.4209 21.3324 10.4644 21.5251 10.5467C21.7178 10.629 21.8924 10.7484 22.0389 10.8982C22.1854 11.0479 22.301 11.2251 22.3791 11.4195C22.4571 11.614 22.4961 11.8219 22.4938 12.0314ZM16.2429 5.72827C16.4631 5.73054 16.6807 5.77617 16.8832 5.86253C17.0857 5.94889 17.2693 6.07431 17.4234 6.23161C17.5774 6.38891 17.699 6.57502 17.7811 6.77932C17.8633 6.98361 17.9044 7.20208 17.9021 7.42225L17.8064 16.5448C17.8041 16.765 17.7585 16.9826 17.6721 17.1851C17.5857 17.3876 17.4603 17.5712 17.303 17.7253C17.1457 17.8793 16.9596 18.0009 16.7553 18.083C16.551 18.1652 16.3326 18.2063 16.1124 18.204L4.37924 18.0822C4.15907 18.0799 3.9415 18.0343 3.73895 17.9479C3.53641 17.8615 3.35286 17.7361 3.19879 17.5788C3.04472 17.4215 2.92315 17.2354 2.84101 17.0311C2.75887 16.8268 2.71777 16.6083 2.72007 16.3882L2.81579 7.26562C2.81806 7.04544 2.86368 6.82787 2.95005 6.62533C3.03641 6.42279 3.16183 6.23924 3.31913 6.08517C3.47643 5.9311 3.66254 5.80952 3.86683 5.72738C4.07113 5.64524 4.2896 5.60415 4.50977 5.60644L16.2429 5.72827Z" />
	</g>
	<g id="desktop">
		<path d="M2.3,1.9c-1.1,0-1.9,0.9-1.9,1.9v12.6c0,1.1,0.9,1.9,1.9,1.9h5.5l-0.4,1.9H6.2c-0.5,0-1,0.4-1,1c0,0.5,0.4,1,1,1h11.7c0.5,0,1-0.4,1-1c0-0.5-0.4-1-1-1h-1.2l-0.4-1.9h5.5c1.1,0,1.9-0.9,1.9-1.9V3.8c0-1.1-0.9-1.9-1.9-1.9H2.3z M2.3,13.5V4.8
		c0-0.5,0.4-1,1-1h17.5c0.5,0,1,0.4,1,1v8.7c0,0.5-0.4,1-1,1H3.2C2.7,14.5,2.3,14.1,2.3,13.5z M12,17.4c0.5,0,1-0.4,1-1
		c0-0.5-0.4-1-1-1s-1,0.4-1,1C11,17,11.4,17.4,12,17.4z"/>
	</g>
	<g id="drag">
		<path d="M6.6 4.78824C6.6 5.77585 5.79411 6.57647 4.8 6.57647C3.80589 6.57647 3 5.77585 3 4.78824C3 3.80062 3.80589 3 4.8 3C5.79411 3 6.6 3.80062 6.6 4.78824Z"/>
		<path d="M6.6 11.9882C6.6 12.9759 5.79411 13.7765 4.8 13.7765C3.80589 13.7765 3 12.9759 3 11.9882C3 11.0006 3.80589 10.2 4.8 10.2C5.79411 10.2 6.6 11.0006 6.6 11.9882Z"/>
		<path d="M4.8 20.9765C5.79411 20.9765 6.6 20.1758 6.6 19.1882C6.6 18.2006 5.79411 17.4 4.8 17.4C3.80589 17.4 3 18.2006 3 19.1882C3 20.1758 3.80589 20.9765 4.8 20.9765Z"/>
		<path d="M13.8 4.78824C13.8 5.77585 12.9941 6.57647 12 6.57647C11.0059 6.57647 10.2 5.77585 10.2 4.78824C10.2 3.80062 11.0059 3 12 3C12.9941 3 13.8 3.80062 13.8 4.78824Z"/>
		<path d="M12 13.7765C12.9941 13.7765 13.8 12.9759 13.8 11.9882C13.8 11.0006 12.9941 10.2 12 10.2C11.0059 10.2 10.2 11.0006 10.2 11.9882C10.2 12.9759 11.0059 13.7765 12 13.7765Z"/>
		<path d="M13.8 19.1882C13.8 20.1758 12.9941 20.9765 12 20.9765C11.0059 20.9765 10.2 20.1758 10.2 19.1882C10.2 18.2006 11.0059 17.4 12 17.4C12.9941 17.4 13.8 18.2006 13.8 19.1882Z"/>
		<path d="M19.2 6.57647C20.1941 6.57647 21 5.77585 21 4.78824C21 3.80062 20.1941 3 19.2 3C18.2059 3 17.4 3.80062 17.4 4.78824C17.4 5.77585 18.2059 6.57647 19.2 6.57647Z"/>
		<path d="M21 11.9882C21 12.9759 20.1941 13.7765 19.2 13.7765C18.2059 13.7765 17.4 12.9759 17.4 11.9882C17.4 11.0006 18.2059 10.2 19.2 10.2C20.1941 10.2 21 11.0006 21 11.9882Z"/>
		<path d="M19.2 20.9765C20.1941 20.9765 21 20.1758 21 19.1882C21 18.2006 20.1941 17.4 19.2 17.4C18.2059 17.4 17.4 18.2006 17.4 19.1882C17.4 20.1758 18.2059 20.9765 19.2 20.9765Z"/>
	</g>
	<g id="loader">
		<ellipse opacity="0.7" rx="3.48584" ry="3.4859" transform="matrix(0.80444 0.594034 -0.593986 0.804475 11.925 4.87503)"/>
		<ellipse rx="3.48584" ry="3.4859" transform="matrix(0.80444 0.594034 -0.593986 0.804475 20.1242 10.9278)"/>
		<ellipse opacity="0.4" rx="3.48584" ry="3.4859" transform="matrix(0.80444 0.594034 -0.593986 0.804475 5.87224 13.0723)"/>
		<ellipse opacity="0.3" rx="3.48584" ry="3.4859" transform="matrix(0.80444 0.594034 -0.593986 0.804475 14.0695 19.125)"/>
	</g>
	<g id="error">
		<path d="M12 5.26509C12.7611 5.18489 13.4491 5.72154 13.5566 6.47925V11.3151C13.4491 12.0728 12.7611 12.6095 12 12.5292C11.2389 12.6095 10.5509 12.0728 10.4434 11.3151V6.46887C10.5559 5.71534 11.2424 5.18445 12 5.26509Z" />
		<path d="M13.5566 16.1613C13.5566 15.3016 12.8597 14.6047 12 14.6047C11.1403 14.6047 10.4434 15.3016 10.4434 16.1613C10.4434 17.021 11.1403 17.7179 12 17.7179C12.8597 17.7179 13.5566 17.021 13.5566 16.1613Z" />
		<path d="M12 23C5.92487 23 1 18.0751 1 12C1 5.92487 5.92487 1 12 1C18.0751 1 23 5.92487 23 12C22.9943 18.0728 18.0728 22.9943 12 23ZM12 3.28302C7.1871 3.28302 3.28493 7.18364 3.28303 11.9965C3.28112 16.8094 7.18019 20.7132 11.9931 20.717C16.806 20.7208 20.7113 16.8233 20.717 12.0104C20.717 7.19444 16.8159 3.28875 12 3.28302Z" />
	</g>
	<g id="search">
		<path d="M16.7485 15.2635L21.6724 20.212V20.1945C21.9562 20.4628 22.0664 20.859 21.9603 21.2287C21.8541 21.5983 21.5484 21.8829 21.1621 21.9715C20.7759 22.0601 20.3704 21.9386 20.1038 21.6545L15.1436 16.6849C13.7435 17.6394 12.071 18.1497 10.3577 18.1449C6.44091 18.1472 3.04866 15.5184 2.19948 11.8228C1.3503 8.12723 3.27235 4.35772 6.82191 2.75737C10.3715 1.15701 14.5948 2.15578 16.9789 5.15935C19.363 8.16291 19.2672 12.3643 16.7485 15.2635ZM16.5307 10.0727C16.5307 6.7776 13.7669 4.10637 10.3577 4.10637C6.9484 4.10637 4.18465 6.7776 4.18465 10.0727C4.18465 13.3679 6.9484 16.0391 10.3577 16.0391C13.7669 16.0391 16.5307 13.3679 16.5307 10.0727Z" />
	</g>
	<g id="dropdown-arrow">
		<path fill-rule="evenodd" clip-rule="evenodd" d="M10.2462 18.2913L10.181 18.226L2.74372 10.506C1.79521 9.52139 1.75397 7.98719 2.62 6.95483L2.78498 6.77443C3.71096 5.81325 5.21397 5.74472 6.22165 6.58844L6.3888 6.74149L12 12.5649L17.5789 6.77417C18.547 5.7693 20.1457 5.74008 21.1498 6.7089L21.2563 6.817C22.2479 7.84633 22.2479 9.47638 21.2563 10.5057L13.819 18.2257C13.4703 18.5877 13.0398 18.8231 12.5847 18.9308C12.5065 18.9492 12.4283 18.9638 12.3496 18.9748C12.2213 18.9926 12.092 19.0006 11.9628 18.9986C11.3427 18.9897 10.7264 18.7546 10.2462 18.2913Z"/>
	</g>
</svg>
