<?xml version="1.0" encoding="utf-8"?>
<svg version="1.1" id="Layer_1"
	xmlns="http://www.w3.org/2000/svg"
	xmlns:xlink="http://www.w3.org/1999/xlink" x="0px" y="0px" style="enable-background:new 0 0 24 24;" xml:space="preserve">
	<g id="close">
		<path d="M20.3,3.8c-1-1-2.5-1-3.5,0L12,8.6L7.2,3.8c-1-1-2.5-1-3.5,0s-1,2.5,0,3.4L8.5,12l-4.8,4.8c-1,1-1,2.5,0,3.4
		c1,1,2.5,1,3.5,0l4.8-4.8l4.8,4.8c1,1,2.5,1,3.5,0c1-1,1-2.5,0-3.4L15.5,12l4.8-4.8C21.3,6.2,21.3,4.7,20.3,3.8z"/>
	</g>
	<g id="add">
		<path d="M13.3,6.7c0-0.7-0.6-1.3-1.3-1.3S10.7,6,10.7,6.7v4h-4c-0.7,0-1.3,0.6-1.3,1.3s0.6,1.3,1.3,1.3h4v4c0,0.7,0.6,1.3,1.3,1.3
		s1.3-0.6,1.3-1.3v-4h4c0.7,0,1.3-0.6,1.3-1.3s-0.6-1.3-1.3-1.3h-4C13.3,10.7,13.3,6.7,13.3,6.7z"/>
	</g>
	<g id="delete">
		<path d="M20.4,4.5C20.1,4.2,19.6,4,19,4h-3.5V2.6c-0.1-0.9-0.8-1.5-1.6-1.6h-3.6c-1,0.1-1.7,0.7-1.7,1.6V4H5C3.9,4,3,4.9,3,6v1.1
				c0,0.3,0.3,0.6,0.6,0.6h16.8c0.3,0,0.6-0.3,0.6-0.6V5.9C21,5.4,20.8,4.9,20.4,4.5z M14.4,4H9.6V3.2c0.1-0.6,0.7-1.1,1.3-1h2.2
				c0.6-0.1,1.2,0.4,1.3,1V4z"/>
		<path d="M19.8,8.7H4.1H4v0.1l0.6,12C4.7,22,5.7,23,6.9,23h10.3c1.2,0,2.2-1,2.3-2.2l0.5-12V8.7C19.9,8.7,19.8,8.7,19.8,8.7z
				 M9.2,11.2v8.1c0,0.3-0.1,0.6-0.3,0.7c-0.2,0.2-0.5,0.2-0.8,0c-0.2-0.2-0.4-0.4-0.3-0.7v-8.1c0-0.3,0.1-0.6,0.3-0.7
				c0.2-0.2,0.5-0.2,0.8,0C9.1,10.7,9.3,10.9,9.2,11.2z M12.3,20c-0.2,0.2-0.5,0.2-0.8,0c-0.2-0.1-0.3-0.4-0.3-0.7v-8.1
				c-0.1-0.3,0.1-0.5,0.3-0.7c0.3-0.2,0.6-0.2,0.8,0c0.2,0.1,0.3,0.4,0.3,0.7v8.1C12.7,19.6,12.5,19.8,12.3,20z M16.1,19.3
				c0,0.3-0.1,0.6-0.3,0.7c-0.2,0.2-0.5,0.2-0.8,0c-0.2-0.2-0.4-0.4-0.3-0.7v-8.1c0-0.4,0.4-0.7,0.7-0.7c0.4,0,0.7,0.3,0.7,0.7V19.3
				z"/>
	</g>
  <g id="mobile">
    <path d="M16.7,0.4H7.3C6,0.4,5,1.4,5,2.7v18.7c0,1.3,1,2.3,2.3,2.3h9.4c1.3,0,2.3-1,2.3-2.3V2.7C19,1.4,18,0.4,16.7,0.4z M12,22.6
	c-0.6,0-1.2-0.5-1.2-1.2c0-0.6,0.5-1.2,1.2-1.2c0.6,0,1.2,0.5,1.2,1.2C13.2,22.1,12.6,22.6,12,22.6z M16.7,19.1H7.3V3.9h9.4V19.1z
	 M16.1,2.7c-0.3,0-0.6-0.3-0.6-0.6s0.3-0.6,0.6-0.6s0.6,0.3,0.6,0.6S16.4,2.7,16.1,2.7z"/>
  </g>
  <g id="desktop">
    <path d="M2.3,1.9c-1.1,0-1.9,0.9-1.9,1.9v12.6c0,1.1,0.9,1.9,1.9,1.9h5.5l-0.4,1.9H6.2c-0.5,0-1,0.4-1,1c0,0.5,0.4,1,1,1h11.7c0.5,0,1-0.4,1-1c0-0.5-0.4-1-1-1h-1.2l-0.4-1.9h5.5c1.1,0,1.9-0.9,1.9-1.9V3.8c0-1.1-0.9-1.9-1.9-1.9H2.3z M2.3,13.5V4.8
		c0-0.5,0.4-1,1-1h17.5c0.5,0,1,0.4,1,1v8.7c0,0.5-0.4,1-1,1H3.2C2.7,14.5,2.3,14.1,2.3,13.5z M12,17.4c0.5,0,1-0.4,1-1
		c0-0.5-0.4-1-1-1s-1,0.4-1,1C11,17,11.4,17.4,12,17.4z"/>
  </g>
  <g id="drag">
    <path d="M6.6 4.78824C6.6 5.77585 5.79411 6.57647 4.8 6.57647C3.80589 6.57647 3 5.77585 3 4.78824C3 3.80062 3.80589 3 4.8 3C5.79411 3 6.6 3.80062 6.6 4.78824Z"/>
    <path d="M6.6 11.9882C6.6 12.9759 5.79411 13.7765 4.8 13.7765C3.80589 13.7765 3 12.9759 3 11.9882C3 11.0006 3.80589 10.2 4.8 10.2C5.79411 10.2 6.6 11.0006 6.6 11.9882Z"/>
    <path d="M4.8 20.9765C5.79411 20.9765 6.6 20.1758 6.6 19.1882C6.6 18.2006 5.79411 17.4 4.8 17.4C3.80589 17.4 3 18.2006 3 19.1882C3 20.1758 3.80589 20.9765 4.8 20.9765Z"/>
    <path d="M13.8 4.78824C13.8 5.77585 12.9941 6.57647 12 6.57647C11.0059 6.57647 10.2 5.77585 10.2 4.78824C10.2 3.80062 11.0059 3 12 3C12.9941 3 13.8 3.80062 13.8 4.78824Z"/>
    <path d="M12 13.7765C12.9941 13.7765 13.8 12.9759 13.8 11.9882C13.8 11.0006 12.9941 10.2 12 10.2C11.0059 10.2 10.2 11.0006 10.2 11.9882C10.2 12.9759 11.0059 13.7765 12 13.7765Z"/>
    <path d="M13.8 19.1882C13.8 20.1758 12.9941 20.9765 12 20.9765C11.0059 20.9765 10.2 20.1758 10.2 19.1882C10.2 18.2006 11.0059 17.4 12 17.4C12.9941 17.4 13.8 18.2006 13.8 19.1882Z"/>
    <path d="M19.2 6.57647C20.1941 6.57647 21 5.77585 21 4.78824C21 3.80062 20.1941 3 19.2 3C18.2059 3 17.4 3.80062 17.4 4.78824C17.4 5.77585 18.2059 6.57647 19.2 6.57647Z"/>
    <path d="M21 11.9882C21 12.9759 20.1941 13.7765 19.2 13.7765C18.2059 13.7765 17.4 12.9759 17.4 11.9882C17.4 11.0006 18.2059 10.2 19.2 10.2C20.1941 10.2 21 11.0006 21 11.9882Z"/>
    <path d="M19.2 20.9765C20.1941 20.9765 21 20.1758 21 19.1882C21 18.2006 20.1941 17.4 19.2 17.4C18.2059 17.4 17.4 18.2006 17.4 19.1882C17.4 20.1758 18.2059 20.9765 19.2 20.9765Z"/>
  </g>
  <g id="loader">
    <ellipse opacity="0.7" rx="3.48584" ry="3.4859" transform="matrix(0.80444 0.594034 -0.593986 0.804475 11.925 4.87503)"/>
    <ellipse rx="3.48584" ry="3.4859" transform="matrix(0.80444 0.594034 -0.593986 0.804475 20.1242 10.9278)"/>
    <ellipse opacity="0.4" rx="3.48584" ry="3.4859" transform="matrix(0.80444 0.594034 -0.593986 0.804475 5.87224 13.0723)"/>
    <ellipse opacity="0.3" rx="3.48584" ry="3.4859" transform="matrix(0.80444 0.594034 -0.593986 0.804475 14.0695 19.125)"/>
  </g>
</svg>
